<?xml version="1.0" encoding="UTF-8" standalone="no"?>
<!-- Created with Inkscape (http://www.inkscape.org/) -->

<svg
   xmlns:dc="http://purl.org/dc/elements/1.1/"
   xmlns:cc="http://creativecommons.org/ns#"
   xmlns:rdf="http://www.w3.org/1999/02/22-rdf-syntax-ns#"
   xmlns:svg="http://www.w3.org/2000/svg"
   xmlns="http://www.w3.org/2000/svg"
   xmlns:sodipodi="http://sodipodi.sourceforge.net/DTD/sodipodi-0.dtd"
   xmlns:inkscape="http://www.inkscape.org/namespaces/inkscape"
   width="84.198189mm"
   height="134.28134mm"
   viewBox="0 0 84.198189 134.28134"
   version="1.1"
   id="svg1029"
   inkscape:version="0.92.4 (5da689c313, 2019-01-14)"
   sodipodi:docname="ihedn.svg">
  <defs
     id="defs1023" />
  <sodipodi:namedview
     id="base"
     pagecolor="#ffffff"
     bordercolor="#666666"
     borderopacity="1.0"
     inkscape:pageopacity="0.0"
     inkscape:pageshadow="2"
     inkscape:zoom="0.7"
     inkscape:cx="222.20085"
     inkscape:cy="256.89919"
     inkscape:document-units="mm"
     inkscape:current-layer="layer1"
     showgrid="false"
     fit-margin-top="0"
     fit-margin-left="0"
     fit-margin-right="0"
     fit-margin-bottom="0"
     inkscape:pagecheckerboard="true"
     inkscape:window-width="1920"
     inkscape:window-height="1001"
     inkscape:window-x="-9"
     inkscape:window-y="-9"
     inkscape:window-maximized="1" />
  <metadata
     id="metadata1026">
    <rdf:RDF>
      <cc:Work
         rdf:about="">
        <dc:format>image/svg+xml</dc:format>
        <dc:type
           rdf:resource="http://purl.org/dc/dcmitype/StillImage" />
        <dc:title></dc:title>
      </cc:Work>
    </rdf:RDF>
  </metadata>
  <g
     inkscape:label="Calque 1"
     inkscape:groupmode="layer"
     id="layer1"
     transform="translate(-28.960439,-109.6629)">
    <rect
       style="opacity:1;fill:#024393;fill-opacity:1;fill-rule:evenodd;stroke:none;stroke-width:2.77812505;stroke-linejoin:miter;stroke-miterlimit:4;stroke-dasharray:none;stroke-opacity:1"
       id="rect124-6"
       width="84.074013"
       height="104.30933"
       x="29.072844"
       y="109.6629" />
    <path
       style="fill:#ffffff;fill-opacity:1;stroke-width:0.08466666"
       d="m 29.023101,164.74326 -1.6e-5,-10.92983 1.291167,-1.09384 c 10.011859,-8.48169 19.865075,-14.31563 31.474835,-18.63575 14.987984,-5.57718 30.463411,-7.73206 45.677663,-6.36037 1.88963,0.23793 3.80627,0.33035 5.67983,0.67498 v 4.10472 c 0,2.25759 0.0271,4.10472 0,4.10472 -0.0269,0 -0.80173,-0.0938 -1.60135,-0.20852 -6.62009,-0.9495 -14.181326,-0.64067 -22.000902,0.89861 l -0.904451,0.17804 -0.959485,-0.96323 c -5.335006,-5.35587 -11.941916,-6.87935 -19.160305,-4.41818 -1.41142,0.48123 -3.876357,1.69581 -5.115004,2.52038 -3.142033,2.09166 -6.030463,5.44891 -7.797007,9.06257 -0.960334,1.96446 -1.52751,4.02112 -1.905124,6.01133 l -0.09639,0.508 -1.170528,0.65726 c -5.646922,3.56226 -11.436958,8.73483 -16.068542,14.35494 -2.128785,2.58313 -4.808167,6.35682 -6.533912,9.20247 -0.367109,0.60537 -0.771165,1.13686 -0.810482,1.1811 -0.03934,0.0442 10e-6,-4.83799 0,-10.8494 z m 0,-25.90427 -1.6e-5,-9.56383 1.121833,-0.61592 c 1.608614,-0.88319 5.934181,-3.01061 7.768167,-3.82058 10.850483,-4.79208 22.42463,-7.77733 33.951335,-8.75684 3.305387,-0.28089 4.814808,-0.33786 8.932334,-0.33711 4.106889,7.4e-4 5.630333,0.0578 9.017,0.33756 6.890199,0.56922 14.224316,1.86456 21.305416,3.76292 1.03952,0.27868 2.00322,0.5067 2.02741,0.5067 0.0241,0 0,0.76462 0,1.69915 v 1.69915 l -0.70566,-0.0514 c -3.23208,-0.23538 -11.04019,-0.36958 -14.964833,-0.22335 -14.488186,0.53984 -26.69077,2.8526 -38.692667,7.33343 -9.841682,3.67432 -18.592352,8.55363 -26.148217,14.58002 -1.187371,0.94701 -2.110063,1.59237 -3.612102,2.88627 -0.140997,0.12145 1.6e-5,-0.33561 0,-9.43618 z"
       id="path30-9-8"
       inkscape:connector-curvature="0"
       sodipodi:nodetypes="scssccsscccccscccccccsscccscsssscsssccs" />
    <rect
       style="opacity:1;fill:#ffffff;fill-opacity:1;fill-rule:evenodd;stroke:none;stroke-width:10.86894321;stroke-linejoin:miter;stroke-miterlimit:4;stroke-dasharray:none;stroke-opacity:1"
       id="rect931-9"
       width="84.074013"
       height="1.9592394"
       x="29.072891"
       y="213.97223" />
    <rect
       style="opacity:1;fill:#c5c6c8;fill-opacity:1;fill-rule:evenodd;stroke:none;stroke-width:2.77812505;stroke-linejoin:miter;stroke-miterlimit:4;stroke-dasharray:none;stroke-opacity:1"
       id="rect933-8"
       width="84.074013"
       height="28.012775"
       x="29.072891"
       y="215.93147" />
    <path
       style="fill:#87888a;fill-opacity:1;stroke-width:0.0846655"
       d="m 54.346334,220.57559 c -0.345016,-0.10319 -2.062189,-1.12816 -2.734998,-1.63249 -0.254449,-0.19076 -1.105244,-0.97328 -1.890633,-1.73894 -0.785362,-0.76567 -1.436264,-1.37526 -1.44645,-1.35465 -0.01006,0.0206 -0.23876,-0.1772 -0.507974,-0.43958 -0.457914,-0.44627 -1.208643,-1.03064 -2.852235,-2.22022 -2.318729,-1.67824 -4.446243,-3.69795 -5.8284,-5.53308 -1.837187,-2.43925 -3.760655,-6.64727 -4.635923,-10.14207 -0.361897,-1.44491 -0.125069,-3.74494 0.649446,-6.30758 0.330888,-1.09481 1.043623,-3.04231 1.347867,-3.68295 0.436166,-0.91839 1.875975,-3.05939 3.75576,-5.58483 1.247722,-1.67628 4.585044,-4.9762 5.909813,-5.84358 0.197908,-0.12958 0.359833,-0.24542 0.359833,-0.25743 0,-0.012 -0.07535,-0.18792 -0.167481,-0.39091 -0.183912,-0.40536 -0.215741,-0.76261 -0.08898,-0.99945 0.199548,-0.37285 1.391814,-0.56337 1.89222,-0.30237 0.342609,0.1787 0.609891,-0.009 0.68535,-0.48065 0.04413,-0.276 0.143881,-0.42902 0.476012,-0.73032 0.346128,-0.31401 0.420159,-0.43172 0.420159,-0.66808 0,-0.1578 0.05342,-0.3902 0.118718,-0.51644 0.122449,-0.23683 0.604811,-0.54807 0.989118,-0.63824 0.302604,-0.071 0.76888,0.0777 0.93525,0.29825 l 0.138721,0.18391 0.132424,-0.25608 c 0.403833,-0.78092 1.254839,-1.09571 3.146716,-1.16396 0.372506,-0.0134 0.904398,-0.087 1.18192,-0.1635 0.644181,-0.17753 1.336093,-0.17752 1.710266,4e-5 0.31705,0.15044 0.788538,0.86036 0.789967,1.18937 0,0.26782 0.117792,0.30773 0.877014,0.30006 l 0.679741,-0.007 0.936493,-0.80443 c 1.52437,-1.30941 2.580587,-2.29217 2.983627,-2.77615 0.818811,-1.35618 1.561319,-2.96884 1.97223,-4.30647 0.055,0.003 0.175514,0.0276 0.451975,0.0553 0.292708,0.0293 0.487137,0.032 0.49698,0.0392 0.04532,0.0332 -0.456274,1.87827 -0.690907,2.44566 -0.435424,1.05294 -1.105535,2.18016 -1.647957,2.77211 -0.281834,0.30758 -1.255448,1.21302 -2.163604,2.01209 -0.908129,0.79907 -1.702249,1.51487 -1.764638,1.59067 -0.08887,0.10792 -0.09305,0.19978 -0.01931,0.42346 0.14105,0.42743 0.478367,0.69753 1.335326,1.06921 1.869175,0.8107 3.711707,1.32659 5.035232,1.4098 1.540008,0.0968 5.488279,-0.35976 5.488279,-0.63465 0,-0.0392 -0.377878,-0.63389 -0.839708,-1.32146 -0.475218,-0.70747 -0.876618,-1.40095 -0.924719,-1.59756 -0.260376,-1.06466 -0.195289,-2.04604 0.190024,-2.86485 0.115411,-0.24522 0.289057,-0.83674 0.385895,-1.31447 0.196532,-0.96961 0.187404,-1.01593 -0.327211,-1.66183 -0.144224,-0.18103 -0.262255,-0.42935 -0.262255,-0.55184 0,-0.21475 0.279268,-0.71005 0.6037,-1.07071 0.135149,-0.15023 0.142452,-0.21029 0.05405,-0.44449 -0.097,-0.17953 -0.124751,-0.32601 -0.544301,-0.35264 -0.688015,-0.0437 -0.605764,-0.13997 0.121496,-0.20337 0.93771,-0.0817 3.342746,-0.43295 4.66815,-0.68285 0.624523,-0.11774 1.148239,-0.21167 1.163823,-0.19609 0.01561,0.0156 -0.05723,0.10505 -0.161819,0.19882 -0.225849,0.20245 -1.891348,0.76977 -2.73013,0.87182 -0.354462,0.0431 -0.469794,0.0764 -0.286994,0.0828 0.168143,0.006 0.441008,0.10254 0.606399,0.21478 l 0.300699,0.20407 1.171601,-0.37898 c 0.83693,-0.27074 1.323367,-0.38159 1.702965,-0.38811 0.616267,-0.0106 0.844285,0.12117 0.569277,0.32894 -0.345943,0.26136 -0.860901,0.48069 -1.581097,0.67342 -0.939112,0.25133 -1.366864,0.42974 -1.297887,0.54134 0.07022,0.11364 0.678392,0.4239 0.830897,0.4239 0.06472,0 0.811134,-0.1905 1.658726,-0.42333 0.847593,-0.23283 1.670976,-0.42333 1.829726,-0.42333 0.314722,0 2.501821,0.66206 3.968274,1.20124 0.693949,0.25515 0.937366,0.31286 0.986234,0.23379 0.0269,-0.0435 -1.126693,-0.73045 -1.004445,-0.70987 0.09948,0.0168 1.446024,0.6188 1.698839,0.72155 0.133294,0.0542 0.451154,0.19561 0.678299,0.2546 0.809093,0.2101 1.98836,0.52833 1.933419,0.54769 -0.0058,0.002 -0.24706,-0.001 -0.53984,-0.047 -0.466352,-0.0726 -1.06965,-0.30654 -1.107665,-0.30611 -0.315621,0.004 -0.814559,-0.0304 -0.814268,0.13667 0,0.26812 0.271436,0.78642 0.62267,1.05432 0.429419,0.32752 1.049787,0.47608 2.254965,0.53998 l 1.057645,0.0561 0.348747,0.96717 c 0.360601,1.00012 0.360551,1.28054 0.09015,1.42526 -0.244004,0.11452 -0.441555,-0.0707 -0.629102,-0.43005 -0.149066,-0.25263 -0.227039,-0.26551 -0.630158,-0.31289 -0.432171,-0.0508 -2.149449,0.0897 -2.452529,0.2116 -0.267414,0.10758 -0.279612,0.48583 -0.01905,0.58587 0.0675,0.0259 0.436007,0.0693 0.818938,0.0965 1.168162,0.0829 1.836103,0.25833 2.220225,0.58326 0.186267,0.15757 0.313875,0.31165 0.28358,0.3424 -0.03029,0.0308 -0.255905,-0.0459 -0.501359,-0.17023 -0.360071,-0.18247 -0.602932,-0.23466 -1.257247,-0.27018 -0.837353,-0.0455 -1.987999,0.0835 -2.182098,0.24464 -0.12864,0.10676 -0.144303,0.47903 -0.03252,0.77302 0.07292,0.19181 0.131842,0.20878 0.91014,0.2621 1.473227,0.10095 2.16244,0.22277 2.504334,0.44268 0.174625,0.11232 0.3175,0.24177 0.3175,0.28768 0,0.10417 0.08689,0.11362 -0.850635,-0.0925 -0.955754,-0.21018 -2.710815,-0.27189 -2.769235,-0.0974 -0.01984,0.0592 -0.146897,0.16494 -0.28239,0.235 -0.251063,0.12984 -0.331708,0.45015 -0.175313,0.69655 0.0953,0.15019 0.809996,0.25269 2.501001,0.3587 l 1.449572,0.0909 0.509138,0.52561 c 0.619204,0.63926 3.195347,3.51367 3.268742,3.6472 0.02892,0.0526 0.07871,2.55312 0.110596,5.55663 0.03191,3.00351 0.09517,5.86097 0.140573,6.34991 0.200263,2.15615 0.975228,5.85208 1.411367,6.73091 0.42074,0.84783 1.509633,2.15897 1.793028,2.15897 0.135334,0 0.485352,-0.67626 0.679238,-1.31231 0.215239,-0.70605 0.599044,-2.91515 0.853202,-4.9106 0.207328,-1.62782 0.19312,-2.38177 -0.09496,-5.0376 -0.28829,-2.65806 -0.554752,-4.19684 -1.084924,-6.26525 -0.613542,-2.39377 -0.827458,-3.34678 -0.98208,-4.37545 -0.125016,-0.8315 -0.269505,-1.23937 -1.119346,-3.15978 -0.765837,-1.73055 -3.611428,-6.88082 -4.011716,-7.28558 -0.204761,-0.20706 -0.272947,-0.21992 -0.783725,-0.22758 l -1.177644,-0.0263 0.747686,-0.25632 c 0.1447,-0.088 0.317735,-0.19327 0.363085,-0.31253 0.07739,-0.20357 0.206414,-0.19572 0.584107,-0.14093 0.546735,0.0793 0.645954,0.14252 1.025419,0.65308 0.383778,0.51639 2.786221,4.84331 3.441991,6.19921 0.936625,1.93661 1.649783,3.77813 1.649783,4.26005 0,0.384 0.279427,1.66078 0.965227,4.41033 0.585232,2.34635 0.813884,3.64053 1.108339,6.27308 0.355733,3.18061 0.351155,3.77915 -0.05027,6.60391 -0.222646,1.56672 -0.547396,3.29805 -0.723291,3.85604 -0.136922,0.43434 -0.136552,0.43736 0.343985,2.88248 1.592659,8.10372 2.436414,12.46789 2.476874,12.635 0.0455,0.18795 0.0347,0.1905 -0.801612,0.1905 l -0.864209,-0.008 -0.41793,-1.71257 c -0.213228,-0.8964 -0.549254,-2.7728 -0.803915,-4.16978 -0.340228,-1.86628 -0.601054,-3.0109 -0.98343,-4.3155 -0.480298,-1.63868 -0.518134,-1.82773 -0.490908,-2.45294 l 0.02947,-0.6774 -0.973641,-0.61399 c -0.535516,-0.33769 -1.01092,-0.60255 -1.056454,-0.58858 -0.04556,0.014 -0.131895,0.19395 -0.191876,0.39995 -0.09223,0.31676 -0.0884,0.46589 0.02487,0.96633 0.07369,0.32547 0.203649,0.70646 0.288792,0.84665 0.09194,0.15136 0.401717,1.45864 0.762635,3.21819 0.334301,1.62981 0.856113,3.85558 1.159563,4.94617 l 0.551762,1.98287 -0.06019,1.04392 -0.06022,1.04392 h -1.036981 -1.036982 l -0.04736,-0.3175 c -0.02593,-0.17462 -0.280538,-1.53668 -0.565573,-3.02679 -0.729695,-3.81479 -0.827194,-4.32837 -1.016556,-5.3551 -0.09234,-0.50058 -0.188304,-0.99582 -0.213254,-1.10052 -0.03202,-0.13436 -0.204999,-0.26275 -0.587878,-0.43636 -0.605763,-0.27467 -1.533181,-0.85585 -2.27158,-1.42351 l -0.488976,-0.37591 -0.696357,0.60789 c -1.27561,1.11357 -1.626659,1.28803 -3.678,1.82767 l -1.146519,0.30162 -0.497496,-0.18139 c -0.458152,-0.16705 -0.72771,-0.1711 -0.627803,-0.009 0.02249,0.0364 -0.0531,0.19362 -0.168037,0.34939 -0.274267,0.37175 -1.38811,0.77698 -2.684277,0.97658 -0.987081,0.152 -1.338527,0.11144 -1.688915,-0.19491 -0.150786,-0.13184 -0.322818,-0.0841 -0.322818,0.0896 0,0.0568 -0.133747,0.3823 -0.297207,0.72338 -0.226377,0.47235 -0.318939,0.65127 -0.421386,0.61195 -0.08554,-0.0328 -0.448418,0.14465 -1.021797,0.53785 -0.85725,0.58785 -0.946724,0.67018 -2.234451,1.04502 -0.745067,0.21686 -1.791576,0.43458 -2.303809,0.5056 -0.512233,0.071 -1.309719,0.24348 -1.767131,0.37819 l -0.887664,0.22368 -2.423795,-0.18783 c -2.38551,-0.17104 -2.512827,-0.17202 -4.502229,-0.0344 -1.377447,0.0953 -2.254409,0.19683 -2.680309,0.31028 l -0.633015,0.16862 -0.763958,-0.42693 -0.648203,-0.36722 -0.862253,0.0138 c -0.708925,0.0519 -0.866799,0.0202 -1.470313,-0.18877 -0.364014,-0.12601 -0.918343,-0.38099 -1.231821,-0.5666 -0.520303,-0.30806 -0.593646,-0.32922 -0.841428,-0.24285 -0.250851,0.0875 -0.293343,0.0737 -0.56007,-0.18169 -0.709136,-0.67888 -1.001977,-1.22802 -1.458489,-2.73485 -0.239289,-0.78984 -0.566711,-1.86493 -0.727631,-2.38907 -0.160919,-0.52415 -0.845661,-2.25365 -1.521618,-3.84333 -1.208141,-2.84117 -1.233885,-2.91477 -1.514528,-4.32753 -0.157031,-0.79047 -0.31713,-1.46616 -0.355812,-1.50155 -0.03868,-0.0354 -0.206984,-0.10794 -0.374015,-0.16123 -0.681884,-0.21758 -0.825262,-0.59301 -0.693737,-1.81657 0.04575,-0.42567 0.05654,-0.80438 0.02408,-0.84157 -0.109115,-0.12456 -1.253332,0.87235 -1.876875,1.63524 -0.717391,0.87772 -0.983404,1.69851 -1.056005,3.25832 -0.05974,1.28395 0.05675,2.43785 0.555651,5.50325 0.352214,2.1642 0.428943,2.41693 1.20015,3.95375 0.680112,1.35528 1.086035,1.90649 2.202789,2.99106 1.596998,1.55104 3.882549,3.58185 3.887258,3.45405 0,-0.0383 0.04006,-0.005 0.08583,0.0731 0.0458,0.0785 0.38989,0.37377 0.764646,0.65615 0.56597,0.42649 0.738002,0.51343 1.015815,0.51343 h 0.334459 l -0.04781,-0.31749 c -0.02619,-0.17463 -0.09943,-0.83184 -0.162507,-1.46049 l -0.114723,-1.14298 0.263419,-0.23223 c 0.232727,-0.20515 0.772054,-0.39587 0.862806,-0.30511 0.01826,0.0183 0.09911,0.73726 0.179546,1.59764 0.08043,0.86039 0.168461,1.59096 0.19558,1.6235 0.02712,0.0325 0.206217,0.0842 0.397987,0.11486 l 0.348668,0.0557 0.191823,-1.25785 c 0.240929,-1.57973 0.27006,-1.621 1.000521,-1.41791 l 0.521573,0.14501 -0.04334,0.43086 c -0.117052,1.16365 -0.200105,2.8008 -0.144489,2.84799 0.03439,0.0292 0.298688,0.23141 0.587295,0.44934 l 0.524748,0.39625 0.07554,-0.27672 c 0.101018,-0.37001 0.513794,-2.62635 0.574939,-3.1428 0.04665,-0.39408 0.05784,-0.40866 0.274982,-0.35815 0.666776,0.15509 0.865875,0.15609 1.032563,0.005 0.0921,-0.0833 0.166687,-0.11704 0.165761,-0.0749 0,0.0421 -0.07773,0.70526 -0.170682,1.4736 -0.09295,0.76834 -0.192882,1.61605 -0.222039,1.88381 l -0.05305,0.48683 H 58.267561 57.4718 l 0.933715,0.94562 c 1.034362,1.04755 1.288679,1.44218 1.288679,1.99968 0,0.4291 -0.258312,0.77998 -0.574199,0.77998 -0.292391,0 -0.321204,0.14606 -0.08435,0.42755 0.284718,0.33838 0.357373,0.75104 0.189389,1.07588 -0.153167,0.2962 -0.282998,0.35921 -0.740198,0.35921 -0.315489,0 -0.344038,0.0217 -0.496015,0.3762 -0.281622,0.65698 -0.831638,0.80048 -1.6002,0.4175 l -0.446087,-0.22229 -0.229844,0.27531 c -0.193093,0.23129 -0.297047,0.27987 -0.650028,0.30378 -0.231113,0.0156 -0.553535,-0.0114 -0.716518,-0.0602 z m 0.459476,-0.9305 c -0.136287,-0.14396 -0.495459,-0.4355 -0.798142,-0.64788 -0.710407,-0.49847 -1.608641,-1.36994 -1.608641,-1.56069 0,-0.0818 0.09234,-0.20917 0.205211,-0.28312 0.185844,-0.12176 0.229156,-0.12209 0.458603,-0.003 0.329803,0.17055 2.239354,1.46665 3.089327,2.09686 0.452438,0.33548 0.742739,0.49243 0.910802,0.49243 0.135652,0 0.246644,-0.0304 0.246644,-0.0675 0,-0.10875 -0.57531,-0.62498 -1.439306,-1.29146 -1.052089,-0.81159 -1.845469,-1.49943 -1.998001,-1.73223 -0.228389,-0.34859 0.125333,-0.7343 0.495194,-0.53999 0.104775,0.0551 0.89535,0.58381 1.756807,1.17504 1.502304,1.03102 2.279253,1.52481 2.399241,1.52481 0.03082,0 0.05606,-0.0531 0.05606,-0.11803 0,-0.13556 -0.795707,-0.85967 -2.51407,-2.28788 -0.892916,-0.74215 -1.215469,-1.06127 -1.255131,-1.24186 -0.121364,-0.55266 0.218732,-0.80218 0.733293,-0.53799 0.348536,0.17896 1.087067,0.69314 2.326058,1.61947 0.517631,0.38701 0.984356,0.70365 1.037167,0.70365 0.245824,0 0.03781,-0.36465 -0.602483,-1.05615 -0.882439,-0.953 -2.289122,-2.07741 -3.106711,-2.48327 -0.69305,-0.34405 -1.071113,-0.37979 -2.502376,-0.23656 l -0.677334,0.0678 -0.508,-0.33433 c -0.577664,-0.38019 -1.316963,-1.01575 -3.72528,-3.2025 -2.624905,-2.38346 -3.006143,-2.83339 -3.882364,-4.582 -0.825156,-1.64674 -0.95496,-2.06003 -1.272804,-4.05282 -0.614389,-3.8518 -0.729509,-5.1742 -0.570997,-6.55822 0.236299,-2.06299 1.034573,-3.24552 3.388254,-5.01918 1.910318,-1.43956 3.434821,-3.0307 4.031006,-4.20718 0.112184,-0.22143 0.316706,-0.77884 0.454475,-1.23869 0.137769,-0.45985 0.452305,-1.48378 0.699003,-2.2754 l 0.448548,-1.43931 -0.01905,-1.43932 c -0.01799,-1.34562 -0.119724,-2.0726 -0.333111,-2.37791 -0.04561,-0.0653 -0.359224,-0.0481 -1.08024,0.0592 -1.204516,0.17923 -1.617266,0.19196 -2.120054,0.0653 -0.635053,-0.15991 -0.865928,-0.0596 -1.91381,0.8319 -1.235578,1.05113 -3.708506,3.51811 -4.371076,4.36056 -0.282548,0.35924 -0.930301,1.23553 -1.439439,1.94731 -2.185326,3.05495 -2.738199,4.02144 -3.452468,6.03541 -1.191948,3.36079 -1.580965,5.99532 -1.136095,7.69385 0.484426,1.84948 1.332336,4.07952 2.289652,6.02196 1.213035,2.46126 2.34471,4.07778 4.057729,5.79623 1.522677,1.52749 2.836545,2.59502 5.214249,4.23663 0.68707,0.47436 1.439545,1.14258 2.974631,2.64158 2.059649,2.01123 2.709916,2.53298 4.200711,3.37045 0.455295,0.25577 0.979223,0.4353 1.066059,0.36528 0.01984,-0.016 -0.07538,-0.14695 -0.211667,-0.2909 z m 2.063194,-11.12083 c 0.0172,-0.0172 -0.106574,-1.60617 -0.275167,-3.53091 -0.263313,-3.0057 -0.843015,-9.92729 -1.147313,-13.69863 -0.167163,-2.07206 -0.754538,-7.13046 -1.017851,-8.76595 -0.142452,-0.88476 -0.33073,-2.38969 -0.418386,-3.34429 -0.215662,-2.34852 -0.286914,-2.62322 -0.679926,-2.62147 -0.26625,0.001 -0.815473,0.32097 -1.026293,0.59755 -0.208809,0.27397 -0.216773,0.3219 -0.160337,0.9656 0.06824,0.77844 -0.01561,1.9681 -0.250243,3.55137 -0.09012,0.60788 -0.187193,1.33383 -0.215715,1.61323 -0.271621,2.6585 -0.908394,5.48917 -1.519105,6.75302 -0.553588,1.14558 -1.115801,2.93225 -1.358979,4.31855 -0.115835,0.66036 -0.210609,1.3253 -0.210609,1.47766 0,0.16439 0.393145,1.19884 0.967079,2.54449 1.357021,3.18181 1.403138,3.30582 2.038667,5.47999 0.61767,2.11307 0.798486,2.52957 1.346253,3.10122 0.747237,0.77982 2.818527,1.72996 3.561054,1.63353 0.18452,-0.024 0.349594,-0.0577 0.366871,-0.075 z m 8.229838,-0.63818 c 0.298556,-0.29855 0.22008,-0.77166 -0.502047,-3.02615 -1.868143,-5.83235 -4.069874,-13.02924 -4.069874,-13.30329 0,-0.0873 -0.377428,-1.67803 -0.838729,-3.53497 -0.540173,-2.17447 -0.872463,-3.6927 -0.933476,-4.26525 -0.210423,-1.97411 -0.248206,-2.25793 -0.34634,-2.60125 -0.180684,-0.63207 0.06329,-1.01572 0.474557,-0.74624 0.405818,0.2659 0.701225,1.15372 1.768607,5.31529 0.974884,3.80095 4.411689,15.78542 5.21425,18.18258 0.298767,0.89241 1.498229,3.61651 1.688835,3.8355 0.08517,0.0979 0.852382,-0.11255 0.904372,-0.24802 0.02408,-0.0627 -0.223731,-0.69557 -0.550703,-1.40628 -0.627698,-1.36438 -0.841508,-2.12534 -1.195652,-4.2555 -0.245693,-1.47786 -0.327899,-2.35234 -0.382059,-4.06394 -0.02651,-0.83819 -0.09065,-2.04451 -0.142504,-2.68071 -0.08734,-1.07147 -0.08258,-1.18032 0.0644,-1.47703 0.30181,-0.6092 0.436801,-0.43615 0.667544,0.85578 0.321601,1.80055 1.884892,7.68192 2.848001,10.71462 0.467916,1.47335 0.591238,1.66957 1.265106,2.01295 0.942525,0.48027 1.5417,0.45686 3.336607,-0.13041 0.69559,-0.2276 1.624013,-0.73668 1.747229,-0.95806 0.03813,-0.0685 0.468895,-1.40092 0.957263,-2.96088 0.948531,-3.0299 1.395968,-4.76713 1.820836,-7.06957 0.455692,-2.46949 0.608224,-3.11515 0.870135,-3.68295 0.139594,-0.30268 0.503026,-1.15992 0.807588,-1.90498 l 0.553746,-1.35465 -0.105436,-1.26998 c -0.05797,-0.69849 -0.231881,-2.88921 -0.386424,-4.86826 -0.15457,-1.97906 -0.284401,-3.60664 -0.288529,-3.61685 -0.02797,-0.0692 -1.338712,-0.85138 -2.589794,-1.54553 -0.186267,-0.10335 -0.529167,-0.29426 -0.762,-0.42424 -0.275617,-0.15387 -0.848598,-0.32779 -1.642189,-0.49844 l -1.218857,-0.26211 -1.744424,0.31195 c -1.568847,0.28054 -1.893596,0.31205 -3.226091,0.31304 -1.644465,10e-4 -3.305651,-0.21095 -4.641744,-0.59282 -0.904637,-0.25855 -4.003913,-1.77803 -4.421373,-2.16766 -0.27133,-0.25325 -0.314986,-0.35962 -0.453363,-1.10517 l -0.153115,-0.82494 -0.266303,0.18448 c -0.28911,0.20029 -0.722974,0.66086 -0.728504,0.77336 -0.0026,0.0385 0.394282,0.49567 0.880401,1.01599 0.486119,0.52032 1.145064,1.26989 1.464337,1.6657 0.654129,0.81093 1.980803,1.86214 4.477094,3.54747 0.786289,0.53084 1.752468,1.21584 2.147067,1.52221 0.943637,0.73267 2.392177,2.12876 2.849351,2.74622 0.592693,0.80047 0.592085,1.43211 -0.0026,1.54346 -0.542449,0.10176 -0.842116,-0.0823 -1.983766,-1.21828 -1.718628,-1.71013 -2.81141,-2.59363 -4.613487,-3.72988 -1.227164,-0.77377 -1.766411,-1.17543 -2.69748,-2.00928 -0.876088,-0.7846 -1.343686,-1.35105 -2.13532,-2.5867 -0.66085,-1.03154 -1.428512,-1.84761 -1.73736,-1.84688 -0.07395,1.7e-4 -0.254661,0.0736 -0.401558,0.16318 -0.456724,0.27848 -0.436748,0.48407 0.189706,1.95314 0.30779,0.72177 0.609759,1.54091 0.671037,1.82031 0.06128,0.2794 0.19378,1.57478 0.294428,2.87863 0.22516,2.91596 0.45048,4.86327 0.682704,5.89982 0.09718,0.43381 0.819468,3.98911 1.605122,7.90065 0.785627,3.91155 1.565142,7.6453 1.732253,8.29722 0.350414,1.36705 1.255263,4.12991 1.449811,4.42681 0.30644,0.46769 1.392396,0.69197 1.72757,0.35679 z m 15.654734,-3.38848 c 0.623465,-0.24043 0.685456,-0.28502 0.682731,-0.49112 -0.0063,-0.49478 -0.246327,-1.29241 -0.691859,-2.30098 -0.257148,-0.58207 -0.550704,-1.30185 -0.652383,-1.59951 -0.101653,-0.29765 -0.245957,-0.65935 -0.320648,-0.80378 -0.124831,-0.24139 -0.141129,-0.24897 -0.202116,-0.0938 -0.03651,0.0928 -0.247835,1.3639 -0.469662,2.82458 -0.37121,2.44433 -0.392191,2.66392 -0.263366,2.75812 0.211588,0.15472 1.112732,0.0168 1.917303,-0.29351 z m 4.478206,-1.06558 c 1.109186,-0.41228 1.897724,-0.83401 2.060257,-1.10187 0.130731,-0.21547 0.121894,-0.24132 -0.325702,-0.95222 -0.782902,-1.24351 -0.994754,-1.66643 -2.168763,-4.32903 -1.07651,-2.44157 -1.557602,-3.48366 -2.453852,-5.31552 l -0.384492,-0.78592 -0.263393,0.38283 c -0.539909,0.7847 -0.782082,1.89524 -0.67474,3.09398 0.03963,0.44238 0.09234,1.05197 0.117157,1.35465 0.190818,2.32671 0.210159,2.42131 0.822352,4.02161 0.320648,0.83819 0.638757,1.7621 0.70694,2.05314 0.156607,0.66857 0.560281,1.47456 0.854339,1.70587 0.327158,0.25733 0.761656,0.22493 1.709897,-0.12752 z m 6.282928,-3.8161 c -0.238707,-1.33999 -0.441167,-2.44 -0.449924,-2.44448 -1.123183,-0.57262 -2.671948,-1.64768 -3.400637,-2.3605 -0.951309,-0.93057 -2.847525,-3.90124 -3.435376,-5.38193 -0.415317,-1.04605 -0.926836,-2.84528 -0.92636,-3.25841 0,-0.48035 0.130837,-1.02605 0.264769,-1.10883 0.176345,-0.10897 0.328771,0.19918 0.903843,1.82727 0.774171,2.19175 1.258358,3.39268 1.589696,3.9429 0.666856,1.10742 1.911826,2.3991 3.294803,3.41841 0.933398,0.68796 1.229599,0.87751 1.28487,0.82224 0.05509,-0.0551 -0.01693,-0.49646 -0.773456,-4.74653 l -0.631614,-3.54788 -0.320886,-0.26111 c -0.782611,-0.63678 -1.137021,-1.03979 -1.556147,-1.76962 -1.035976,-1.80387 -2.131087,-3.66282 -2.285683,-3.87991 -0.09935,-0.13951 -0.354092,-0.30344 -0.634762,-0.40845 -0.507179,-0.18976 -3.174709,-0.78801 -3.236806,-0.72592 -0.126471,0.12648 0.225372,3.09263 0.708236,5.97055 0.507418,3.02419 0.57531,3.33301 0.940065,4.27561 0.68871,1.77976 1.630018,3.93039 2.356115,5.3831 1.123685,2.24823 1.383453,2.61032 2.761773,3.84974 1.899973,1.70851 3.903504,3.21148 3.95486,2.9668 0.01455,-0.0697 -0.168699,-1.22306 -0.407379,-2.56305 z m -32.771609,-4.98116 c -0.960041,-5.01621 -1.174036,-6.27674 -1.43727,-8.46538 -0.1456,-1.21071 -0.411401,-2.90614 -0.590656,-3.76761 -0.229896,-1.10478 -0.356129,-1.99043 -0.428387,-3.00563 -0.09771,-1.37294 -0.117739,-1.47581 -0.434234,-2.23095 -0.2658,-0.63415 -0.574146,-1.83814 -0.574781,-2.24433 -7.9e-5,-0.0704 -0.113479,-0.0526 -0.783272,0.12296 -0.311468,0.0816 -0.3175,0.091 -0.3175,0.4913 0,0.22443 0.152559,1.31832 0.339011,2.43087 0.186451,1.11255 0.433202,2.88005 0.548349,3.92779 0.115146,1.04773 0.416506,3.7147 0.669713,5.92658 0.253206,2.21189 0.525833,4.6312 0.605843,5.37626 0.141049,1.31363 0.153908,1.3649 0.424497,1.69331 0.694029,0.8423 2.370693,2.47834 2.454275,2.39478 0.01455,-0.0146 -0.199443,-1.20706 -0.475588,-2.64995 z m -10.613179,-3.52537 c 0.408782,-0.81171 1.341729,-3.10951 1.197901,-2.95037 -0.06313,0.0699 -0.319881,0.36952 -0.5706,0.66593 -0.250693,0.29641 -0.648256,0.68255 -0.88347,0.85808 -0.235215,0.17553 -0.569198,0.44735 -0.742156,0.60405 -0.300911,0.27258 -0.316945,0.3149 -0.370285,0.97779 l -0.05575,0.69289 0.412538,0.12029 0.412538,0.12029 0.148035,-0.2434 c 0.08141,-0.13388 0.28448,-0.51437 0.451246,-0.84555 z m 40.622776,-10.40093 c -0.438944,-2.58441 -0.821505,-4.87962 -0.850159,-5.10045 -0.02866,-0.22084 -0.09475,-0.43692 -0.146871,-0.48017 -0.05212,-0.0433 -0.532606,-0.11996 -1.067752,-0.17045 -2.005621,-0.18924 -2.127568,-0.24181 -2.294837,-0.98927 -0.116337,-0.51985 -0.01905,-1.00475 0.250243,-1.24855 0.13716,-0.12413 0.14687,-0.19645 0.07509,-0.55944 -0.109168,-0.55215 -0.02249,-0.96145 0.275801,-1.30109 0.164677,-0.18756 0.242147,-0.36486 0.237093,-0.54261 -0.02064,-0.72348 0.451723,-1.07315 1.63113,-1.20766 0.386451,-0.0441 0.740384,-0.11789 0.786527,-0.16404 0.100542,-0.10055 0.06149,-0.11508 -0.800735,-0.29787 -0.382508,-0.0811 -0.808937,-0.24085 -1.04865,-0.39287 -0.222197,-0.14092 -0.431932,-0.2252 -0.466063,-0.18729 -0.03416,0.0379 -0.142505,0.31216 -0.240797,0.60943 -0.179335,0.54247 -0.819124,1.48782 -1.39999,2.0687 -0.507101,0.5071 -0.81034,1.00047 -0.993299,1.61608 -0.412459,1.38784 -0.791051,1.68828 -1.768687,1.40348 -0.282919,-0.0824 -0.308663,-0.0712 -0.592111,0.25808 -0.265774,0.30875 -0.346233,0.34937 -0.780494,0.39406 -0.321072,0.033 -0.533374,0.10419 -0.630238,0.21122 -0.13917,0.15378 -0.137451,0.16365 0.0367,0.20919 0.452358,0.11829 1.981385,0.79176 2.54209,1.11968 1.217798,0.71218 1.621499,1.27552 1.692725,2.362 0.02223,0.33868 0.07705,0.63845 0.121867,0.66615 0.04482,0.0277 0.359516,0.11984 0.699373,0.20477 0.339831,0.0849 0.864341,0.26615 1.165543,0.40272 0.523002,0.23714 0.56933,0.28336 1.029017,1.02652 0.264769,0.428 0.920406,1.54719 1.457008,2.48707 0.728107,1.27538 1.076113,1.79902 1.371785,2.06418 0.217911,0.19541 0.421058,0.32876 0.451459,0.29633 0.0304,-0.0324 -0.303848,-2.17349 -0.742765,-4.7579 z m 2.139844,0.48683 c -0.0299,-0.38417 -0.05458,-1.11142 -0.05487,-1.61609 v -0.9176 l -0.467227,-0.47939 c -0.256964,-0.26365 -0.44958,-0.42223 -0.428043,-0.35238 0.02143,0.0699 0.196744,0.96519 0.389334,1.98964 0.404204,2.15008 0.385339,2.07431 0.515832,2.07431 0.07305,0 0.08528,-0.18765 0.04551,-0.69849 z m -8.521938,-2.77372 c 0,-0.60217 -0.285697,-1.05153 -0.948902,-1.49242 -0.644313,-0.42833 -2.063194,-1.09976 -2.49809,-1.18211 -0.199205,-0.0377 -0.357875,3e-5 -0.59264,0.14105 -0.301916,0.18132 -0.691859,0.56321 -0.698579,0.68416 -0.004,0.0716 0.979037,0.6755 2.198264,1.35037 0.912812,0.50527 1.769507,0.81387 2.30714,0.83108 0.216535,0.007 0.232807,-0.0163 0.232807,-0.33213 z m -34.204857,-3.0927 c 0,-0.41696 -0.132874,-0.5916 -0.513741,-0.67526 -0.295381,-0.0649 -0.810208,0.0101 -0.883471,0.12864 -0.06633,0.10734 0.235612,0.67779 0.47887,0.90469 0.109326,0.10198 0.294005,0.22284 0.410395,0.26858 0.298053,0.11714 0.507947,-0.1418 0.507947,-0.62665 z m 2.632975,0.34391 c 0.403569,-0.0904 0.814916,-0.28225 1.48164,-0.6911 0.507656,-0.3113 1.151572,-0.65631 1.430972,-0.76668 0.952791,-0.37641 0.89199,-0.33117 0.79846,-0.59398 -0.124698,-0.3504 -0.648362,-0.68993 -0.986234,-0.63943 -0.149834,0.0224 -0.316416,0.0937 -0.370179,0.15852 -0.05376,0.0648 -0.135043,0.11778 -0.180631,0.11778 -0.04556,0 -0.349541,0.24692 -0.675508,0.54872 -0.357161,0.33067 -0.715407,0.5828 -0.901594,0.63451 -0.42672,0.11853 -1.441318,0.10169 -1.74789,-0.029 -0.237385,-0.1012 -0.278316,-0.0888 -0.63926,0.19432 l -0.385657,0.30244 0.0042,0.5529 0.0042,0.55289 0.804333,-0.10838 c 0.442357,-0.0596 1.055714,-0.16469 1.362975,-0.2335 z m 26.869363,-1.18539 0.463074,-0.7178 -0.21889,-0.4219 c -0.12454,-0.24001 -0.195554,-0.48273 -0.16473,-0.56301 0.0812,-0.21165 0.541682,-0.10531 1.105403,0.2553 0.260138,0.16642 0.505777,0.30258 0.545835,0.30258 0.04003,0 0.213202,-0.17134 0.38481,-0.38076 0.375603,-0.45836 0.594016,-0.52624 1.118394,-0.34756 0.218996,0.0746 0.428361,0.13566 0.465296,0.13566 0.03694,0 0.149252,-0.27622 0.249635,-0.61382 0.238813,-0.80337 0.564356,-1.37022 1.171839,-2.04056 1.151388,-1.2705 1.455526,-1.83677 1.277012,-2.37763 -0.111178,-0.33693 -0.50038,-0.52846 -2.784951,-1.37054 -1.663039,-0.61299 -1.374167,-0.62155 -2.576989,0.0763 -0.685536,0.39772 -1.28397,0.53654 -2.51378,0.58314 -1.177766,0.0446 -1.11633,0.07 -2.069015,-0.85564 -0.885137,-0.86006 -1.166866,-1.02312 -1.479047,-0.85604 -0.245613,0.13145 -0.223441,0.23111 0.120279,0.54064 0.779542,0.70197 0.97245,0.9255 1.064842,1.23388 0.130837,0.43672 0.05088,0.69011 -0.283474,0.89822 -0.242914,0.15119 -0.280512,0.22622 -0.326337,0.65101 -0.04392,0.40734 -0.106125,0.54188 -0.41029,0.88742 l -0.35851,0.40729 0.03093,1.016 0.03093,1.016 0.55417,0.84666 c 0.562716,0.85969 1.183084,1.49898 1.806919,1.86203 0.318664,0.18544 1.411579,0.45001 2.228242,0.5394 0.05794,0.006 0.313716,-0.31148 0.568403,-0.70627 z m -25.812803,-0.92157 0.499639,-0.45407 -0.286993,-0.24147 c -0.157824,-0.13281 -0.415766,-0.44283 -0.573193,-0.68892 -0.321945,-0.50329 -0.48821,-0.55279 -0.937181,-0.27904 -0.247809,0.15108 -0.275167,0.20746 -0.275167,0.56686 0,0.36947 -0.03141,0.42858 -0.423333,0.79653 -0.232833,0.21859 -0.423307,0.41934 -0.423307,0.44611 0,0.16565 0.532183,0.30159 1.192768,0.30467 l 0.727102,0.003 0.499665,-0.45406 z m 4.438359,-0.18748 c 0.866457,-0.22074 0.900403,-0.23854 1.339215,-0.70262 0.720778,-0.76224 0.787479,-1.00383 0.464926,-1.68359 -0.164703,-0.34708 -0.413914,-0.5282 -0.726784,-0.5282 -0.203835,0 -1.410097,0.23967 -1.419066,0.28195 -0.0026,0.008 -0.0254,0.24298 -0.05305,0.52237 -0.05252,0.53393 -0.255773,1.02434 -0.590471,1.42465 -0.256751,0.3071 -0.295936,1.02813 -0.05191,0.95582 0.08147,-0.0242 0.54819,-0.14582 1.03714,-0.27038 z m -0.994701,-1.5838 c 0.08144,-0.1762 0.148034,-0.47147 0.148034,-0.65616 v -0.33578 l -0.486806,0.003 c -0.666089,0.004 -1.732571,0.20352 -1.990064,0.37222 -0.116655,0.0764 -0.336735,0.37281 -0.489056,0.65859 l -0.276939,0.5196 0.245613,0.19916 c 0.160231,0.1299 0.304509,0.18097 0.414972,0.14687 1.004676,-0.31016 0.989409,-0.3096 1.348343,-0.0496 l 0.334195,0.2421 0.301837,-0.38979 c 0.166026,-0.21439 0.368459,-0.53396 0.449871,-0.71017 z m 5.874014,41.7853 c -0.0254,-0.17462 -0.09155,-0.92134 -0.147028,-1.65937 -0.113692,-1.51286 -0.159703,-1.38154 0.5824,-1.66289 0.851773,-0.32294 1.93847,-0.39973 2.791328,-0.19725 0.25318,0.0601 0.330676,0.38171 0.445214,1.84737 0.05093,0.65192 0.114777,1.36628 0.14187,1.58747 l 0.04926,0.40217 h -1.908439 -1.90844 z m 4.998853,-0.0847 c -0.02723,-0.22119 -0.07535,-1.01719 -0.106945,-1.7689 -0.05728,-1.36293 -0.05691,-1.36704 0.135467,-1.46999 0.253153,-0.13548 0.82931,-0.0552 1.020048,0.14221 0.09657,0.1 0.271674,0.7172 0.495565,1.74707 0.19042,0.87589 0.346207,1.62835 0.346207,1.67215 0,0.0448 -0.402035,0.0796 -0.920406,0.0796 H 66.22131 Z m 3.16529,0.0847 c -0.04741,-0.17462 -0.253471,-0.91837 -0.457915,-1.65277 -0.204443,-0.73441 -0.348112,-1.34979 -0.31922,-1.36753 0.110041,-0.0676 1.841434,-0.38722 1.879561,-0.34912 0.02196,0.022 0.02254,0.84777 0.05171,1.85521 l 0.05302,1.83171 h -0.560467 -0.560467 z m 2.937166,-0.71966 c -0.03479,-1.70438 0.01667,-2.71093 0.149066,-2.91297 0.08975,-0.13703 0.336629,-0.2347 0.990626,-0.39191 0.479108,-0.11516 0.882836,-0.19909 0.897176,-0.18651 0.130466,0.11444 1.032245,3.88689 1.032245,4.31823 v 0.21032 h -1.523973 -1.523974 z m 4.188751,0.254 c -0.21762,-0.95324 -0.756444,-3.80426 -0.795232,-4.20774 -0.0254,-0.26352 0.005,-0.31081 0.310594,-0.48544 0.381794,-0.21811 0.737632,-0.25163 0.877835,-0.0827 0.05186,0.0625 0.154728,0.43394 0.228653,0.82549 0.0739,0.39155 0.432012,1.61678 0.795787,2.72272 l 0.661406,2.01081 h -0.950146 -0.950118 z m 12.186975,-49.974 -0.63944,-1.37064 0.02133,-1.04214 c -0.08633,-1.25199 -0.187563,-2.11089 -0.548772,-4.6566 -0.161872,-1.14087 -0.367401,-2.92913 -0.456751,-3.97391 -0.199284,-2.33078 -0.237595,-2.39896 -1.196631,-2.13045 -0.377481,0.10569 -0.540914,0.12196 -0.591899,0.49401 -0.029,0.2116 -0.05546,1.09377 -0.05876,1.96038 l -0.0061,1.57567 -0.501492,-1.73565 c -0.275828,-0.9546 -0.558588,-1.90352 -0.628359,-2.10872 -0.06974,-0.20519 -0.09575,-0.41473 -0.05779,-0.46566 0.038,-0.0509 0.074,-0.18586 0.08006,-0.29987 0.0164,-0.30873 0.426429,-0.61642 0.849525,-0.82524 0.352636,-0.17405 0.42111,-0.17982 1.076695,-0.0906 l 0.700114,0.0952 0.464026,0.48651 c 0.355203,0.37238 0.464053,0.54727 0.464053,0.74558 0,0.14249 0.19177,1.77407 0.426138,3.62573 0.234368,1.85166 0.555783,4.39535 0.714269,5.65263 0.327316,2.59683 0.171259,2.61082 0.389144,4.27561 0.0884,0.6752 0.155472,1.23578 0.147825,1.24193 -0.28212,-0.57012 -0.428863,-0.98182 -0.6472,-1.45378 z"
       id="path974-6"
       inkscape:connector-curvature="0"
       sodipodi:nodetypes="ccccccccscccsccsccscccccccccccccccccccccccscccccsccssccccccccccccsssccscssscccccccccccccsccccssscccccccccccscccccccccccccssscscccscccscccccccccccccccccccccccccccccsccccccccsccccccccccsccscccsccsccccsccccccscccccccccccccccscccccssccscccccccccscccssccccssccccscccccccccscccccccccccccccscccccccccccccccccsccccccssccccsccccccscccccccsccccccccccccccccccsccccccccccccccccccccccccccscccccccccccscccccccccccccccccccccccccccccccccsssscccccccscccccccccscccccccccccccccccccccccccccscccccccsccsccccccssccccscccccsscccccccccccccccsccscccccccccccccccccccccccccscscccccccsccccccscccccccccccccccccccccccccccsscccscccccccccccscccccccccccccccccccccccccccccccsscccc" />
    <path
       style="fill:#ffffff;fill-opacity:1;stroke-width:0.08466666"
       d="m 56.766372,213.48435 -0.6164,-0.42333 0.04979,-0.93134 c 0.02738,-0.51223 0.07337,-1.26471 0.102208,-1.67216 0.04985,-0.70499 0.04408,-0.74084 -0.119274,-0.74084 -0.09443,0 -0.315066,-0.0599 -0.490352,-0.13314 -0.26424,-0.11042 -0.337767,-0.11403 -0.430556,-0.0212 -0.06154,0.0616 -0.1905,0.60728 -0.286571,1.21265 -0.272309,1.71616 -0.19976,1.5514 -0.661379,1.50184 -0.21881,-0.0235 -0.403701,-0.0472 -0.410897,-0.0526 -0.0071,-0.005 -0.08012,-0.7338 -0.162084,-1.61857 -0.08199,-0.88476 -0.177377,-1.64136 -0.211984,-1.6813 -0.09536,-0.11004 -0.621321,0.0933 -0.838015,0.32396 l -0.191717,0.20407 0.142478,1.40125 c 0.07837,0.7707 0.118692,1.43976 0.08959,1.48681 -0.02908,0.047 -0.17444,0.0851 -0.32303,0.0847 -0.269293,-8e-4 -0.795311,-0.3427 -1.536488,-0.99841 l -0.316072,-0.27963 0.148167,-0.60457 c 0.158274,-0.64589 0.524854,-1.41952 0.8264,-1.74407 0.08882,-0.0956 0.289771,-0.25024 0.473577,-0.36676 0.307182,-0.15753 0.645232,-0.38624 0.955985,-0.42751 0.213307,-0.0294 0.413022,0.0473 0.71978,0.25801 0.226404,0.15548 0.73591,0.4178 1.125085,0.54721 0.607299,0.20194 0.818333,0.24794 1.55988,0.23609 l 0.863971,-0.0138 0.706093,0.39707 0.706067,0.39708 0.812695,-0.18354 c 0.51943,-0.11731 1.484365,-0.22764 2.674037,-0.30577 1.753368,-0.11514 2.003187,-0.11194 4.306967,0.0552 l 2.44565,0.17742 0.984673,-0.26843 c 0.541602,-0.14764 1.38475,-0.32101 1.8737,-0.38527 0.497232,-0.0653 1.448647,-0.28658 2.159,-0.50203 1.16541,-0.35347 1.342946,-0.43502 2.155904,-0.99028 0.764302,-0.52201 0.915194,-0.59479 1.099106,-0.53012 0.32602,0.11466 0.563748,0.70068 1.617795,3.98784 l 0.956998,2.9845 c 5.272458,-0.21017 10.590503,0.26661 15.849864,0 0.659474,0 1.044205,-0.0309 1.012984,-0.0815 -0.0277,-0.0448 -0.0087,-0.49248 0.04231,-0.99483 l 0.09266,-0.91337 -0.547343,-1.94733 c -0.312659,-1.11244 -0.805577,-3.21782 -1.149694,-4.91067 -0.408279,-2.00841 -0.666168,-3.08611 -0.800259,-3.34433 -0.319326,-0.61487 -0.438124,-1.35699 -0.30562,-1.90932 0.06088,-0.25375 0.12827,-0.46135 0.14978,-0.46135 0.02143,0 0.51525,0.29212 1.097201,0.64915 l 1.058095,0.64915 -0.04085,0.68435 c -0.03865,0.64773 -0.01217,0.78336 0.494507,2.53447 0.396742,1.37114 0.666961,2.56578 1.043728,4.61434 0.279612,1.52031 0.653971,3.35476 0.831876,4.07654 l 0.323506,1.46943 0.81579,0.0242 c -16.760737,0.90671 -24.839451,0.70815 -31.772722,1.15456 -3.66753,0.23614 -7.014549,-0.0463 -11.156585,-1.67447 z m 2.223876,0.1905 c 0.05196,-0.2487 0.389123,-3.19385 0.3878,-3.38739 0,-0.12533 -0.02662,-0.1329 -0.162825,-0.0478 -0.125836,0.0786 -0.243496,0.0775 -0.529167,-0.005 -0.202062,-0.0581 -0.428492,-0.12316 -0.503211,-0.14445 -0.11176,-0.0319 -0.145335,0.0633 -0.189336,0.53671 -0.02942,0.31649 -0.168301,1.1424 -0.308662,1.83534 -0.140335,0.69293 -0.255165,1.29204 -0.255165,1.33135 0,0.0393 0.34216,0.0715 0.760386,0.0715 0.720302,0 0.762477,-0.0101 0.80018,-0.1905 z m 5.93209,-0.0423 c -0.02117,-0.12806 -0.09893,-0.91634 -0.172825,-1.75173 -0.07393,-0.83539 -0.168619,-1.58284 -0.21045,-1.66098 -0.228256,-0.4265 -2.354342,-0.30792 -3.320997,0.18523 l -0.32811,0.16739 0.04874,0.43996 c 0.06649,0.60033 0.214366,2.42786 0.215451,2.66246 v 0.1905 h 1.902883 1.902883 z m 3.090678,0.1966 c 0,-0.0199 -0.172059,-0.79145 -0.382323,-1.7145 -0.257704,-1.13118 -0.428572,-1.71277 -0.524193,-1.7841 -0.191426,-0.14283 -0.910087,-0.13638 -1.030949,0.009 -0.06998,0.0843 -0.07295,0.48603 -0.01111,1.50283 0.04643,0.76325 0.08475,1.53061 0.08517,1.70524 v 0.3175 h 0.931334 c 0.512233,0 0.931333,-0.0163 0.931333,-0.0362 z m 2.370666,-1.82644 c 0,-1.02446 -0.01138,-1.86266 -0.02513,-1.86266 -0.08131,0 -1.585198,0.34462 -1.705716,0.39086 -0.08194,0.0314 -0.128878,0.11543 -0.107474,0.19231 0.0209,0.0751 0.221774,0.81277 0.446432,1.63933 l 0.408464,1.50283 h 0.491701 0.491728 z m 8.021162,1.75684 c -0.283369,-0.74452 -1.293495,-4.07997 -1.390994,-4.59317 -0.153564,-0.80818 -0.231034,-0.97367 -0.455851,-0.97367 -0.230981,0 -0.837565,0.31765 -0.895667,0.46903 -0.02593,0.0675 0.01746,0.47534 0.09623,0.90634 0.251116,1.37326 0.71329,3.65123 0.807428,3.9798 l 0.09099,0.3175 h 0.89408 c 0.680296,0 0.884449,-0.0253 0.853784,-0.10583 z m -3.137218,-0.16934 c -0.02487,-0.10477 -0.10795,-0.5334 -0.184758,-0.9525 -0.129646,-0.70726 -0.773907,-3.1726 -0.848625,-3.24732 -0.01826,-0.0182 -0.387218,0.0516 -0.820023,0.15515 -1.206844,0.28877 -1.167871,0.20803 -1.167871,2.41957 v 1.8156 h 1.533181 1.533181 z m -20.928488,6.2135 c -0.43315,-0.19678 -1.844464,-1.06197 -2.285789,-1.40127 -0.186266,-0.14321 -1.214966,-1.11102 -2.286,-2.15067 -1.714976,-1.66473 -2.149395,-2.0349 -3.640666,-3.10224 -3.62675,-2.59573 -5.805408,-4.73401 -7.396268,-7.25913 -1.170808,-1.85844 -2.225226,-4.15558 -3.062711,-6.67239 -0.759381,-2.28205 -0.860028,-2.95574 -0.670878,-4.48955 0.220716,-1.78961 1.208696,-5.12327 2.019247,-6.81345 0.738135,-1.53915 3.61868,-5.61832 5.05751,-7.162 0.979541,-1.05093 2.725844,-2.72071 3.727609,-3.56429 0.723794,-0.60951 1.228858,-0.83128 1.535351,-0.67416 0.337211,0.17288 0.905219,0.17506 2.063194,0.008 1.361123,-0.19647 1.324848,-0.20659 1.520746,0.42429 0.145441,0.46837 0.195977,2.88311 0.07136,3.41067 -0.188992,0.80026 -1.340088,4.53813 -1.485477,4.82373 -0.227277,0.44647 -0.857594,1.32144 -1.375992,1.9101 -0.607933,0.69033 -1.566386,1.5284 -2.808023,2.45532 -1.738736,1.29801 -2.529866,2.24179 -2.993998,3.57169 -0.234448,0.67177 -0.255059,0.82915 -0.288766,2.20507 -0.03964,1.61702 0.01217,2.14643 0.543507,5.54567 0.3411,2.18249 0.46937,2.57859 1.439386,4.445 0.89363,1.71947 1.204701,2.06592 4.550066,5.06798 2.23901,2.00922 2.859378,2.51086 3.325098,2.68873 0.327131,0.12493 0.384064,0.013 1.13429,-0.11485 0.451167,-0.0769 0.992404,-0.003 1.164886,0.0269 0.631606,0.0543 1.519767,0.56297 2.216864,1.16702 0.942446,0.71544 2.54,2.33912 2.54,2.58155 0,0.10076 -0.05366,0.18198 -0.120226,0.18198 -0.06612,0 -0.506968,-0.28918 -0.97962,-0.64261 -2.178976,-1.62933 -2.829957,-1.96768 -3.037972,-1.57899 -0.213492,0.39889 0.06331,0.72828 1.778846,2.11689 0.802931,0.64991 2.020306,1.78967 2.020306,1.89151 0,0.15646 -0.308875,0.0661 -0.790893,-0.23145 -0.273844,-0.16903 -1.17938,-0.77863 -2.012315,-1.35467 -0.832934,-0.57604 -1.583081,-1.04734 -1.667007,-1.04734 -0.20312,0 -0.355785,0.16268 -0.355785,0.37909 0,0.20413 0.541629,0.70002 2.053325,1.87991 1.388904,1.08404 1.522836,1.213 1.406102,1.35369 -0.173144,0.20861 -0.392695,0.11541 -1.356492,-0.57588 -2.838,-2.0356 -3.377671,-2.30753 -3.443103,-1.73488 -0.03199,0.28001 0.355257,0.73422 1.001501,1.17472 0.610182,0.41593 1.504183,1.15959 1.55583,1.29422 0.06665,0.17365 -0.245057,0.15782 -0.667041,-0.0339 z m 0.804015,-11.50577 c -1.099872,-0.39183 -2.01287,-0.98448 -2.549551,-1.65499 -0.365072,-0.45614 -0.431218,-0.62033 -0.920644,-2.286 -0.768588,-2.61566 -0.809705,-2.72861 -2.068354,-5.68188 l -1.151546,-2.70198 0.219763,-1.36202 c 0.243999,-1.51221 0.890005,-3.62796 1.442641,-4.72487 0.375232,-0.74476 0.369199,-0.72502 0.834443,-2.73316 0.204999,-0.88476 0.434763,-2.14206 0.510619,-2.794 0.07583,-0.65193 0.194231,-1.58538 0.263075,-2.07433 0.345308,-2.45207 0.388197,-2.94401 0.344064,-3.94659 l -0.04516,-1.02559 0.311758,-0.2979 c 0.389573,-0.37226 0.611241,-0.48725 0.939245,-0.48725 0.174969,0 0.29628,0.0611 0.378169,0.1905 0.120279,0.19005 0.256196,1.20277 0.355097,2.64583 0.02873,0.4191 0.200025,1.71998 0.380656,2.89084 0.333984,2.1647 0.927021,7.36882 1.093708,9.59749 0.126206,1.68735 0.792797,9.60576 1.133263,13.462 0.154173,1.74625 0.268182,3.19004 0.253339,3.20842 -0.01482,0.0184 -0.208809,0.0467 -0.431033,0.0629 -0.304959,0.0222 -0.622115,-0.0482 -1.293548,-0.28741 z m 9.011656,-0.27276 c -0.827326,-0.18728 -1.027642,-0.55301 -1.897036,-3.46342 -0.566103,-1.8951 -0.572532,-1.92435 -2.209562,-10.07622 -0.789226,-3.93004 -1.489737,-7.35904 -1.556676,-7.62001 -0.211746,-0.82533 -0.531125,-3.73072 -0.81071,-7.37482 -0.115676,-1.50776 -0.135917,-1.58702 -0.808514,-3.16828 -0.696595,-1.6376 -0.699823,-1.84761 -0.03265,-2.11456 l 0.34626,-0.13855 0.502814,0.43735 c 0.32295,0.28089 0.735012,0.78872 1.151863,1.41953 0.356976,0.5402 0.744406,1.12682 0.860955,1.3036 0.522472,0.79243 2.467715,2.41544 4.078128,3.40259 1.541807,0.9451 2.657528,1.84934 4.445,3.6025 0.605367,0.59375 1.183879,1.12175 1.285611,1.17334 0.280564,0.14233 0.917548,0.11764 1.048914,-0.0407 0.175181,-0.21108 0.116761,-0.6743 -0.140388,-1.1131 -0.544856,-0.92972 -2.743094,-2.86779 -4.845764,-4.27223 -2.744497,-1.83314 -4.258522,-3.01917 -4.8328,-3.78582 -0.229897,-0.30692 -0.864182,-1.04645 -1.409488,-1.64339 l -0.991474,-1.08535 0.480616,-0.46551 c 0.264319,-0.25603 0.526389,-0.45039 0.582348,-0.43191 0.05596,0.0185 0.164439,0.39213 0.241035,0.83033 0.130572,0.74686 0.159624,0.81431 0.464344,1.07771 0.532474,0.46029 3.585766,1.92738 4.518713,2.17121 1.220999,0.31913 3.112876,0.57042 4.402667,0.5848 0.97655,0.0109 1.428961,-0.0355 3.106578,-0.31851 l 1.963579,-0.33125 1.24034,0.26781 c 1.18663,0.25622 1.290479,0.29599 2.396781,0.91799 2.000753,1.1249 2.638055,1.54313 2.638055,1.73128 0,0.33919 0.513583,7.0062 0.633095,8.21868 0.115517,1.17181 0.113612,1.27083 -0.03286,1.69333 -0.188278,0.54303 -0.956363,2.3846 -1.2387,2.96984 -0.223467,0.46321 -0.379571,1.13152 -0.842645,3.60734 -0.469662,2.5109 -0.815578,3.85017 -1.846633,7.14949 l -0.947923,3.03326 -0.592666,0.36512 c -0.577268,0.35564 -1.819857,0.78392 -2.830354,0.97556 -0.518821,0.0984 -1.128977,-0.009 -1.709446,-0.30157 -0.740119,-0.37271 -0.871194,-0.62879 -1.636687,-3.19722 -0.95123,-3.19173 -2.060654,-7.43159 -2.456444,-9.38768 -0.252466,-1.24773 -0.28067,-1.3364 -0.425186,-1.3364 -0.09554,0 -0.191029,0.17665 -0.323082,0.59762 -0.02275,0.0726 -0.0071,0.4708 0.03495,0.88494 0.04196,0.41413 0.113057,1.74541 0.157956,2.95838 0.08816,2.38203 0.278686,3.87988 0.762741,5.99669 0.2041,0.89251 0.382138,1.3977 0.841746,2.3883 0.320595,0.69098 0.563642,1.30653 0.540094,1.36788 -0.04474,0.11657 -0.538798,0.28427 -0.830289,0.28183 -0.13544,-10e-4 -0.301678,-0.28162 -0.830369,-1.40106 -0.363564,-0.7698 -0.828569,-1.90242 -1.03333,-2.51694 -0.782955,-2.34961 -4.232381,-14.37308 -5.125482,-17.86555 -1.173929,-4.59069 -1.305242,-5.00876 -1.713812,-5.45559 -0.216217,-0.23645 -0.448548,-0.24437 -0.56896,-0.0194 -0.0699,0.13062 -0.05059,0.31719 0.08168,0.78857 0.0953,0.3396 0.173276,0.78762 0.173276,0.99559 0,0.99763 0.287813,2.61653 0.886698,4.9874 0.347001,1.37372 0.763085,3.08822 0.924613,3.81 0.34536,1.54311 1.834277,6.46449 4.208198,13.90954 0.368035,1.1542 0.669157,2.20935 0.669157,2.34479 0,0.49675 -0.54229,0.81812 -1.148873,0.68081 z m 14.591612,-3.23532 c -0.138404,-0.10486 -0.137663,-0.1654 0.01402,-1.12682 0.08811,-0.5588 0.280246,-1.79705 0.426931,-2.75166 0.146712,-0.95462 0.285062,-1.79104 0.307499,-1.85871 0.0571,-0.17233 0.333296,0.26242 0.50845,0.80037 0.0758,0.23284 0.39923,1.03849 0.718714,1.79035 0.460772,1.08431 0.592402,1.49096 0.636588,1.96638 l 0.05572,0.59937 -0.38907,0.16676 c -1.011449,0.43357 -2.012818,0.61547 -2.278803,0.41396 z m 4.842933,-1.1441 c -0.42545,-0.29323 -0.780838,-0.93903 -1.006581,-1.82909 -0.08493,-0.33492 -0.411506,-1.27571 -0.725752,-2.09063 l -0.571315,-1.48169 -0.204602,-2.20134 c -0.217937,-2.34461 -0.209127,-2.84199 0.06649,-3.7539 0.15322,-0.50696 0.630581,-1.36785 0.758693,-1.36826 0.08647,-2.6e-4 1.657006,3.31661 2.826199,5.96883 1.310191,2.97201 1.323367,2.99874 2.097432,4.25557 l 0.594492,0.96527 -0.165444,0.22592 c -0.21373,0.29183 -1.3784,0.88053 -2.377122,1.20153 -0.911358,0.29291 -1.011714,0.30129 -1.29249,0.10776 z m 7.742925,-1.68794 c -1.206552,-0.80592 -3.424581,-2.6548 -4.366921,-3.64011 -0.762952,-0.79774 -1.84359,-2.77041 -3.07811,-5.61897 -1.39946,-3.22922 -1.410864,-3.26773 -2.021046,-6.82435 -0.489611,-2.85384 -0.679926,-4.31686 -0.75057,-5.76986 -0.01799,-0.3684 0.0026,-0.44455 0.120544,-0.4445 0.316416,8e-5 2.858929,0.6002 3.274219,0.77278 0.431879,0.17948 0.465614,0.21902 1.104106,1.2937 0.362241,0.60971 1.010603,1.72596 1.440815,2.48056 0.734431,1.28817 0.824707,1.40806 1.477645,1.96239 l 0.695431,0.59041 0.738796,4.16773 c 0.406347,2.29225 0.721969,4.18456 0.701384,4.20513 -0.0993,0.0993 -1.838245,-1.16683 -2.61538,-1.90429 -1.894443,-1.79769 -2.312167,-2.51494 -3.609498,-6.19779 -0.801529,-2.27529 -0.828464,-2.32026 -1.02997,-1.71907 -0.218335,0.65138 -0.137663,1.31965 0.329591,2.7305 0.488633,1.47542 0.921861,2.40749 1.751198,3.76766 1.585648,2.60058 2.550742,3.58154 4.804092,4.88313 0.405871,0.23443 0.756232,0.48894 0.778563,0.56556 0.08684,0.29774 0.903605,5.02877 0.873416,5.05898 -0.01773,0.0176 -0.295857,-0.14421 -0.618305,-0.35959 z m 4.393433,-3.05175 c -1.196446,-1.19645 -1.54641,-2.03639 -2.18059,-5.23369 -0.503952,-2.54065 -0.581051,-3.82286 -0.691541,-11.49907 l -0.05339,-3.70974 -0.984753,-1.07657 c -0.541602,-0.59212 -1.359614,-1.50413 -1.817793,-2.02671 -0.458153,-0.52257 -0.915353,-0.96684 -1.016,-0.98726 -0.100621,-0.0204 -0.65921,-0.06 -1.241293,-0.088 -1.384908,-0.0665 -2.566643,-0.21459 -2.644537,-0.33141 -0.03421,-0.0513 -0.06278,-0.23711 -0.0635,-0.41289 0,-0.26446 0.03559,-0.33362 0.21254,-0.4009 0.117607,-0.0447 0.235982,-0.13902 0.263049,-0.20957 0.07538,-0.19639 1.643327,-0.17061 2.609162,0.0429 0.987293,0.21826 1.079129,0.21398 0.7942,-0.037 -0.260245,-0.22922 -0.780654,-0.33423 -2.35548,-0.47533 -0.58166,-0.0521 -1.07225,-0.10946 -1.090242,-0.12745 -0.07485,-0.0748 -0.14777,-0.69578 -0.09829,-0.83684 0.09588,-0.27328 0.644155,-0.38902 1.874705,-0.39573 1.126279,-0.006 1.164485,-2.5e-4 1.672167,0.25599 0.596424,0.30108 0.67273,0.24446 0.180419,-0.13391 -0.373459,-0.28703 -0.775149,-0.38572 -2.199507,-0.54037 -0.488209,-0.053 -0.916834,-0.11442 -0.9525,-0.13646 -0.111099,-0.0687 -0.07104,-0.42755 0.05985,-0.53617 0.156527,-0.12992 1.523523,-0.33919 2.220806,-0.33999 0.658627,-7.9e-4 0.93517,0.12313 1.0872,0.48702 0.09927,0.23759 0.157797,0.28143 0.345704,0.25902 0.416957,-0.0497 0.43733,-0.23767 0.124169,-1.1468 -0.438018,-1.27163 -0.371925,-1.21295 -1.343819,-1.19299 -0.994066,0.0204 -1.901719,-0.17996 -2.378022,-0.52498 -0.382111,-0.27681 -0.76454,-0.9726 -0.616108,-1.12102 0.125042,-0.12504 0.935513,-0.0825 1.620705,0.085 0.372242,0.091 0.981128,0.13756 1.881505,0.14383 l 1.331145,0.009 0.302048,0.29274 c 0.166106,0.161 0.446908,0.56002 0.623967,0.8867 0.177059,0.32668 0.878311,1.60362 1.558317,2.83763 1.301829,2.36243 2.483987,4.90553 2.762752,5.94336 0.09133,0.34007 0.210212,0.92098 0.264134,1.2909 0.05392,0.36992 0.401267,1.89392 0.771869,3.38667 0.707284,2.84878 0.938212,4.18562 1.254548,7.26297 0.225081,2.18928 0.216906,3.19665 -0.04146,5.12268 -0.241197,1.7979 -0.449953,3.17808 -0.703829,4.13764 -0.03965,0.14985 -0.0791,0.28945 -0.120666,0.41877 -0.175543,0.54624 -0.367294,0.90672 -0.591701,1.09215 -0.244223,-0.0115 -0.457541,-0.30919 -0.629933,-0.43443 z m -37.489527,-2.40838 c -0.444711,-0.42514 -1.038331,-1.03216 -1.319159,-1.34893 l -0.51062,-0.57595 -0.08345,-0.7889 c -0.681514,-6.44237 -1.509845,-13.37896 -1.865974,-15.62612 -0.23794,-1.50144 -0.41066,-2.81749 -0.383778,-2.92456 0.04001,-0.15939 0.14904,-0.21782 0.601636,-0.32243 0.637752,-0.14739 0.569595,-0.21969 0.725884,0.76988 0.05517,0.34925 0.245719,0.97895 0.423439,1.39934 0.308002,0.7285 0.329274,0.83965 0.453734,2.37066 0.0925,1.13796 0.216509,1.98898 0.425265,2.91867 0.174995,0.77917 0.416957,2.31775 0.595604,3.78709 0.268499,2.20856 0.685879,4.61673 1.735507,10.01357 0.197062,1.01322 0.204365,1.10067 0.09194,1.10067 -0.04479,0 -0.44532,-0.34784 -0.890032,-0.77299 z m -11.178169,-4.42337 -0.338667,-0.10264 0.0037,-0.70738 0.0037,-0.70737 0.493342,-0.43196 c 0.678233,-0.59386 1.662456,-1.55845 1.941777,-1.90309 0.127397,-0.15719 0.244739,-0.27149 0.260747,-0.254 0.01614,0.0175 -0.243708,0.6795 -0.577162,1.47113 -0.633969,1.50508 -1.225789,2.68223 -1.366124,2.71733 -0.04535,0.0113 -0.234844,-0.0256 -0.42111,-0.082 z M 90.67479,181.88309 c -0.07075,-0.11446 -0.819944,-4.11178 -0.778431,-4.15329 0.02064,-0.0206 0.22569,0.16714 0.455745,0.41722 l 0.485563,0.51458 0.0034,1.46409 c 0.03892,0.8382 0.07154,1.57798 0.0725,1.64395 0.0026,0.13781 -0.172535,0.22072 -0.238813,0.11345 z m -9.206733,-3.2336 c -0.455268,-0.10531 -0.972344,-0.32932 -1.778,-0.77027 -0.91104,-0.49863 -1.958155,-1.13197 -2.18821,-1.32352 -0.06874,-0.0572 0.460746,-0.55218 0.812694,-0.75972 l 0.353193,-0.20827 0.757317,0.28447 c 0.979064,0.36774 1.995513,0.94451 2.441971,1.38562 0.277601,0.27429 0.37428,0.44869 0.449448,0.81086 0.09906,0.47705 0.05837,0.75036 -0.10967,0.73702 -0.05323,-0.004 -0.385683,-0.0745 -0.738743,-0.15619 z m -34.006895,-2.75595 c -0.264557,-0.115 -0.784146,-0.79803 -0.784146,-1.03079 0,-0.26054 0.787717,-0.38311 1.213988,-0.18889 0.279241,0.12723 0.385762,0.81251 0.176027,1.1326 -0.1592,0.24295 -0.225399,0.25247 -0.605869,0.0871 z m 1.041188,-0.0593 c 0.03231,-0.1018 0.05477,-0.36101 0.04993,-0.57601 -0.0085,-0.37407 0.0095,-0.40452 0.413676,-0.70633 0.343138,-0.25618 0.453046,-0.29906 0.585205,-0.22832 0.08951,0.0479 0.536708,0.087 0.993775,0.0868 0.945013,-2.7e-4 1.087967,-0.0583 1.730852,-0.70115 0.445796,-0.4458 1.073652,-0.82402 1.360196,-0.81936 0.256831,0.004 0.806371,0.48755 0.874316,0.76905 0.05106,0.21147 0.02328,0.23291 -0.588566,0.45611 -0.353192,0.12882 -1.092332,0.50717 -1.642533,0.84079 -1.05963,0.64253 -1.262486,0.71063 -2.78646,0.93555 -1.099105,0.1622 -1.060688,0.16442 -0.990388,-0.0571 z m 17.478666,-0.5734 c -1.300586,-0.27813 -3.815848,-1.17665 -4.546574,-1.62415 -0.148987,-0.0912 -0.349012,-0.2923 -0.4445,-0.44679 -0.338111,-0.54708 -0.308186,-0.59253 1.32924,-2.0182 2.514283,-2.18913 3.003365,-2.73402 3.704405,-4.12704 0.401267,-0.79732 0.675825,-1.51342 0.973826,-2.54 l 0.233468,-0.80433 0.877914,-0.0531 c 1.143238,-0.0692 3.032363,-0.28294 3.249665,-0.22455 0.09374,0.0252 0.237384,0.16246 0.31922,0.30504 0.145574,0.25366 0.191368,0.4619 0.0016,0.63865 -0.245481,0.22858 -0.541999,0.7082 -0.612458,0.99061 -0.0427,0.17113 -0.02719,0.31504 0.245856,0.67733 0.190765,0.25302 0.370073,0.55118 0.398489,0.66258 0.07644,0.29985 -0.265218,1.80214 -0.536734,2.3601 -0.196638,0.404 -0.241273,0.62016 -0.266409,1.28969 -0.04839,1.29 0.0639,1.61472 1.079342,3.12107 0.523081,0.77598 0.841825,1.32532 0.795734,1.37143 -0.0966,0.0966 -1.820042,0.38626 -2.979843,0.50086 -1.349719,0.13336 -2.986934,0.0994 -3.822198,-0.0792 z m 9.894279,-0.25437 c -0.402273,-0.0849 -0.897573,-0.25174 -1.100667,-0.37088 -0.584041,-0.34257 -1.265767,-1.05075 -1.79533,-1.86498 -0.570098,-0.87654 -0.696172,-1.36323 -0.605049,-2.33559 0.05358,-0.57188 0.09009,-0.668 0.378036,-0.99511 0.267124,-0.30347 0.328137,-0.44535 0.376899,-0.87639 0.05292,-0.46761 0.08398,-0.5295 0.342107,-0.68181 0.346736,-0.20457 0.390207,-0.30595 0.30091,-0.70188 -0.09022,-0.39999 -0.420634,-0.82764 -0.887756,-1.14903 -0.582904,-0.40105 -0.595154,-0.8488 -0.02328,-0.8488 0.208677,0 0.404654,0.14641 1.069155,0.79875 0.44749,0.43931 0.920882,0.83936 1.051983,0.889 0.535358,0.20272 2.689173,0.0113 3.278479,-0.29136 0.161237,-0.0828 0.492548,-0.27759 0.73623,-0.43284 0.243681,-0.15525 0.52951,-0.30397 0.635185,-0.33049 0.206798,-0.0519 2.240783,0.65058 3.586453,1.23866 0.699638,0.30576 0.778378,0.36377 0.861537,0.63477 0.06525,0.21252 0.06548,0.3758 0,0.56804 -0.119327,0.3552 -0.69895,1.16578 -1.267593,1.77273 -0.558271,0.59588 -0.974301,1.26746 -1.122759,1.81243 -0.258233,0.94803 -0.266012,0.95434 -0.931069,0.75419 -0.507576,-0.15275 -0.703395,-0.082 -1.01428,0.36666 -0.132424,0.1911 -0.302286,0.34736 -0.377428,0.34724 -0.07517,-9e-5 -0.360971,-0.13547 -0.635106,-0.30077 -0.558985,-0.33706 -0.931413,-0.44399 -1.024096,-0.29403 -0.03379,0.0547 0.03778,0.29061 0.159067,0.52434 0.121259,0.23373 0.220478,0.45987 0.220478,0.50253 0,0.0426 -0.200025,0.38117 -0.4445,0.75227 -0.51488,0.78156 -0.505355,0.77881 -1.768581,0.51235 z m 6.692265,-5.7186 c 0.04628,-0.0463 0.109511,-0.24308 0.14052,-0.43726 0.05355,-0.33522 0.03622,-0.37464 -0.343456,-0.78053 -0.396319,-0.4237 -0.450479,-0.45207 -1.978104,-1.03642 -0.163645,-0.0626 -0.133218,7.9e-4 0.169333,0.35269 0.749618,0.8719 0.874501,1.13133 0.588354,1.22215 -0.240718,0.0764 -0.301704,0.35242 -0.134276,0.60793 0.135255,0.20641 0.171582,0.21478 0.807561,0.1859 0.36629,-0.0166 0.703819,-0.0681 0.750068,-0.11446 z m -33.033044,4.58943 c -0.318664,-0.12592 -0.292735,-0.24878 0.111734,-0.52906 0.401663,-0.27837 0.586766,-0.5921 0.586766,-0.99459 0,-0.31171 0.156739,-0.50268 0.528585,-0.64406 0.313134,-0.11905 0.405659,-0.0692 0.681725,0.36715 0.12991,0.20536 0.388382,0.51085 0.574357,0.67888 l 0.338164,0.30549 -0.485827,0.46311 -0.485855,0.4631 -0.808408,-0.009 c -0.444632,-0.005 -0.913183,-0.0504 -1.041241,-0.10101 z m 5.439833,-0.57625 c 0,-0.25291 0.06125,-0.42014 0.22479,-0.61383 0.366713,-0.43427 0.62013,-1.0652 0.621057,-1.54623 v -0.43335 l 0.492389,-0.13815 c 0.270775,-0.076 0.685932,-0.13816 0.922523,-0.13816 0.385127,0 0.457279,0.0308 0.68879,0.29452 0.276807,0.31528 0.403569,0.7569 0.316653,1.10319 -0.02947,0.11742 -0.29083,0.46202 -0.580813,0.76579 l -0.527236,0.55231 -0.963877,0.25076 c -0.530145,0.13792 -1.01592,0.25076 -1.079499,0.25076 -0.07895,0 -0.115623,-0.11026 -0.115623,-0.34761 z m -0.804333,-0.63398 c -0.212487,-0.17861 -0.313267,-0.20598 -0.616638,-0.16752 -0.199443,0.0253 -0.46273,0.0984 -0.585047,0.1625 -0.192563,0.10089 -0.254079,0.0984 -0.45847,-0.019 -0.230505,-0.13228 -0.482229,-0.51842 -0.337978,-0.51842 0.03993,0 0.123031,-0.12175 0.184652,-0.27057 0.234051,-0.56505 0.545783,-0.81033 1.204251,-0.94756 0.335069,-0.0698 0.885455,-0.15048 1.223063,-0.17921 l 0.613834,-0.0522 v 0.43183 c 0,0.27412 -0.06615,0.5615 -0.181134,0.78686 -0.177059,0.34707 -0.666115,0.99134 -0.7502,0.98832 -0.02328,-7.9e-4 -0.156633,-0.0976 -0.296333,-0.21501 z m 2.350135,-6.10924 c -0.849366,-3.21739 -1.555724,-7.21517 -1.896163,-10.7315 -0.133667,-1.38095 -0.13298,-4.5699 0,-5.41867 0.407935,-2.58015 1.491297,-5.56187 2.860939,-7.874 1.187715,-2.00504 2.968202,-4.12569 4.854205,-5.78163 2.389108,-2.09766 6.426068,-3.97262 9.782784,-4.54361 4.676166,-0.79544 8.924078,0.26719 12.769241,3.19425 0.725461,0.55225 2.324126,2.05273 2.255335,2.11681 -0.02328,0.0217 -1.694842,1.07652 -3.714565,2.34405 l -3.672231,2.30462 -0.561102,-0.25607 c -1.506353,-0.68743 -2.615063,-0.90149 -4.625102,-0.89297 -2.522432,0.0107 -4.280932,0.37284 -6.096027,1.25543 -1.349745,0.65632 -3.101763,2.00979 -3.871992,2.99122 -1.023302,1.30386 -1.647258,3.67438 -1.647258,5.67076 0,0.71005 -0.0061,0.73106 -0.31668,1.11342 -0.174202,0.21435 -0.476091,0.56117 -0.678048,0.77072 -1.089448,1.13045 -1.86527,2.87338 -2.105882,4.94029 -0.12872,1.1057 0.0011,5.90887 0.17961,7.84438 0.07091,0.76835 0.139356,1.5743 0.152056,1.7124 l 0.02302,0.25109 -1.556263,0.18855 c -0.792602,0.096 -1.517147,0.19074 -1.612238,0.19341 -0.152691,0.004 -0.214128,-0.21554 -0.52496,-1.39295 z m 27.156198,-0.87699 c -1.787578,-0.66057 -3.590316,-1.19937 -4.021667,-1.20199 -0.25609,-0.002 -0.972211,0.15356 -1.812554,0.39262 -0.76409,0.21735 -1.499394,0.39519 -1.63404,0.39519 -0.284639,0 -0.639445,-0.16701 -0.850662,-0.40041 -0.144622,-0.15981 -0.127291,-0.17017 0.719852,-0.43025 0.47744,-0.14657 0.981339,-0.29259 1.119743,-0.32449 0.13843,-0.0319 0.456829,-0.18157 0.707548,-0.33261 0.442463,-0.26653 0.450215,-0.27763 0.263499,-0.37755 -0.306335,-0.16395 -1.118632,-0.0462 -2.284492,0.3312 l -1.061773,0.3437 -0.413094,-0.20913 c -0.227171,-0.11502 -0.511386,-0.20971 -0.631534,-0.21042 -0.172164,-0.001 -0.191558,-0.0187 -0.09149,-0.0834 0.06985,-0.0451 0.327899,-0.0827 0.573458,-0.0834 0.633386,-0.002 2.452026,-0.54922 2.746613,-0.82668 0.214498,-0.20202 0.284771,-0.21626 1.058334,-0.21449 0.455718,10e-4 0.991341,0.0466 1.190254,0.10131 0.374306,0.10288 2.384663,1.27442 3.282527,1.91287 0.281331,0.20005 0.881406,0.56136 1.3335,0.80292 0.452094,0.24156 0.891559,0.40591 0.890844,0.43669 -0.0056,0.24328 -0.245843,0.28831 -1.084863,-0.0217 z m 3.894667,0.0456 c -1.099794,-0.16281 -3.20511,-1.02875 -4.487334,-1.90472 -0.442383,-0.30223 -1.356783,-0.87794 -2.032,-1.27936 -1.03542,-0.61556 -1.319291,-0.75718 -1.812766,-0.84141 -0.809413,-0.13815 -2.314548,-0.0532 -3.65543,0.20631 -3.561424,0.68928 -8.518975,1.05099 -9.243722,0.74521 -0.374782,-0.15812 -0.406056,-0.34485 -0.292523,-1.74611 0.05281,-0.65194 0.07429,-1.34178 0.0477,-1.53298 l -0.04829,-0.34765 2.866998,-0.0604 c 3.207597,-0.0676 3.486944,-0.10398 5.280025,-0.68796 1.4487,-0.47182 2.309495,-0.89039 3.217334,-1.56449 0.720301,-0.53485 2.794,-2.49706 2.794,-2.6438 0,-0.10804 -1.909657,0.9068 -3.386667,1.79977 -1.277673,0.77244 -1.85502,1.04799 -2.810907,1.34152 -1.364615,0.41904 -1.812475,0.46362 -5.170884,0.5147 l -3.198125,0.0486 -0.326734,-0.84667 c -1.407689,-3.64761 -1.789588,-6.5864 -1.116118,-8.58827 0.506412,-1.50532 1.201367,-2.57162 2.414773,-3.70513 1.933813,-1.80646 4.664048,-2.73493 8.042248,-2.73493 2.25433,0 4.144777,0.58198 5.631127,1.73359 0.710671,0.5506 0.923264,0.8112 1.183429,1.4506 0.556048,1.3665 1.786281,5.32133 2.962142,9.52243 0.860637,3.07483 1.608156,4.90729 3.276857,8.50238 0.475509,1.02446 0.917133,2.04364 1.005239,2.26483 l 0.1685,0.42697 -0.44229,0.006 c -0.220504,-0.006 -0.610474,-0.0413 -0.86659,-0.0793 z m 0.24085,-4.18343 c -0.06525,-0.15134 -0.314537,-0.72884 -0.553985,-1.28333 -0.596794,-1.38209 -1.313338,-3.12085 -1.732703,-4.48393 -0.836877,-1.31785 -0.685337,-2.52585 -0.429948,-4.50924 l 0.07643,-1.20824 0.328705,-0.20216 c 0.448389,-0.18848 0.955146,-0.21229 1.14472,-0.0109 0.133165,0.14147 0.246803,0.5948 0.368115,2.12877 0.07916,1.00119 0.238019,2.46804 0.353007,3.25967 0.465428,3.20437 0.810286,6.477 0.682519,6.477 -0.02865,0 -0.171635,-0.0163 -0.236855,-0.16768 z"
       id="path30-7-0-3-3"
       inkscape:connector-curvature="0"
       sodipodi:nodetypes="ccccscccccccccccccccccccccccccccccccccscccccccccsccccccccsccccccccssccccccccccccccccccccsccssccccccsccsccccscccccsccccccccccccccccccccscccccccccssccsscssssccccccccccccccccccccscccccccccscccccccccsscccccccccccccccccscccccccccccsccccsccscccccssccsccccccccccccccccccccccccccccscccscccccccscscccccccccccccccccccccsccscccccccccscccsccscccssccsccccccccccccsscccccccccccccccccccccccccccccscccccccccccccccccccccccccccccccccccccccccccccscccsccccccccccccsccccccccccccccsccccccccccccccscccccsccccccsccccsccccccccsscsccsccsccccccsccccccscccccccccccccccccccccccccccsccsccsccccsccccccccccccccccccsccc" />
    <path
       inkscape:connector-curvature="0"
       id="path16-3"
       d="m 80.970217,169.13907 c -0.09078,-0.19926 -0.07723,-0.24203 0.134303,-0.424 0.304985,-0.26233 0.25437,-0.42372 -0.348404,-1.11122 -0.25519,-0.29104 -0.440002,-0.52916 -0.410739,-0.52916 0.02929,0 0.405421,0.13594 0.835845,0.3021 0.642832,0.24815 0.854843,0.37817 1.187027,0.72803 0.370046,0.38972 0.400077,0.45223 0.353245,0.73507 -0.08914,0.5382 -0.05958,0.5208 -0.88384,0.5208 -0.744564,0 -0.769356,-0.006 -0.867437,-0.22162 z m -24.821674,-0.19282 c -0.168812,-0.18653 -0.363063,-0.78919 -0.766989,-2.37956 -1.416839,-5.5785 -2.196553,-11.80526 -1.91365,-15.28234 0.305462,-3.75434 1.945442,-7.99138 4.353412,-11.24744 1.212181,-1.63912 3.235645,-3.73824 4.572029,-4.74294 4.049289,-3.04434 9.413478,-4.73124 13.910839,-4.3746 3.680963,0.29189 6.718221,1.53141 9.747144,3.97782 1.089131,0.87968 2.643505,2.46499 2.643505,2.69612 0,0.0975 -0.08573,0.27082 -0.1905,0.38518 -0.104775,0.11435 -1.877906,1.26401 -3.940307,2.5548 l -3.749807,2.34688 0.515329,0.46632 c 0.555519,0.50273 0.776975,0.87524 1.239705,2.08545 0.401294,1.04951 1.676797,5.12502 2.268829,7.24941 1.341093,4.81219 1.838086,6.18527 3.58902,9.9156 0.902996,1.92383 1.368398,3.0882 1.368398,3.4236 0,0.0624 -0.08763,0.21522 -0.194707,0.33971 -0.352663,0.40999 -1.220629,0.43393 -2.853293,0.0787 -1.078494,-0.23466 -2.930842,-1.12206 -4.387188,-2.10179 -2.881842,-1.93868 -3.499618,-2.12997 -5.645812,-1.74813 -1.534186,0.27296 -3.361584,0.5773 -3.767667,0.62747 -0.20955,0.0259 -0.681857,0.0852 -1.049549,0.13179 -1.069366,0.13549 -3.922024,0.34508 -4.724426,0.34711 -0.907918,0.002 -1.554216,-0.25489 -1.852216,-0.73707 -0.179387,-0.29025 -0.182695,-0.34489 -0.123904,-2.04909 0.06742,-1.95416 0.120041,-1.66425 -0.632725,-3.48656 -0.424894,-1.02863 -1.104688,-3.22634 -1.225682,-3.9625 -0.03291,-0.20029 -0.09065,-0.35269 -0.12827,-0.33866 -0.03765,0.014 -0.321548,0.3085 -0.630899,0.65441 -0.869474,0.97215 -1.355699,2.13566 -1.612477,3.85842 -0.235323,1.57881 -0.154368,5.54104 0.179891,8.80533 0.0763,0.74507 0.140017,1.46125 0.141605,1.59153 0.0056,0.45463 -0.114142,0.49314 -2.456688,0.79079 -2.599786,0.33034 -2.500596,0.32575 -2.68295,0.12425 z m 2.56018,-1.2105 1.46757,-0.18701 -0.05027,-0.34286 c -0.293235,-1.99996 -0.482409,-7.63367 -0.309504,-9.21729 0.263758,-2.41574 0.885296,-3.83518 2.427473,-5.5437 l 0.600128,-0.6649 0.05207,-1.00982 c 0.118692,-2.3023 0.783696,-4.32018 1.833112,-5.5624 0.480907,-0.56925 1.774455,-1.68241 2.543308,-2.18863 1.803929,-1.18772 3.84085,-1.79923 6.42411,-1.92858 2.258245,-0.11307 3.876542,0.12825 5.313838,0.79241 0.367004,0.16958 0.725885,0.29302 0.797534,0.2743 0.144013,-0.0376 7.168912,-4.42516 7.347611,-4.58908 0.189521,-0.17386 -2.06502,-2.13028 -3.58603,-3.11184 -2.669805,-1.72292 -6.037924,-2.63565 -9.165246,-2.48372 -3.938085,0.19132 -8.393404,1.8738 -11.521281,4.3508 -0.930169,0.7366 -2.658594,2.47403 -3.493971,3.51215 -2.609795,3.24317 -4.435168,7.47076 -4.810096,11.14024 -0.358203,3.50581 0.534305,10.49953 2.040964,15.99303 0.228224,0.83213 0.283975,0.95259 0.441174,0.95321 0.09897,5.2e-4 0.840348,-0.0834 1.64751,-0.18631 z m 30.155444,-1.96306 c 0,-0.0705 -0.308002,-0.76583 -1.035897,-2.33867 -1.960404,-4.23613 -2.425012,-5.4877 -3.661595,-9.86367 -1.088602,-3.85235 -1.987841,-6.73603 -2.560955,-8.21266 -0.329248,-0.84827 -0.658574,-1.25548 -1.504553,-1.86044 -1.550485,-1.10872 -3.203919,-1.58418 -5.48259,-1.57656 -2.01086,0.007 -3.565605,0.28407 -5.142548,0.91735 -2.546191,1.02249 -4.534508,3.12777 -5.338339,5.65231 -0.238363,0.7486 -0.317712,2.4267 -0.167693,3.54683 0.186849,1.3955 0.946388,4.07525 1.546172,5.45517 l 0.122264,0.28133 3.025034,-0.009 c 3.24231,-0.01 3.784256,-0.059 5.250022,-0.4766 0.99179,-0.28257 1.592977,-0.5618 2.856785,-1.32685 1.345486,-0.81449 3.396351,-1.93019 3.44977,-1.87675 0.06316,0.0631 -1.209384,1.32465 -2.066211,2.04831 -1.495874,1.26336 -2.554816,1.79645 -4.868333,2.45081 l -1.058333,0.29934 -2.794,0.11997 c -1.5367,0.037 -2.902773,0.0588 -3.057157,0.0626 l -0.248418,0.005 0.05458,0.50813 c 0.0093,0.29104 -0.01297,1.06746 -0.04953,1.72539 l 0.0031,1.16421 0.122468,0.14398 c 0.209047,0.13665 0.368638,0.18654 1.393661,0.18129 1.793187,-0.009 5.53032,-0.43972 8.004519,-0.92215 1.3834,-0.26974 2.554763,-0.34591 3.428656,-0.22294 0.593381,0.0835 0.798009,0.16431 1.651,0.65201 0.535516,0.30618 1.449916,0.87303 2.032,1.25966 1.611974,1.07068 3.5542,1.9643 4.674843,2.15088 0.461698,0.0769 1.421157,0.11892 1.421157,0.0623 z"
       style="fill:#0b0b0b;fill-opacity:1;stroke-width:0.08466666"
       sodipodi:nodetypes="cccscccsccssscscssscccccscccscccccccccsccscsccscccccsccccscssccsccccccccccccccccscccccccccccccccc" />
    <path
       style="fill:#000000;fill-opacity:1;stroke-width:0.08466666"
       d="m 35.342748,231.50995 v -8.21266 h 2.201333 2.201333 v 8.21266 8.21267 h -2.201333 -2.201333 z m 7.62,0 v -8.21266 h 2.201333 2.201333 v 3.13266 3.13267 h 2.582334 2.582333 v -3.175 -3.175 h 2.201333 2.201333 v 8.255 8.255 h -2.201333 -2.201333 v -3.51367 -3.51366 h -2.575904 -2.575904 l 0.04919,3.51366 0.04916,3.51367 H 45.2197 42.962752 Z m 16.904969,2.30717 c -0.03088,-3.24802 -0.0562,-6.96277 -0.05622,-8.255 l -7.9e-5,-2.3495 h 5.842 5.842 v 1.56633 1.56634 h -3.598333 -3.598334 v 1.69333 1.69333 h 3.386667 3.386667 v 1.56634 1.56633 h -3.386667 -3.386667 v 1.82033 1.82034 h 3.725334 3.725333 v 1.55256 1.55255 l -3.4925,0.056 c -1.920875,0.0308 -4.581604,0.056 -5.91275,0.0561 h -2.420249 l -0.0562,-5.9055 z m 14.50602,-1.30532 c -1.59e-4,-3.92709 -0.02514,-7.6285 -0.05567,-8.22534 l -0.05535,-1.08517 4.267862,0.0321 c 4.744032,0.0356 5.069813,0.0657 6.765502,0.62515 1.949741,0.64324 3.194473,1.69928 3.991239,3.3862 0.608727,1.28879 0.897229,3.21716 0.750808,5.01843 -0.290962,3.58006 -2.046234,5.82329 -5.334714,6.81776 -1.533737,0.46382 -1.852983,0.49104 -6.244167,0.53251 l -4.085166,0.0386 v -7.14017 z m 8.156098,3.54163 c 2.011654,-0.69418 2.95492,-2.15279 2.965609,-4.58581 0.0071,-1.63688 -0.402854,-2.81274 -1.279154,-3.66807 -0.965994,-0.9429 -2.056924,-1.28493 -4.098423,-1.28493 h -1.34112 v 4.91995 4.91995 l 1.545167,-0.0362 c 1.405493,-0.0329 1.605068,-0.0569 2.207921,-0.2649 z m 10.216912,-4.67048 v -8.255 h 2.793868 2.793894 l 2.786141,5.56684 2.78614,5.56683 -0.0478,-5.56683 -0.0477,-5.56684 h 1.98954 1.98953 l 0.0557,1.9685 c 0.0306,1.08268 0.0558,4.77307 0.0558,8.20087 l 1.6e-4,6.23237 -2.71544,0.0621 c -1.4935,0.0342 -2.72844,0.049 -2.74431,0.033 -0.0159,-0.016 -1.31308,-2.52472 -2.882694,-5.57484 -1.569587,-3.05011 -2.872343,-5.56471 -2.894965,-5.588 -0.02275,-0.0233 -0.01799,1.23402 0.01058,2.794 0.02847,1.55999 0.07485,4.08411 0.103081,5.60917 l 0.0513,2.77283 h -2.041446 -2.041445 v -8.255 z"
       id="path12-6-5"
       inkscape:connector-curvature="0"
       sodipodi:nodetypes="cccccccccccccccccccccccccccccccccccccccccccccccccccccccccccccccccccccccccccccsccccccccccccccccccscccccccccc" />
  </g>
</svg>
