<?xml version="1.0" standalone="yes"?>
<svg xmlns="http://www.w3.org/2000/svg" width="2481" height="3508">
<path style="fill:#ffffff; stroke:none;" d="M0 0L0 3508L2481 3508L2481 0L0 0z"/>
<path style="fill:#215797; stroke:none;" d="M1164 456.424C1116.49 462.665 1069.29 464.156 1022 474.211C921.325 495.615 824.951 532.077 729 568.576C705.511 577.511 682.142 590.628 658 597.405C641.199 602.121 623.444 598.7 607 606.493C589.081 614.985 571.82 628.762 556 640.626C517.513 669.49 482.131 702.771 451.614 740C395.254 808.757 354.488 889.027 331.884 975C311.832 1051.27 306.204 1131.82 297.834 1210C288.345 1298.64 280.303 1387.32 271.83 1476C267.825 1517.91 262.488 1560.9 262.004 1603C261.776 1622.81 265.86 1643.29 267.831 1663C271.391 1698.6 274.467 1734.33 276.91 1770C282.567 1852.6 279.418 1935.3 283.039 2018C288.762 2148.68 294.019 2279.16 312.729 2409C326.495 2504.53 342.684 2605.83 386.27 2693C399.818 2720.1 418.054 2744.6 435.849 2769C465.077 2809.08 495.886 2847.89 531 2883C571.663 2923.66 617.439 2957.35 668 2984.69C732.862 3019.77 806.906 3044.07 879 3059C919.016 3067.28 959.827 3071.08 1000 3078.61C1040.09 3086.12 1079.31 3094.96 1120 3098.83C1194.05 3105.88 1270.45 3100.39 1344 3090.72C1459.3 3075.56 1573.23 3049.29 1685 3017.42C1718.11 3007.98 1751.12 2998.24 1784 2988.03C1799.2 2983.3 1815.64 2979.67 1830 2972.74C1869.61 2953.62 1905.81 2925.55 1940 2898.2C1996.65 2852.88 2053.87 2800.82 2094.25 2740C2105.94 2722.4 2108.21 2695.31 2112.88 2675C2124.43 2624.77 2133.77 2573.84 2142.25 2523C2163.11 2397.83 2183.24 2271.61 2191.91 2145C2195.84 2087.68 2196.53 2030.39 2199.04 1973C2203.37 1874.03 2205.71 1774.98 2210.04 1676C2211.66 1639.02 2212.42 1602 2214.04 1565C2214.86 1546.28 2217.22 1526.73 2215.91 1508C2215 1494.98 2210.74 1481.84 2208.42 1469C2203.12 1439.61 2197.11 1410.35 2191.61 1381C2173.61 1284.94 2154.61 1189.06 2136.61 1093C2126.47 1038.88 2115.6 984.87 2104.21 931C2098.35 903.256 2094.42 875.167 2085.97 848C2071.73 802.148 2048.06 760.641 2015.83 725C1961.84 665.302 1891.51 621.507 1820 585.753C1794.73 573.119 1768.9 558.383 1742 549.519C1714.1 540.327 1683.71 535.893 1655 529.789C1597.16 517.493 1539.11 506.277 1481 495.389C1402.72 480.723 1323.51 463.359 1244 457.911C1218.14 456.139 1189.85 453.029 1164 456.424z"/>
<path style="fill:#ffffff; stroke:none;" d="M1160 528.424C1137.1 531.433 1113.09 530.5 1090 532.089C1044.46 535.224 998.999 541.432 954 549.25C785.236 578.569 620.599 651.168 508.275 784C474.517 823.921 439.752 871.557 419.424 920C401.119 963.624 392.931 1011.68 384.576 1058C371.209 1132.11 362.317 1207.13 354.831 1282C344.11 1389.22 336.749 1496.45 332.039 1604C329.84 1654.23 333.217 1704.74 331.985 1755C326.901 1962.49 326.678 2170.33 358.576 2376C383.125 2534.29 426.706 2712.8 542.015 2831C617.89 2908.78 722.104 2954.14 825 2983.71C1033.2 3043.54 1259.66 3045.77 1473 3017.72C1587.15 3002.71 1709.36 2978.98 1810 2920.58C1939.59 2845.37 2019.05 2712.86 2065.33 2574C2098.17 2475.48 2119.95 2370.37 2129.83 2267C2142.38 2135.67 2137 2002.84 2137 1871C2137 1795.29 2134.9 1719.64 2134 1644C2133.04 1563.15 2136.43 1481.62 2130.91 1401C2123.88 1298.37 2108.64 1196.23 2084.88 1096C2071.62 1040.05 2056.52 984.557 2038.33 930C2030.45 906.359 2024.22 878.617 2011.64 857C2003.66 843.297 1988.79 831.745 1978.17 820C1956.8 796.371 1935.49 772.684 1914.17 749C1892.37 724.783 1870.87 700.304 1849.17 676C1839.3 664.947 1829.43 648.963 1817 640.815C1805.08 632.999 1789.32 628.246 1776 623.319C1752.8 614.739 1729.63 606.317 1706 598.975C1623.41 573.309 1538.79 554 1453 542.718C1381.49 533.314 1310.1 528 1238 528C1212.58 528 1185.2 525.115 1160 528.424z"/>
<path style="fill:#215797; stroke:none;" d="M1155 563L1155 578C1162.54 578.062 1177.7 577.647 1181.11 586.043C1185.59 597.108 1182 613.275 1182 625C1182 657.993 1179 690.99 1179 724C1179 737.773 1181.75 761.509 1175.43 773.956C1171.21 782.253 1155.93 780.999 1148 781L1148 796L1254 799L1254 784C1245.97 783.656 1231.23 783.968 1227.74 774.995C1224.99 767.919 1226.64 759.286 1226.96 752C1227.42 741.617 1226.84 731.356 1227.83 721C1230.47 693.236 1230 663.896 1230 636C1230 625.306 1231 614.722 1231 604C1231 599.235 1229.84 592.449 1232.32 588.148C1236.2 581.391 1254.48 583.421 1261 584.439C1301.84 590.818 1308.75 643.567 1276 665.64C1268.1 670.968 1258.52 673.863 1249 673.996C1244.87 674.054 1240.31 673.789 1239.67 679.019C1238.71 686.82 1249.53 698.583 1253.4 705C1267.11 727.723 1281.15 750.244 1294.8 773C1298.5 779.174 1304.68 796.508 1311.22 799.396C1316.9 801.902 1326.85 800 1333 800C1347.37 800 1361.63 802 1376 802L1375.93 788.738L1365 784.005L1353 770L1315.95 712L1295 678C1338.46 671.486 1370.69 603.956 1326 577.454C1307.62 566.556 1287.32 568.302 1267 566.911C1230.18 564.39 1191.88 563.004 1155 563M897 609L900 624C907.432 622.226 921.679 618.231 927.298 625.225C936.534 636.721 936.647 660.929 939.881 675C949.587 717.226 961.149 761.033 966.711 804C968.207 815.563 959.045 816.239 955.118 825.039C953.76 828.083 955.367 831.931 956 835C1009.63 817.85 1067.47 817.005 1121 800L1112 743L1098 745C1098 753.86 1100.6 769.948 1095.97 777.787C1093.7 781.64 1087.94 783.004 1084 784.333C1073.11 788.003 1062.21 791.114 1051 793.65C1044.33 795.16 1018.4 804.019 1015.34 795.94C1008.2 777.053 1006.17 753.83 1002.2 734C1001.26 729.299 996.642 717.714 999.118 713.43C1001.26 709.724 1009.25 709.407 1013 708.576C1023.33 706.281 1033.55 703.807 1044 702.08C1048.39 701.355 1053.85 699.869 1057.79 702.742C1064.03 707.293 1065.72 719.998 1068 727L1082 724L1067 652L1053 654C1053.06 660.692 1056.53 670.851 1052.85 676.934C1049.71 682.115 1042.38 683.036 1037 684.374C1022.64 687.946 1007.67 691.105 993 693C991.882 667.029 982.255 639.473 977 614C995.687 612.473 1014.45 605.85 1033 602.753C1039.34 601.695 1050.06 598.487 1055.78 602.742C1061.81 607.234 1063.75 621.088 1066 628L1079 625L1074 574C1057.26 574.011 1040.25 578.673 1024 582.35C982.745 591.685 939.488 607.176 897 609M1464 582L1460 596C1466.95 598.365 1482.04 602.42 1483.28 611.001C1484.01 616.107 1481.16 622.207 1479.72 627C1476.09 639.089 1471.99 651.025 1468 663C1454.59 703.228 1444.69 746.018 1427.98 785C1422.01 798.948 1406.47 792.028 1403 807C1422.74 808.572 1441.55 818.249 1460 824.656C1507.83 841.263 1556.27 856.973 1606 837.935C1670.61 813.197 1711.72 712.614 1658.83 658.089C1625.63 623.861 1567.83 615.481 1524 602.28C1504.33 596.356 1484.13 585.463 1464 582z"/>
<path style="fill:#ffffff; stroke:none;" d="M1473 806C1501.45 822.194 1542.94 832.382 1574 818.561C1585.84 813.29 1595.9 803.486 1603.28 793C1624.26 763.173 1642.49 712.965 1624.22 678C1611.1 652.904 1583.74 639.588 1558 631C1553.11 629.368 1536.26 621.26 1532.09 625.618C1526.65 631.293 1525.14 645.588 1522.67 653C1514.92 676.227 1506.63 699.475 1499.86 723C1491.85 750.798 1479.52 777.828 1473 806z"/>
<path style="fill:#215797; stroke:none;" d="M823 705C826.915 704.302 834.063 702.41 835.187 697.895C836.077 694.32 832.919 689.205 831.576 686C827.616 676.558 824.643 655.353 816.582 649.009C811.088 644.686 799.241 648.442 793 649.611C740.602 659.428 684.147 694.163 663.452 745C635.808 812.907 686.151 899.772 760 906.83C803.733 911.01 854.034 890.594 885 859.996C896.291 848.84 915.736 832.419 907.397 814.275C903.217 805.18 895.069 817.698 892.389 821C876.728 840.301 859.016 854.925 836 864.576C786.769 885.219 743.758 859.169 717.053 817C703.558 795.69 694.848 770.285 700.651 745C708.353 711.44 738.672 685.592 772 678.807C782.347 676.701 797.509 674.499 806.907 680.843C813.715 685.439 819.539 697.682 823 705M1783 707L1776 720C1781.68 723.538 1795.46 730.962 1794.23 739C1792.19 752.344 1777.98 767.964 1770.67 779C1752.71 806.122 1735.31 833.652 1717.69 861C1710.88 871.583 1701.88 893.508 1690 898.932C1682.77 902.231 1671.87 891.978 1665 890L1658 903L1718 940.667L1748 959C1749.74 955.726 1754.65 950.183 1752.86 946.3C1749.51 938.995 1733.87 936.168 1736.36 926C1739.52 913.027 1751.58 900.173 1758.58 889C1776.23 860.801 1794.3 832.74 1812.67 805C1819.55 794.605 1828.42 772.702 1840.04 767.219C1847.76 763.579 1858.52 774.558 1866 776L1873 765L1844 745.95L1805 720.656L1783 707M1293 2704C1318.85 2704 1344.18 2705.86 1370 2702.95C1379.88 2701.84 1394.79 2699.98 1401.57 2691.81C1406.56 2685.8 1402.74 2674.06 1401.95 2667C1399.57 2645.77 1396.97 2624.33 1396.04 2603C1392.39 2519.66 1402.97 2436.28 1405.01 2353C1407.39 2255.98 1414.86 2157.47 1398.92 2061C1396.61 2047.02 1393.54 2032.98 1387.69 2020C1382.32 2008.09 1374.86 1997.45 1370.67 1985C1359.29 1951.24 1354.7 1915.29 1351.17 1880C1338.41 1752.37 1367.69 1625.16 1358.91 1497C1357.51 1476.53 1355.9 1454.79 1350.09 1435C1344.01 1414.32 1333.39 1394.62 1326.67 1374C1315.32 1339.18 1306.79 1303.23 1301.43 1267C1295.02 1223.68 1297.05 1179.56 1298.96 1136C1301.49 1078.2 1303.72 1019.83 1304 962C1304.12 937.035 1304.6 911.958 1303.99 887C1303.85 881.331 1304.77 864.768 1299.68 861.303C1293.8 857.293 1267.41 851.687 1263.6 860.228C1260.97 866.134 1264 878.388 1264 885C1264 908.637 1266 932.345 1266 956C1266 985.737 1265.95 1015.37 1263.91 1045C1262.57 1064.42 1258.24 1083.46 1258 1103C1257.23 1168.47 1265 1233.52 1265 1299C1265 1443.57 1269.45 1588.5 1272.99 1733C1278.37 1952.67 1279.63 2172.35 1285.01 2392C1287.56 2495.86 1293 2600.13 1293 2704M1157 870C1157 977.028 1157.73 1083.99 1159 1191C1159.55 1236.68 1164.03 1283.39 1161.96 1329C1161.51 1338.95 1157.56 1349.28 1155.42 1359C1151.72 1375.85 1148.79 1392.94 1146.27 1410C1137.93 1466.64 1132.54 1523.89 1130.04 1581C1125.78 1678.36 1132.58 1775.75 1125.91 1873C1121.85 1932.22 1106.35 1987.87 1096.25 2046C1084.6 2113.05 1079.01 2181.18 1076.04 2249C1069.38 2401.1 1082 2553.71 1082 2706L1159 2704.09L1209 2713L1209 1596L1209 1217C1209 1149.33 1212.53 1080.48 1207.91 1013C1204.6 964.611 1196.11 917.07 1190 869L1157 870M1377 870C1374.07 882.281 1374.04 895.469 1372.83 908C1369.67 940.664 1368.4 973.241 1366.96 1006C1362.15 1115.95 1364.83 1229.37 1384.42 1338C1387.95 1357.54 1392.02 1377.26 1398.69 1396C1402.81 1407.56 1409.1 1418.17 1412.58 1430C1419.32 1452.95 1422.28 1477.21 1423.91 1501C1429.01 1575.48 1424.22 1650.58 1420.96 1725C1418.92 1771.62 1414.51 1818.36 1419.17 1865C1423.46 1907.92 1433.74 1949.96 1449.8 1990C1454.85 2002.58 1460.3 2015.2 1467 2027C1470.67 2033.46 1477.38 2041.48 1477.95 2049C1480.08 2077.51 1477 2106.51 1477 2135C1477 2205.67 1477.72 2276.38 1475.99 2347C1475.07 2384.53 1472.39 2422.39 1474.04 2460C1476.23 2509.93 1482.76 2559.57 1490.42 2609C1493.69 2630.06 1499.27 2650.89 1502 2672C1528.02 2672 1554.56 2668.62 1579 2659.19C1591.43 2654.39 1602.55 2648.97 1608.12 2636C1625.15 2596.35 1592.54 2555.32 1600.45 2516C1602.61 2505.26 1608.1 2494.98 1608.91 2484C1609.97 2469.6 1605.08 2454.45 1604.09 2440C1601.92 2408.5 1600.15 2376.58 1600 2345C1599.77 2296.36 1599.43 2247.64 1600 2199C1600.58 2150.78 1602.15 2103.33 1590.37 2056C1580.09 2014.68 1560.84 1974.72 1528 1946.58C1520.62 1940.25 1512.93 1931.98 1504 1928C1519.95 1889.63 1516.82 1844.73 1515.04 1804C1511.47 1722.47 1498.97 1642.94 1489.16 1562C1485.99 1535.92 1484.89 1509.29 1486.04 1483C1486.56 1471.07 1491.84 1453.65 1488.68 1442.17C1487.56 1438.09 1482.87 1434.87 1480 1432C1473.65 1425.66 1467.77 1419.05 1462.21 1412C1444.01 1388.91 1424.84 1361.11 1418.42 1332C1412.04 1303.06 1410.25 1272.49 1408.96 1243C1407.95 1219.84 1405.97 1196.14 1408.17 1173C1411.1 1142.2 1421.08 1114.63 1418.91 1083C1417.23 1058.43 1414.11 1034.17 1409.2 1010C1406.27 995.565 1401.1 981.815 1400.09 967C1398 936.461 1406.09 904.279 1417 876L1377 870M1047 888C1047 996.736 1048.48 1105.33 1049 1214C1049.13 1240.41 1049.28 1267.63 1051.09 1294C1052.01 1307.49 1055.17 1323.6 1053.44 1337C1052.13 1347.04 1040.68 1359.5 1035.32 1368C1022.26 1388.72 1008.93 1409.48 997.231 1431C991.956 1440.7 985.3 1450.75 984.171 1462C979.272 1510.8 981.579 1560.95 980.996 1610C980.184 1678.29 978.687 1746.73 977.015 1815C975.934 1859.1 977.957 1904.17 972.714 1948C970.656 1965.21 960.278 1977.1 949.41 1990C929.293 2013.88 901.585 2036.14 886.912 2064C879.5 2078.08 881.302 2098.55 879.83 2114C876.223 2151.88 874.061 2190.94 874 2229C873.833 2333.07 869.795 2437.09 876.911 2541C878.783 2568.34 879.861 2595.79 883.576 2623C884.604 2630.53 883.732 2645.3 888.603 2651.33C894.648 2658.82 907.51 2664.06 916 2668.24C947.103 2683.58 978.789 2688 1013 2688C1008.64 2653.5 1011.48 2617.74 1009.96 2583C1006.68 2508.06 1006.82 2433.03 1004.99 2358C1003.44 2294.71 1003 2231.4 1003 2168C1003 2127.53 1001.41 2086.19 1006.29 2046C1008.6 2026.91 1024.7 2011.4 1032.69 1994C1047.24 1962.32 1056.53 1928.72 1059.83 1894C1061.78 1873.55 1059.93 1853.42 1059.04 1833C1057.43 1796.34 1056.64 1759.65 1055.04 1723C1053.89 1696.78 1054.96 1670.25 1055 1644C1055.01 1636.77 1057.29 1629.17 1056.58 1622C1055.45 1610.45 1049.64 1598.46 1047.21 1587C1042.91 1566.71 1042.13 1545.69 1043.04 1525C1044.56 1490.22 1057.95 1457.96 1067.58 1425C1080.5 1380.75 1089.97 1334.62 1096.57 1289C1098.94 1272.62 1098.14 1256.16 1094.58 1240C1092.05 1228.54 1086.6 1216.92 1087.21 1205C1091.08 1129.57 1105.27 1052.57 1100.09 977C1098.41 952.439 1098.79 928.367 1094 904C1092.73 897.571 1092.01 884.369 1087.16 879.618C1084.45 876.97 1079.08 879.319 1076 880.151C1066.35 882.762 1056.75 885.766 1047 888M1478 886C1477.74 978.57 1477 1071.39 1477 1164C1477 1199.77 1478.4 1235.33 1479.96 1271C1480.91 1292.69 1480.75 1315.7 1485.63 1336.99C1487.31 1344.31 1496.8 1348.25 1502 1353.09C1513.27 1363.57 1523.13 1375.2 1531.67 1388C1556.43 1425.14 1569.42 1470.87 1573.83 1515C1578.8 1564.65 1574.48 1614.45 1571.09 1664C1567.77 1712.52 1568 1761.3 1568 1810C1568 1847.58 1567.3 1888.19 1576.02 1925C1577.91 1932.98 1587.41 1937.56 1593 1943.01C1604.7 1954.43 1615.13 1966.66 1624.58 1980C1650.77 2017.02 1667.69 2061.71 1676.55 2106C1688.33 2164.88 1684.64 2222.62 1682.04 2282C1679.71 2335.22 1677.68 2388.78 1678.99 2442C1679.99 2483.06 1680.76 2524.1 1692 2564C1700.69 2557.75 1705.79 2547.12 1711 2538C1723.85 2515.5 1733.08 2491.02 1742.6 2467C1754.18 2437.79 1765.34 2406.87 1771.55 2376C1777.44 2346.73 1777.04 2314.77 1779.09 2285C1782.76 2231.65 1787.43 2178.36 1791.09 2125C1794.4 2076.69 1798.84 2028.38 1800.96 1980C1803.75 1916.26 1802.58 1851.75 1801.01 1788C1797.34 1637.93 1792.17 1489.38 1776.17 1340C1768.36 1267.14 1756.66 1194.13 1738.87 1123C1729.8 1086.69 1720.89 1047.54 1700 1016C1650.48 941.262 1560.09 909.122 1478 886M819 2594C815.072 2580.36 808.833 2568.29 806.435 2554C797.482 2500.63 804.197 2444.05 812.424 2391C818.642 2350.91 830.987 2311.75 831.985 2271C832.984 2230.22 828.881 2189.51 824.831 2149C822.38 2124.48 816.763 2096.27 823.156 2072C833.048 2034.45 857.763 2000.86 879 1969C888.971 1954.04 905.377 1935.34 907.819 1917C911.464 1889.65 907.834 1861.52 909.039 1834C913.184 1739.35 909 1643.84 909 1549C909 1523.28 908 1497.71 908 1472C908 1461.73 906.498 1450.17 908.148 1440.04C909.369 1432.55 921.868 1426.34 926.83 1420.99C939.425 1407.41 949.892 1392.28 958.691 1376C983.255 1330.56 991.429 1275.84 994.911 1225C998.413 1173.86 995.757 1121.91 990.83 1071C985.072 1011.5 976.784 953.528 988 894C967.669 894.013 946.907 900.326 928 907.319C873.281 927.554 826.054 965.597 787.845 1009C773.737 1025.03 757.144 1042.87 747.374 1062C728.061 1099.82 721.791 1148.51 714.92 1190C688.403 1350.09 678.039 1511.35 670.961 1673C663.457 1844.36 665.571 2016.41 683.834 2187C695.051 2291.77 712.697 2400.73 752 2499C762.269 2524.68 774.08 2551.73 792.134 2573C799.311 2581.46 808.036 2590.77 819 2594M440 2087C438.96 2076.84 433.092 2068.75 434.171 2058C437.101 2028.79 480.643 2016.55 497.031 2042C505.723 2055.5 502.759 2077.99 484 2078L484 2084C488.962 2084.21 499.228 2087.89 503.49 2084.97C509.38 2080.93 509 2067.2 509 2061C509.001 2037.39 499.615 2011.26 472 2010.04C446.464 2008.91 429.363 2022.57 425.729 2048C424.02 2059.96 424.192 2085.56 440 2087M1985 2022L1983 2111L1994.04 2102.15L2040 2104L2040 2105C2024.32 2111.63 2009.62 2126.66 1996 2136.87C1991.67 2140.12 1982.89 2144.35 1980.6 2149.38C1978.02 2155.03 1979.27 2166.66 1979 2173L1985 2173C1985.33 2169.34 1985.95 2165.43 1990.05 2164.32C1995.09 2162.96 2000.89 2164.94 2006 2165C2018.99 2165.15 2036.53 2163.84 2048.98 2167.57C2055.76 2169.6 2052.25 2177.4 2060 2178L2061 2150L2055 2150C2054.89 2153.45 2054.61 2156.91 2050.94 2158.4C2045.88 2160.44 2039.2 2158.45 2034 2158.09C2023.04 2157.34 2012 2157 2001 2157C2012.22 2143.21 2031.77 2133.04 2046 2122.37C2056.06 2114.83 2063.38 2110.72 2066 2098C2051.5 2093.71 2030.23 2095.03 2015 2095C2009.4 2094.99 1996.75 2095.91 1992.32 2092.26C1983.61 2085.07 1992.84 2075.04 2001 2075C2017.2 2074.92 2035.96 2073.96 2052 2076.19C2057.26 2076.92 2059.7 2081.58 2065 2082C2060.73 2064.05 2066 2042.4 2066 2024L2045 2022L2045 2028C2061.55 2031.8 2057.04 2045.36 2057 2059L2027 2058C2027 2047.96 2024.04 2037.12 2037 2037L2037 2031L2011 2031L2011 2036C2022.8 2038.34 2020.23 2048.25 2019 2058L1992 2058C1992 2051.11 1990.41 2039.26 1994.03 2033.15C1997.19 2027.81 2003.4 2031.65 2004 2024L1985 2022M432.044 2090.03C421.404 2095.7 430.271 2112.36 440.981 2106.82C451.91 2101.16 443.276 2084.04 432.044 2090.03M503 2107C502.956 2110.73 502.954 2114.73 498.941 2116.4C486.593 2121.55 467.274 2119.18 454 2120.09C449.183 2120.42 442.81 2122.42 438.147 2120.4C434.907 2118.99 434.601 2115.04 434 2112L428 2112L430 2140L436 2140L438.318 2130.86L451 2128.71L490 2126C479.158 2135.47 469.525 2146.11 459 2155.91C446.496 2167.56 435.96 2175.37 432 2192C447.16 2194.56 468.599 2190.53 484 2188.71C495.986 2187.3 505.843 2184 510 2197L515 2196L513 2169L508 2169L504.772 2177.97L488 2180.04L458 2182L495 2146L509.687 2131L509 2107L503 2107M2026 2181L2022 2216L2028 2216C2028.63 2212.74 2028.86 2207.95 2031.51 2205.61C2035.18 2202.37 2047.09 2204.42 2048.77 2209.11C2061.63 2244.94 2002.9 2258.87 1984.8 2233C1974.39 2218.12 1981.75 2191.96 2001 2192L2002 2186C1997.04 2185.36 1987.78 2180.82 1983.21 2183.12C1974.26 2187.63 1973.01 2209.43 1973 2218C1972.98 2230.58 1974.18 2242.84 1982.52 2252.96C1996.6 2270.05 2027.59 2269.88 2042.99 2254.96C2049.01 2249.12 2052.73 2242.06 2054.84 2234C2057.56 2223.66 2057.61 2212.52 2056.13 2202C2055.62 2198.34 2055.38 2190.51 2051.57 2188.6C2044.84 2185.23 2033.83 2190.4 2031 2181L2026 2181M441.044 2206.74C430.38 2211.08 437.882 2228.69 448.957 2223.99C460.634 2219.04 452.907 2201.91 441.044 2206.74M512 2220L509.837 2229.06L495 2232.27L463 2236.87L448.225 2238.31L444 2230L438 2230L443 2267L449 2267C448.155 2254.91 456.978 2255.53 467 2254.13C482.254 2252 499.283 2251.47 514 2247C515.396 2251.97 517.326 2258.05 514.821 2263C507.043 2278.34 487.293 2269.35 486 2255C475.136 2255.82 463.879 2270.22 456 2277.16C453.164 2279.65 448.024 2282.65 446.643 2286.3C444.401 2292.22 448.727 2302.65 449 2309C455.16 2308.52 456.047 2303.1 460.019 2299C468.539 2290.21 478.33 2282.66 487 2274C491.658 2287.7 516.291 2295.67 522.852 2279C529.51 2262.08 519.382 2236.51 518 2219L512 2220M2044 2272C2036.79 2282.82 2015.31 2290.46 2003 2294C1999.68 2279.7 1979.32 2263.29 1968.21 2281.02C1958.85 2295.96 1959.32 2320.86 1956 2338C1962.98 2337.77 1962.11 2330.99 1968.04 2330.16C1973.66 2329.38 1980.46 2331.83 1986 2332.75C1998.25 2334.79 2015.87 2334.74 2026.94 2340.43C2031.04 2342.54 2030.68 2346.08 2030 2350L2036 2351L2042 2314L2036 2314C2034.33 2324.45 2025.98 2321.64 2018 2320.25C2001.53 2317.39 1984.66 2313.32 1968 2312C1969.71 2298.53 1981.79 2283 1994.61 2298.09C1997.26 2301.23 1997.97 2313.32 2001.16 2313.87C2004.49 2314.43 2009.04 2311.42 2012 2310.15C2020.16 2306.65 2039.68 2302.37 2044.97 2295.3C2048.28 2290.89 2048.56 2278.52 2049 2273L2044 2272M459.001 2309.58C446.802 2311.24 449.637 2330.81 461.996 2328.57C473.792 2326.42 471.085 2307.92 459.001 2309.58M481 2339L480 2334C475.588 2334.19 461.841 2334.29 458.988 2337.6C456.128 2340.92 456.916 2347.96 457.015 2352C457.369 2366.44 464.863 2386.84 481 2389.67C484.498 2390.29 488.476 2390.21 492 2389.83C509.733 2387.9 509.449 2370.82 510.831 2357C511.474 2350.57 511.881 2342.85 519.015 2340.16C528.844 2336.47 536.44 2349.63 535.775 2358C535.114 2366.32 529.604 2368.07 523 2371L524 2376C528.311 2375.66 539.082 2375.71 542.062 2372.4C545.481 2368.59 543.982 2360.5 543.246 2356C540.987 2342.17 534.925 2326.88 519 2325.17C500.457 2323.19 494.189 2336.96 493.09 2353C492.517 2361.35 493.491 2372.71 483 2375.41C470.855 2378.54 465.024 2362.23 466.185 2353C467.312 2344.04 473.32 2341.5 481 2339M1956 2339L1934 2424L1940 2425C1941.05 2422.34 1942.44 2418.51 1946.02 2418.88C1950.42 2419.35 1954.81 2424.73 1958 2427.41C1967.34 2435.25 1976.81 2442.98 1986 2451L1947 2454.01L1934.24 2453.97L1933 2445L1927 2444C1923.59 2458.87 1918.34 2474.07 1912.14 2488C1909.67 2493.55 1904.42 2499.77 1912 2503C1918.9 2492.21 1927.53 2499.43 1937 2503.69C1950.98 2510 1976.4 2516.88 1968.54 2537C1959.24 2560.78 1941.43 2550.18 1924 2542.58C1912.88 2537.73 1899.83 2535.69 1903 2522L1897 2520L1883 2555C1889.3 2556.03 1891.04 2548.9 1897 2550.5C1915.08 2555.34 1934.46 2574.17 1954 2570.67C1973.73 2567.14 1986.58 2533.39 1976.03 2517C1967.57 2503.86 1947.45 2499.09 1934 2492.78C1928.36 2490.13 1919.23 2488.09 1922.49 2480.02C1925.38 2472.83 1932.51 2473.46 1939 2472.83C1954.98 2471.28 1970.99 2470.03 1987 2468.91C1993.91 2468.43 2007.56 2470.3 2007.16 2460.04C2006.96 2454.68 1997.71 2449.44 1994 2446.27L1958 2415.42C1952.1 2410.36 1945.63 2405.54 1948.64 2397.02C1951.26 2389.6 1960.47 2394 1966 2395.37C1977.96 2398.35 1990.04 2400.89 2002 2403.87C2008.96 2405.61 2014.96 2406.26 2017 2414L2021 2414L2031.12 2373L2032.96 2357.7L2015 2351L2013 2357C2029.09 2363.73 2020.85 2375.28 2019 2389L1989 2383L1993.93 2365.32L2005 2358L1979 2352L1978 2358C1990.02 2361.15 1983.19 2372.18 1982 2381L1956 2375C1957.56 2362.94 1958.71 2349.01 1973 2349L1974 2344L1956 2339M480.001 2399.66C467.93 2400.63 469.01 2419.17 481 2418.71C493.395 2418.23 492.414 2398.67 480.001 2399.66M518 2478L529 2508L544 2507L533 2477L518 2478M603 2544C606.795 2557.21 597.626 2559.31 587 2566.05C571.167 2576.1 551.056 2583.98 554.301 2606C555.204 2612.13 558.128 2617.85 561.439 2623C578.981 2650.3 601.447 2636.92 623 2623.42C627.541 2620.58 637.342 2611.5 642.961 2612.68C646.953 2613.51 652.024 2620.5 649.468 2624.28C645.093 2630.77 636.845 2636.01 631 2641.16C622.83 2648.35 614.47 2658.42 605 2663.79C600.227 2666.5 596.346 2661.14 591 2663L608 2685C615.543 2681.15 607.367 2675.64 612.167 2670.09C622.482 2658.17 636.6 2648.91 648 2638C646.499 2656.99 642.507 2676.14 639.728 2695C638.051 2706.39 635.208 2714.88 642 2725C661.35 2716.81 677.585 2693.6 693.996 2680.47C698.962 2676.5 710.561 2679.24 711.129 2687.01C711.471 2691.69 703.891 2697.83 701 2701C693.829 2708.86 687.013 2717.04 679.95 2725C677.171 2728.13 674.027 2733.4 669.996 2734.98C666.916 2736.18 664.281 2733.71 662 2732L661 2732L658 2738L685 2761L686 2761C689.655 2755.32 684.424 2754.77 684.6 2749.42C684.745 2744.98 692.09 2739.13 694.845 2736C699.819 2730.35 704.778 2724.68 709.718 2719L718.424 2709C724.863 2701.58 736.906 2698.96 737.681 2713C738.636 2730.3 729.656 2751.99 726.199 2769C725.02 2774.8 719.605 2786.54 725.152 2790.94C731.652 2796.09 739.524 2787.96 745 2784.33C760.692 2773.94 776.526 2762.56 793 2753.47C797.201 2751.15 807.167 2751.49 807.759 2758.04C808.3 2764.03 800.883 2773.73 798.247 2779C795.214 2785.06 792.148 2791.07 788.861 2797C785.905 2802.33 783.857 2809.32 779.61 2813.77C776.953 2816.56 773.243 2816.85 771 2820C783 2826.98 795.879 2832.59 808 2839.42C811.464 2841.38 818.599 2846.98 822.787 2845.58C827.443 2844.02 832.142 2832.44 833 2828L819 2833.64L796 2824L809 2797C819.243 2801.26 828.08 2803.89 824 2816L830 2818L841 2794L836 2792C828.856 2802.22 822.067 2793.91 813 2790L825 2766L845.639 2778.21L850 2791L857 2779L864.717 2786.47L860 2801L848.424 2831L842.351 2844.64L832 2845L831 2851L866 2864L860.819 2849.98L882 2792C896.817 2795.43 907.238 2811.07 889.999 2820.91C886.277 2823.04 875.951 2820.26 874.317 2823.36C872.141 2827.48 876.28 2837.62 877.211 2842C878.793 2849.44 879.17 2864.39 883.988 2870.3C887.514 2874.62 899.673 2877.48 905 2879L907 2873C897.143 2865.66 893.971 2840.89 893 2829C910.766 2828.85 928.105 2809.66 909.996 2795.53C900.102 2787.81 885.528 2785.16 874 2780.55C857.006 2773.75 840.295 2765.09 824 2756.74C811.526 2750.35 796.431 2736.67 783 2734L781 2737L781 2738L786.23 2744.61L776 2753.67L743 2775L756 2722L764 2726L767 2722L767 2721C742.564 2702.22 711.68 2683.86 694 2658L688 2660L691.459 2669L682 2679.07L657 2701C657.339 2684.57 661.258 2667.23 663.92 2651C664.894 2645.06 668.228 2634.77 666.357 2629C664.448 2623.11 657.411 2617.97 653.756 2613C651.092 2609.38 643.056 2592.12 638.07 2592.92C634.676 2593.47 637.144 2602.7 633.926 2605.62C620.033 2618.22 589.563 2641.48 574.529 2622C558.811 2601.63 581.669 2591.3 597 2581.34C605.103 2576.08 614.745 2565.61 622 2576L628 2573L628 2572L609 2542L603 2544M1904 2664L1909 2666L1923 2642L1917 2640C1911.71 2647.05 1904.02 2641.67 1902.21 2634C1901.33 2630.24 1904.97 2626 1906.81 2623C1914.48 2610.48 1918.75 2607.69 1933 2613C1931.38 2617.01 1931.13 2626.97 1937.1 2619.85C1943.48 2612.23 1949.75 2600.98 1954 2592C1947.8 2589.22 1942.72 2594.5 1936 2593.71C1916.62 2591.44 1897.31 2588.05 1878 2585.27C1872.47 2584.47 1859.23 2580.83 1859.98 2591C1860.38 2596.28 1867.41 2602.82 1870.42 2607C1881.12 2621.82 1907.11 2645.29 1904 2664z"/>
<path style="fill:#ffffff; stroke:none;" d="M1879 2603C1882.06 2610.97 1889.39 2620.62 1896 2626L1907 2607L1879 2603z"/>
<path style="fill:#215797; stroke:none;" d="M1733 2730L1747.67 2735.1L1773 2771L1723 2757.58L1702 2752.6L1682 2765L1684 2770L1693.83 2768.16L1704.03 2781L1729.29 2818L1727 2832L1751 2817L1736.52 2811.84L1709 2772C1730.28 2778.04 1751.59 2784.06 1773 2789.63C1777.2 2790.72 1793.1 2795.69 1793.38 2786.79C1793.53 2782.01 1786.91 2775.73 1784.34 2772C1777.45 2761.98 1770.59 2751.93 1763.58 2742C1760.7 2737.93 1754.87 2732.11 1754.16 2727.04C1753.04 2719.02 1764.61 2729.64 1766 2731L1767 2731L1765.77 2718L1772 2710.01L1778 2706.06L1791.04 2718L1813.01 2741L1820.74 2751L1816 2759L1816 2760C1824.97 2765.78 1841.78 2742.5 1849 2737L1845 2732L1844 2732C1834.47 2740.13 1829.47 2731.66 1822.71 2724C1813.36 2713.4 1802.53 2700.12 1791 2692L1791 2691C1800.07 2684.61 1803.78 2675.29 1814 2685C1820.49 2679.43 1809.26 2664.16 1802.99 2667.66C1794.4 2672.45 1786.98 2683.1 1780 2690C1765.26 2704.56 1750.18 2718.41 1733 2730z"/>
<path style="fill:#ffffff; stroke:none;" d="M656 2701L657 2702L656 2701z"/>
<path style="fill:#215797; stroke:none;" d="M1658 2776.46C1641.86 2779.37 1623.65 2790.58 1618.78 2807C1610.4 2835.31 1633.51 2868.28 1664 2862.92C1680.87 2859.95 1698.82 2849.22 1703.96 2832C1712.51 2803.33 1688.61 2770.95 1658 2776.46z"/>
<path style="fill:#ffffff; stroke:none;" d="M1653 2786.47C1614.86 2793.6 1638.45 2857.97 1670 2852.67C1708.33 2846.24 1683.79 2780.71 1653 2786.47z"/>
<path style="fill:#215797; stroke:none;" d="M1580 2809L1570 2870L1569 2870L1539.71 2836L1527.96 2825.12L1501 2832L1502 2838C1505.42 2837.57 1509.45 2836.25 1512.01 2839.32C1520.08 2849.02 1522.23 2870.9 1525.71 2883C1526.97 2887.38 1529.9 2893.36 1529.38 2897.96C1528.95 2901.8 1525.17 2903.05 1522 2904L1523 2910L1550 2903C1548.99 2894.25 1541.35 2900.65 1538.11 2893.94C1531.27 2879.78 1528.29 2862.12 1524 2847C1535.98 2859.08 1547.05 2872.23 1558.29 2885C1561.14 2888.25 1566.85 2897.13 1571.86 2896.42C1576.45 2895.77 1576.34 2884.53 1576.92 2881C1579.67 2864.42 1584.65 2846.78 1585 2830L1587 2830L1596.42 2865L1599.31 2878.79L1592 2884L1593 2889L1629 2880C1628.05 2871.72 1623.08 2877.37 1618.7 2873.38C1615.18 2870.18 1614.38 2862.39 1613.02 2858C1608.98 2844.84 1601.6 2828.74 1600.82 2815C1600.46 2808.8 1608.13 2808.76 1607 2802L1580 2809M919 2857C917.441 2861.79 911.078 2872.21 913.133 2876.91C919.811 2892.18 953.137 2893.76 964.996 2886.03C968.426 2883.8 971.142 2880.64 973.004 2877C981.243 2860.91 971.418 2850.09 958 2842C952.114 2838.45 941.085 2832.44 944.164 2824C948.722 2811.52 966.034 2815.3 972.338 2823.95C975.044 2827.66 972.204 2830.97 973.692 2834.68C974.495 2836.68 976.731 2836.77 978.162 2835.38C986.752 2827.04 983.772 2817.4 974 2813.04C962.965 2808.12 946.536 2804.38 936.004 2812.42C933.014 2814.7 930.567 2817.68 928.825 2821C927.514 2823.5 926.535 2826.19 926.185 2829C923.299 2852.18 952.916 2850.49 958.164 2868C962.904 2883.81 939.07 2883.9 931.004 2878.2C927.886 2875.99 924.536 2872.83 923.553 2869C922.193 2863.7 926.236 2858.58 919 2857M991 2825C994.073 2825.74 997.82 2826.53 998.643 2830.11C999.712 2834.76 996.929 2841.44 995.881 2846C993.067 2858.24 992.618 2880.67 984.911 2890.68C982.668 2893.6 979.093 2892.56 976 2892L975 2898L1011 2906L1012 2900C1008.83 2898.89 1004.99 2897.71 1004.22 2893.96C1003.23 2889.17 1006 2882.68 1007 2878C1009.76 2865.1 1010.81 2847.87 1016.65 2836.06C1018.6 2832.14 1022.11 2832.05 1026 2832C1025.92 2833.97 1023.3 2851.03 1029.29 2846.91C1032.2 2844.91 1031.2 2840.02 1034.42 2838.07C1038.06 2835.86 1051.7 2838.3 1052.4 2843.11C1053.1 2847.99 1050.81 2854.14 1050.13 2859C1048.39 2871.38 1048.36 2889.81 1042.57 2900.94C1039.29 2907.24 1031.67 2901.34 1031 2910L1070 2916L1071 2910C1068.04 2909.6 1063.87 2909.31 1062.03 2906.57C1059.78 2903.24 1061.65 2897.6 1062.25 2894L1067.59 2862C1068.31 2857.66 1068.12 2847.74 1071.6 2844.69C1074.98 2841.73 1087.73 2844.63 1089.97 2848.28C1091.68 2851.06 1090.38 2855.01 1090 2858L1096 2859C1096.49 2855.35 1100.14 2838.98 1105.97 2848.28C1108.47 2852.25 1106.01 2860.6 1105.42 2865C1103.85 2876.95 1103.18 2889.04 1101.58 2901C1100.73 2907.29 1100.74 2912.64 1094 2915L1094 2920L1152 2926L1155 2905L1143.78 2915.4L1118 2914L1121 2884C1126.17 2884.04 1135.41 2883.69 1139.68 2886.94C1142.4 2889 1141.03 2896.12 1145 2896.25C1148.74 2896.37 1151.47 2873.27 1148.41 2871.09C1144.62 2868.37 1143.12 2876.87 1140.29 2877.83C1134.99 2879.63 1127.51 2877.05 1122 2877C1122.13 2870.73 1121.67 2857.57 1125.18 2852.32C1128.24 2847.73 1144.72 2850.91 1148.85 2853.32C1154.01 2856.32 1150.12 2862.85 1157 2864L1161 2846C1148.26 2842.86 1134.98 2843.07 1122 2841.83C1091.42 2838.91 1058.76 2834.73 1029 2827C1020.75 2824.86 1012.28 2823.67 1004 2821.63C1001.04 2820.9 996.346 2818.74 993.318 2819.78C991.051 2820.55 991.152 2823.05 991 2825M1364 2849L1365 2854C1368.71 2854.09 1372.51 2854.26 1374.27 2858.11C1377.33 2864.8 1376.56 2874.77 1377.09 2882C1377.92 2893.39 1380.94 2905.59 1379.94 2917C1379.54 2921.65 1375.72 2924.41 1375 2929L1434 2924L1433 2903C1424.85 2903.65 1429.06 2911.09 1423.7 2914.86C1417.69 2919.08 1405.12 2918.69 1398 2919L1395 2889C1405.31 2886.54 1416.25 2884.07 1418 2897L1424 2896C1422.65 2888.7 1425.15 2870.73 1416 2870C1415.9 2878.19 1402.77 2886.58 1395.74 2879.4C1391.27 2874.83 1393.16 2860.22 1392 2854C1402.5 2853.97 1419.02 2847.65 1421 2862L1427 2862L1427 2845L1428 2845L1428 2849C1430.87 2848.96 1435.16 2848 1437.23 2850.55C1440.22 2854.24 1440.17 2861.48 1440.92 2866C1443 2878.58 1450.86 2899.56 1447.82 2911.94C1446.91 2915.64 1443.2 2916.3 1440 2917L1440 2923L1477 2917L1476 2911C1472.54 2911.78 1469.21 2912.22 1466.94 2908.85C1460.01 2898.58 1460.63 2876.21 1458.59 2864C1457.9 2859.91 1454.37 2850.11 1457.62 2846.74C1463.67 2840.45 1474.48 2845.82 1477.86 2852C1483.89 2863.02 1474.23 2872.57 1464 2875C1466.2 2889.53 1486.85 2902.08 1495 2914L1519 2910L1508 2898.98L1483 2873C1499.91 2867.25 1502.93 2837.82 1482 2836.09C1469.12 2835.03 1456.62 2839.05 1444 2840.87C1417.83 2844.63 1390.46 2848.45 1364 2849M1300 2919C1289.88 2920.01 1281.63 2924.98 1271 2923.83C1242.23 2920.7 1231.56 2876.73 1256 2860.97C1270.24 2851.78 1292.99 2855.73 1293 2875L1299 2875L1301 2856L1310.26 2861.06L1311.09 2877L1312.77 2919.99L1307 2931L1366 2929L1366 2908C1357.99 2908.62 1361.55 2915.22 1356.69 2919.41C1352.73 2922.82 1338.98 2923.77 1334.06 2922.53C1328.28 2921.07 1330 2912.45 1330 2908C1329.99 2894 1324.77 2874.44 1328.44 2861.02C1330.15 2854.77 1337.44 2857.07 1338 2850L1301 2851L1301 2855C1283.18 2845.51 1255.66 2845.84 1239 2857.79C1220.1 2871.35 1218.35 2904.61 1235.17 2920.7C1247.23 2932.23 1266.29 2934.24 1282 2931.87C1290.34 2930.6 1299.02 2928.5 1300 2919z"/>
</svg>
