<?xml version="1.0" standalone="yes"?>
<svg xmlns="http://www.w3.org/2000/svg" width="600" height="331">
<path style="fill:#f7f7f8; stroke:none;" d="M0 0L0 331L600 331L600 0L0 0z"/>
<path style="fill:#927d83; stroke:none;" d="M102 35L102 68L104 68C104 63.4304 102.776 57.7385 107 55L107 54L104 54L104 35L102 35z"/>
<path style="fill:#394481; stroke:none;" d="M104 35L104 54L107 55L111 54C111 44.4073 111.154 41.5172 104 35z"/>
<path style="fill:#927d83; stroke:none;" d="M105 35L109 39L105 35z"/>
<path style="fill:#06070b; stroke:none;" d="M105 36L106 37L105 36M106 37L107 38L106 37M105 38L106 39L105 38M107 38L108 39L107 38M108 39L109 40L108 39M109 40L111 42L109 40M111 42C111 46.386 112.033 51.3855 108 54L108 55L112 55L111 42M105 46L106 47L105 46M105 48L106 49L105 48z"/>
<path style="fill:#927d83; stroke:none;" d="M122.333 49.6667L122.667 50.3333L122.333 49.6667z"/>
<path style="fill:#d70a1e; stroke:none;" d="M123 50L122 58L129 60C130.443 54.5603 127.74 52.2822 123 50z"/>
<path style="fill:#927d83; stroke:none;" d="M124 50L125 51L124 50M127 52L128 53L127 52z"/>
<path style="fill:#06070b; stroke:none;" d="M105.667 53.3333L106.333 53.6667L105.667 53.3333z"/>
<path style="fill:#927d83; stroke:none;" d="M109.667 55.3333L110.333 55.6667L109.667 55.3333z"/>
<path style="fill:#394481; stroke:none;" d="M111 55L112 56L111 55z"/>
<path style="fill:#927d83; stroke:none;" d="M123.667 58.3333L124.333 58.6667L123.667 58.3333M126.667 59.3333L127.333 59.6667L126.667 59.3333M129 59L130 60L129 59M90 69L86 84C77.2748 84.7127 67.9368 88.1139 61.0039 93.5293C52.6407 100.062 52.6828 105.999 41 106L40 143L167 143L166 106C154.037 106 154.528 100.798 145.961 94.0432C139.178 88.6958 129.605 84.7513 121 84C120.396 65.3724 103.718 69 90 69M332.667 103.333L333.333 103.667L332.667 103.333z"/>
<path style="fill:#394481; stroke:none;" d="M334.667 103.333L335.333 103.667L334.667 103.333z"/>
<path style="fill:#06070b; stroke:none;" d="M316 182L307 186C317.575 210.504 359.298 217.258 364.674 185C367.632 167.253 351.46 155.45 339 146.265C332.991 141.836 324.523 136.021 323.38 128C321.823 117.07 335.321 111.053 344 115.454C347.947 117.455 350.755 122.506 355 123.669C358.654 124.67 363.013 120.601 361.248 116.985C350.696 95.3678 313.821 101.267 313.13 126C312.404 151.949 348.667 155.386 353.802 178C356.309 189.035 344.701 199.45 334 197.667C325.515 196.253 319.925 189.042 316 182z"/>
<path style="fill:#394481; stroke:none;" d="M338 103L338 104L341 104L338 103z"/>
<path style="fill:#927d83; stroke:none;" d="M341 103L342 104L341 103M328 104L329 105L328 104z"/>
<path style="fill:#394481; stroke:none;" d="M329 104L330 105L329 104M344 104L345 105L344 104z"/>
<path style="fill:#927d83; stroke:none;" d="M345 104L346 105L345 104M200 105L200 106L210 106L200 105M233 105L233 106L263 106L233 105M326 105L327 106L326 105M348 105L349 106L348 105M386 105L386 106C404.311 106 426.177 102.757 444 107L427 105L386 105M470 105L470 106L473 107L470 105M553 105L554 108L555 108L553 105z"/>
<path style="fill:#06070b; stroke:none;" d="M200 106L200 205L210 205L210 106L200 106z"/>
<path style="fill:#394481; stroke:none;" d="M233 106L233 205L234 205L234 136L233 106z"/>
<path style="fill:#06070b; stroke:none;" d="M234 106L234 205L243 205L243 159C251.376 159.631 255.722 167.833 260.374 174C270.792 187.809 278.583 205 297 205L261 159C270.14 158.975 280.663 157.768 287.815 151.471C298.766 141.828 298.18 121.605 286.96 112.529C273.596 101.719 250.032 106 234 106z"/>
<path style="fill:#394481; stroke:none;" d="M271.667 106.333L272.333 106.667L271.667 106.333z"/>
<path style="fill:#927d83; stroke:none;" d="M273 106L274 107L273 106M324 106L325 107L324 106M350 106L351 107L350 106z"/>
<path style="fill:#06070b; stroke:none;" d="M386 106L386 205L443 205L443 196L396 196L396 156L443 156L443 147L396 147L396 115L443 115L443 106L386 106M470 106C468.609 138.389 461.94 173.117 456 205L464.976 203.397L468.282 184L475 134L476 134C483.503 152.022 493.023 169.538 501.753 187C504.664 192.823 507.348 202.92 514 205L548 135L552.282 158L559 205L568 205L554 106L541.247 129L513 187L512 187L472 106L470 106z"/>
<path style="fill:#394481; stroke:none;" d="M277 107L278 108L277 107z"/>
<path style="fill:#927d83; stroke:none;" d="M278 107L279 108L278 107z"/>
<path style="fill:#394481; stroke:none;" d="M351 107L352 108L351 107z"/>
<path style="fill:#927d83; stroke:none;" d="M551 107L552 108L551 107M280 108L281 109L280 108M321 108L322 109L321 108M353 108L354 109L353 108M469.333 108.667L469.667 109.333L469.333 108.667M473 108L474 109L473 108z"/>
<path style="fill:#394481; stroke:none;" d="M551 108L552 109L551 108M554.333 108.667L554.667 109.333L554.333 108.667M282 109L283 110L282 109M320 109L321 110L320 109z"/>
<path style="fill:#927d83; stroke:none;" d="M354 109L355 110L354 109M550 109L551 110L550 109z"/>
<path style="fill:#f7f7f8; stroke:none;" d="M102.005 110.758C92.6079 112.295 95.2715 126.407 104.985 124.767C114.405 123.177 111.146 109.262 102.005 110.758z"/>
<path style="fill:#927d83; stroke:none;" d="M284 110L285 111L284 110z"/>
<path style="fill:#394481; stroke:none;" d="M319 110L320 111L319 110M355 110L356 111L355 110M469.333 110.667L469.667 111.333L469.333 110.667z"/>
<path style="fill:#927d83; stroke:none;" d="M474 110L475 111L474 110z"/>
<path style="fill:#394481; stroke:none;" d="M550 110L551 111L550 110M285 111L286 112L285 111M318 111L319 112L318 111M356 111L357 112L356 111z"/>
<path style="fill:#927d83; stroke:none;" d="M549 111L550 112L549 111M287 112L288 113L287 112M317 112L318 113L317 112z"/>
<path style="fill:#394481; stroke:none;" d="M357 112L358 113L357 112z"/>
<path style="fill:#927d83; stroke:none;" d="M475 112L476 113L475 112z"/>
<path style="fill:#394481; stroke:none;" d="M336.667 113.333L337.333 113.667L336.667 113.333M358 113L359 114L358 113z"/>
<path style="fill:#927d83; stroke:none;" d="M555.333 113.667L555.667 114.333L555.333 113.667M289 114L290 115L289 114z"/>
<path style="fill:#394481; stroke:none;" d="M316 114L317 115L316 114M331 114L332 115L331 114z"/>
<path style="fill:#927d83; stroke:none;" d="M332 114L333 115L332 114z"/>
<path style="fill:#394481; stroke:none;" d="M342 114L343 115L342 114M359 114L360 115L359 114z"/>
<path style="fill:#927d83; stroke:none;" d="M443 114L444 115L443 114M476 114L477 115L476 114z"/>
<path style="fill:#394481; stroke:none;" d="M548 114L549 115L548 114z"/>
<path style="fill:#927d83; stroke:none;" d="M243 115L243 116L263 116L243 115z"/>
<path style="fill:#394481; stroke:none;" d="M263 115L264 116L263 115z"/>
<path style="fill:#927d83; stroke:none;" d="M264.667 115.333L265.333 115.667L264.667 115.333z"/>
<path style="fill:#394481; stroke:none;" d="M266 115L266 116L269 116L266 115z"/>
<path style="fill:#927d83; stroke:none;" d="M315 115L316 116L315 115z"/>
<path style="fill:#394481; stroke:none;" d="M329 115L330 116L329 115z"/>
<path style="fill:#927d83; stroke:none;" d="M344 115L345 116L344 115M360 115L361 116L360 115M396 115L396 116L443 116C430.823 110.89 409.265 115 396 115M468.333 115.667L468.667 116.333L468.333 115.667z"/>
<path style="fill:#394481; stroke:none;" d="M555.333 115.667L555.667 116.333L555.333 115.667z"/>
<path style="fill:#f7f7f8; stroke:none;" d="M243 116C243 123.009 239.642 141.859 244.028 147.397C246.468 150.478 254.524 149 258 149C265.601 149 274.958 149.693 280.775 143.786C292.255 132.131 280.813 116.358 267 116.015C259.01 115.816 250.993 116 243 116z"/>
<path style="fill:#927d83; stroke:none;" d="M272 116L273 117L272 116z"/>
<path style="fill:#394481; stroke:none;" d="M273 116L274 117L273 116z"/>
<path style="fill:#927d83; stroke:none;" d="M328 116L329 117L328 116z"/>
<path style="fill:#394481; stroke:none;" d="M346 116L347 117L346 116z"/>
<path style="fill:#927d83; stroke:none;" d="M477 116L478 117L477 116z"/>
<path style="fill:#394481; stroke:none;" d="M547 116L548 117L547 116M276 117L277 118L276 117M291 117L292 118L291 117z"/>
<path style="fill:#927d83; stroke:none;" d="M347 117L348 118L347 117z"/>
<path style="fill:#394481; stroke:none;" d="M468.333 117.667L468.667 118.333L468.333 117.667z"/>
<path style="fill:#927d83; stroke:none;" d="M546 117L547 118L546 117z"/>
<path style="fill:#394481; stroke:none;" d="M278 118L279 119L278 118z"/>
<path style="fill:#927d83; stroke:none;" d="M292 118L293 119L292 118z"/>
<path style="fill:#394481; stroke:none;" d="M314 118L315 119L314 118z"/>
<path style="fill:#927d83; stroke:none;" d="M478 118L479 119L478 118z"/>
<path style="fill:#394481; stroke:none;" d="M546 118L547 119L546 118z"/>
<path style="fill:#927d83; stroke:none;" d="M279 119L280 120L279 119M325 119L326 120L325 119M363 119L364 120L363 119M280 120L281 121L280 120M293 120L294 121L293 120z"/>
<path style="fill:#394481; stroke:none;" d="M324 120L325 121L324 120z"/>
<path style="fill:#927d83; stroke:none;" d="M362 120L363 121L362 120M479 120L480 121L479 120z"/>
<path style="fill:#394481; stroke:none;" d="M545 120L546 121L545 120z"/>
<path style="fill:#927d83; stroke:none;" d="M556.333 120.667L556.667 121.333L556.333 120.667M281 121L282 122L281 121M313 121L314 122L313 121M351 121L352 122L351 121z"/>
<path style="fill:#394481; stroke:none;" d="M282 122L283 123L282 122M313 122L314 123L313 122z"/>
<path style="fill:#927d83; stroke:none;" d="M352 122L353 123L352 122z"/>
<path style="fill:#394481; stroke:none;" d="M359 122L360 123L359 122z"/>
<path style="fill:#927d83; stroke:none;" d="M467.333 122.667L467.667 123.333L467.333 122.667z"/>
<path style="fill:#394481; stroke:none;" d="M544 122L545 123L544 122M556 122L557 123L556 122M294.333 123.667L294.667 124.333L294.333 123.667M323 123L324 124L323 123z"/>
<path style="fill:#927d83; stroke:none;" d="M353 123L354 124L353 123M358 123L359 124L358 123z"/>
<path style="fill:#394481; stroke:none;" d="M480 123L481 124L480 123z"/>
<path style="fill:#927d83; stroke:none;" d="M283 124L284 125L283 124M323 124L323 129L324 129L323 124z"/>
<path style="fill:#394481; stroke:none;" d="M354 124L355 125L354 124M467.333 124.667L467.667 125.333L467.333 124.667z"/>
<path style="fill:#927d83; stroke:none;" d="M481 124L482 125L481 124z"/>
<path style="fill:#394481; stroke:none;" d="M543 124L544 125L543 124M355 125L356 126L355 125M481 125L482 126L481 125z"/>
<path style="fill:#927d83; stroke:none;" d="M284 126L285 127L284 126M295.333 126.667L295.667 127.333L295.333 126.667M482 126L483 127L482 126z"/>
<path style="fill:#394481; stroke:none;" d="M542 126L543 127L542 126z"/>
<path style="fill:#927d83; stroke:none;" d="M557.333 127.667L557.667 128.333L557.333 127.667z"/>
<path style="fill:#394481; stroke:none;" d="M295 128L296 129L295 128M541 128L542 129L541 128M285 129L286 130L285 129M323 129L324 130L323 129z"/>
<path style="fill:#927d83; stroke:none;" d="M466.333 129.667L466.667 130.333L466.333 129.667z"/>
<path style="fill:#394481; stroke:none;" d="M483 129L484 130L483 129M557 129L558 130L557 129z"/>
<path style="fill:#927d83; stroke:none;" d="M285 130L285 134L286 134L285 130z"/>
<path style="fill:#394481; stroke:none;" d="M313 130L314 131L313 130z"/>
<path style="fill:#927d83; stroke:none;" d="M484 130L485 131L484 130z"/>
<path style="fill:#394481; stroke:none;" d="M540 130L541 131L540 130z"/>
<path style="fill:#927d83; stroke:none;" d="M313 131L314 132L313 131M324 131L325 132L324 131z"/>
<path style="fill:#394481; stroke:none;" d="M466.333 131.667L466.667 132.333L466.333 131.667M324 132L325 133L324 132z"/>
<path style="fill:#927d83; stroke:none;" d="M485 132L486 133L485 132z"/>
<path style="fill:#394481; stroke:none;" d="M539 132L540 133L539 132M285 134L286 135L285 134M314 134L315 135L314 134z"/>
<path style="fill:#927d83; stroke:none;" d="M475 134L476 135L475 134z"/>
<path style="fill:#394481; stroke:none;" d="M538 134L539 135L538 134z"/>
<path style="fill:#927d83; stroke:none;" d="M558.333 134.667L558.667 135.333L558.333 134.667z"/>
<path style="fill:#394481; stroke:none;" d="M295 135L296 136L295 135M326 135L327 136L326 135M476 135L477 136L476 135M486 135L487 136L486 135z"/>
<path style="fill:#927d83; stroke:none;" d="M295.333 136.667L295.667 137.333L295.333 136.667M327 136L328 137L327 136M465.333 136.667L465.667 137.333L465.333 136.667M487 136L488 137L487 136z"/>
<path style="fill:#394481; stroke:none;" d="M537 136L538 137L537 136M547 136L548 137L547 136M558.333 136.667L558.667 137.333L558.333 136.667z"/>
<path style="fill:#927d83; stroke:none;" d="M284 137L285 138L284 137M315 137L316 138L315 137z"/>
<path style="fill:#394481; stroke:none;" d="M477 137L478 138L477 137M487 137L488 138L487 137M549.333 137.667L549.667 138.333L549.333 137.667M284 138L285 139L284 138M465.333 138.667L465.667 139.333L465.333 138.667M474.333 138.667L474.667 139.333L474.333 138.667z"/>
<path style="fill:#927d83; stroke:none;" d="M488 138L489 139L488 138M536 138L537 139L536 138z"/>
<path style="fill:#394481; stroke:none;" d="M546 138L547 139L546 138M478 139L479 140L478 139z"/>
<path style="fill:#927d83; stroke:none;" d="M549.333 139.667L549.667 140.333L549.333 139.667z"/>
<path style="fill:#394481; stroke:none;" d="M283 140L284 141L283 140M294 140L295 141L294 140M317 140L318 141L317 140z"/>
<path style="fill:#927d83; stroke:none;" d="M331 140L332 141L331 140M474.333 140.667L474.667 141.333L474.333 140.667M535 140L536 141L535 140M294 141L295 142L294 141z"/>
<path style="fill:#394481; stroke:none;" d="M332 141L333 142L332 141M479 141L480 142L479 141M489 141L490 142L489 141z"/>
<path style="fill:#927d83; stroke:none;" d="M559.333 141.667L559.667 142.333L559.333 141.667z"/>
<path style="fill:#394481; stroke:none;" d="M534 142L535 143L534 142M544 142L545 143L544 142M281 143L282 144L281 143M293 143L294 144L293 143z"/>
<path style="fill:#927d83; stroke:none;" d="M319 143L320 144L319 143M335 143L336 144L335 143M464.333 143.667L464.667 144.333L464.333 143.667z"/>
<path style="fill:#394481; stroke:none;" d="M480 143L481 144L480 143M490 143L491 144L490 143M559 143L560 144L559 143z"/>
<path style="fill:#927d83; stroke:none;" d="M320 144L321 145L320 144M336 144L337 145L336 144M533 144L534 145L533 144z"/>
<path style="fill:#394481; stroke:none;" d="M543 144L544 145L543 144M550.333 144.667L550.667 145.333L550.333 144.667M292 145L293 146L292 145z"/>
<path style="fill:#927d83; stroke:none;" d="M321 145L322 146L321 145z"/>
<path style="fill:#394481; stroke:none;" d="M337 145L338 146L337 145M464.333 145.667L464.667 146.333L464.333 145.667M481 145L482 146L481 145z"/>
<path style="fill:#927d83; stroke:none;" d="M277 146L278 147L277 146M322 146L323 147L322 146M339 146L340 147L339 146M396 146L396 147L443 147C430.823 141.89 409.265 146 396 146z"/>
<path style="fill:#394481; stroke:none;" d="M473 146L474 147L473 146z"/>
<path style="fill:#927d83; stroke:none;" d="M532 146L533 147L532 146M550.333 146.667L550.667 147.333L550.333 146.667M275 147L276 148L275 147M291 147L292 148L291 147z"/>
<path style="fill:#394481; stroke:none;" d="M340 147L341 148L340 147z"/>
<path style="fill:#927d83; stroke:none;" d="M473.333 147.667L473.667 148.333L473.333 147.667z"/>
<path style="fill:#394481; stroke:none;" d="M482 147L483 148L482 147M492 147L493 148L492 147z"/>
<path style="fill:#927d83; stroke:none;" d="M542 147L543 148L542 147M243 148L244 149L243 148M270.667 148.333L271.333 148.667L270.667 148.333z"/>
<path style="fill:#394481; stroke:none;" d="M272 148L273 149L272 148M290 148L291 149L290 148M325 148L326 149L325 148z"/>
<path style="fill:#927d83; stroke:none;" d="M531 148L532 149L531 148M560.333 148.667L560.667 149.333L560.333 148.667M40 149L40 185L86 166L103.576 159.244L123 167.14L167 186L167 149L40 149z"/>
<path style="fill:#394481; stroke:none;" d="M244 149L244 150L267 150L244 149M326 149L327 150L326 149z"/>
<path style="fill:#927d83; stroke:none;" d="M343 149L344 150L343 149z"/>
<path style="fill:#394481; stroke:none;" d="M483 149L484 150L483 149M493 149L494 150L493 149z"/>
<path style="fill:#927d83; stroke:none;" d="M541 149L542 150L541 149M327 150L328 151L327 150z"/>
<path style="fill:#394481; stroke:none;" d="M344 150L345 151L344 150z"/>
<path style="fill:#927d83; stroke:none;" d="M463.333 150.667L463.667 151.333L463.333 150.667M530 150L531 151L530 150z"/>
<path style="fill:#394481; stroke:none;" d="M540 150L541 151L540 150M560 150L561 151L560 150z"/>
<path style="fill:#927d83; stroke:none;" d="M328 151L329 152L328 151z"/>
<path style="fill:#394481; stroke:none;" d="M484 151L485 152L484 151M494 151L495 152L494 151M551.333 151.667L551.667 152.333L551.333 151.667M286 152L287 153L286 152z"/>
<path style="fill:#927d83; stroke:none;" d="M347 152L348 153L347 152z"/>
<path style="fill:#394481; stroke:none;" d="M463.333 152.667L463.667 153.333L463.333 152.667z"/>
<path style="fill:#927d83; stroke:none;" d="M529 152L530 153L529 152M285 153L286 154L285 153z"/>
<path style="fill:#394481; stroke:none;" d="M331 153L332 154L331 153z"/>
<path style="fill:#927d83; stroke:none;" d="M348 153L349 154L348 153z"/>
<path style="fill:#394481; stroke:none;" d="M472 153L473 154L472 153M485 153L486 154L485 153M495 153L496 154L495 153z"/>
<path style="fill:#927d83; stroke:none;" d="M539 153L540 154L539 153M551.333 153.667L551.667 154.333L551.333 153.667z"/>
<path style="fill:#394481; stroke:none;" d="M283 154L284 155L283 154z"/>
<path style="fill:#927d83; stroke:none;" d="M332 154L333 155L332 154z"/>
<path style="fill:#394481; stroke:none;" d="M349 154L350 155L349 154z"/>
<path style="fill:#927d83; stroke:none;" d="M472.333 154.667L472.667 155.333L472.333 154.667M528 154L529 155L528 154z"/>
<path style="fill:#394481; stroke:none;" d="M538 154L539 155L538 154M281 155L282 156L281 155z"/>
<path style="fill:#927d83; stroke:none;" d="M333 155L334 156L333 155z"/>
<path style="fill:#394481; stroke:none;" d="M350 155L351 156L350 155M496 155L497 156L496 155z"/>
<path style="fill:#927d83; stroke:none;" d="M538 155L539 156L538 155M561.333 155.667L561.667 156.333L561.333 155.667M279 156L280 157L279 156z"/>
<path style="fill:#394481; stroke:none;" d="M335 156L336 157L335 156z"/>
<path style="fill:#927d83; stroke:none;" d="M396 156L396 157L443 157C430.823 151.89 409.265 156 396 156M527 156L528 157L527 156z"/>
<path style="fill:#394481; stroke:none;" d="M275 157L276 158L275 157z"/>
<path style="fill:#927d83; stroke:none;" d="M276 157L277 158L276 157M336 157L337 158L336 157M462.333 157.667L462.667 158.333L462.333 157.667z"/>
<path style="fill:#394481; stroke:none;" d="M487 157L488 158L487 157M497 157L498 158L497 157z"/>
<path style="fill:#927d83; stroke:none;" d="M537 157L538 158L537 157z"/>
<path style="fill:#394481; stroke:none;" d="M561.333 157.667L561.667 158.333L561.333 157.667M269 158L270 159L269 158z"/>
<path style="fill:#927d83; stroke:none;" d="M270 158L270 159L273 159L270 158M337 158L338 159L337 158M526 158L527 159L526 158M243 159L244 160L243 159z"/>
<path style="fill:#394481; stroke:none;" d="M261 159L262 160L261 159M462.333 159.667L462.667 160.333L462.333 159.667M488 159L489 160L488 159M498 159L499 160L498 159z"/>
<path style="fill:#927d83; stroke:none;" d="M536 159L537 160L536 159z"/>
<path style="fill:#394481; stroke:none;" d="M552 159L553 160L552 159z"/>
<path style="fill:#927d83; stroke:none;" d="M262 160L263 161L262 160z"/>
<path style="fill:#394481; stroke:none;" d="M340 160L341 161L340 160M471.333 160.667L471.667 161.333L471.333 160.667z"/>
<path style="fill:#927d83; stroke:none;" d="M525 160L526 161L525 160M552.333 160.667L552.667 161.333L552.333 160.667M250 161L251 162L250 161M263 161L264 162L263 161z"/>
<path style="fill:#394481; stroke:none;" d="M341 161L342 162L341 161M499 161L500 162L499 161z"/>
<path style="fill:#927d83; stroke:none;" d="M535 161L536 162L535 161M251 162L252 163L251 162M342 162L343 163L342 162M471.333 162.667L471.667 163.333L471.333 162.667M489 162L490 163L489 162M524 162L525 163L524 162M562.333 162.667L562.667 163.333L562.333 162.667z"/>
<path style="fill:#394481; stroke:none;" d="M252 163L253 164L252 163z"/>
<path style="fill:#927d83; stroke:none;" d="M343 163L344 164L343 163z"/>
<path style="fill:#394481; stroke:none;" d="M358 163L359 164L358 163M500 163L501 164L500 163z"/>
<path style="fill:#927d83; stroke:none;" d="M534 163L535 164L534 163z"/>
<path style="fill:#394481; stroke:none;" d="M265 164L266 165L265 164z"/>
<path style="fill:#927d83; stroke:none;" d="M344 164L345 165L344 164M359 164L360 165L359 164M461.333 164.667L461.667 165.333L461.333 164.667M490 164L491 165L490 164M523 164L524 165L523 164z"/>
<path style="fill:#394481; stroke:none;" d="M562 164L563 165L562 164z"/>
<path style="fill:#927d83; stroke:none;" d="M266 165L267 166L266 165M345 165L346 166L345 165z"/>
<path style="fill:#394481; stroke:none;" d="M501 165L502 166L501 165z"/>
<path style="fill:#927d83; stroke:none;" d="M533 165L534 166L533 165M254 166L255 167L254 166M346 166L347 167L346 166z"/>
<path style="fill:#394481; stroke:none;" d="M360 166L361 167L360 166M461.333 166.667L461.667 167.333L461.333 166.667z"/>
<path style="fill:#927d83; stroke:none;" d="M522 166L523 167L522 166z"/>
<path style="fill:#394481; stroke:none;" d="M553 166L554 167L553 166M255 167L256 168L255 167z"/>
<path style="fill:#927d83; stroke:none;" d="M347 167L348 168L347 167M361 167L362 168L361 167z"/>
<path style="fill:#394481; stroke:none;" d="M502 167L503 168L502 167z"/>
<path style="fill:#927d83; stroke:none;" d="M532 167L533 168L532 167M553.333 167.667L553.667 168.333L553.333 167.667z"/>
<path style="fill:#394481; stroke:none;" d="M256 168L257 169L256 168M268 168L269 169L268 168z"/>
<path style="fill:#927d83; stroke:none;" d="M348 168L349 169L348 168z"/>
<path style="fill:#394481; stroke:none;" d="M470 168L471 169L470 168z"/>
<path style="fill:#927d83; stroke:none;" d="M492 168L493 169L492 168M521 168L522 169L521 168M269 169L270 170L269 169M349 169L350 170L349 169M362 169L363 170L362 169M470 169L470 172L471 172L470 169z"/>
<path style="fill:#394481; stroke:none;" d="M503 169L504 170L503 169z"/>
<path style="fill:#927d83; stroke:none;" d="M531 169L532 170L531 169M563.333 169.667L563.667 170.333L563.333 169.667M493 170L494 171L493 170M520 170L521 171L520 170M258 171L259 172L258 171M363 171L364 172L363 171z"/>
<path style="fill:#394481; stroke:none;" d="M494 171L495 172L494 171M504 171L505 172L504 171z"/>
<path style="fill:#927d83; stroke:none;" d="M530 171L531 172L530 171z"/>
<path style="fill:#394481; stroke:none;" d="M563 171L564 172L563 171M259 172L260 173L259 172z"/>
<path style="fill:#927d83; stroke:none;" d="M351 172L352 173L351 172z"/>
<path style="fill:#394481; stroke:none;" d="M363 172L364 173L363 172z"/>
<path style="fill:#927d83; stroke:none;" d="M460 172L461 173L460 172M519 172L520 173L519 172z"/>
<path style="fill:#394481; stroke:none;" d="M554.333 172.667L554.667 173.333L554.333 172.667M272 173L273 174L272 173M460.333 173.667L460.667 174.333L460.333 173.667M505 173L506 174L505 173z"/>
<path style="fill:#927d83; stroke:none;" d="M529 173L530 174L529 173M273 174L274 175L273 174M364 174L365 175L364 174M495 174L496 175L495 174M518 174L519 175L518 174M554.333 174.667L554.667 175.333L554.333 174.667M261 175L262 176L261 175z"/>
<path style="fill:#394481; stroke:none;" d="M353 175L354 176L353 175M364 175L365 176L364 175M469 175L470 176L469 175M496 175L497 176L496 175M506 175L507 176L506 175z"/>
<path style="fill:#927d83; stroke:none;" d="M528 175L529 176L528 175z"/>
<path style="fill:#394481; stroke:none;" d="M262 176L263 177L262 176z"/>
<path style="fill:#927d83; stroke:none;" d="M353 176L354 177L353 176M469.333 176.667L469.667 177.333L469.333 176.667M496 176L497 177L496 176M517 176L518 177L517 176M564.333 176.667L564.667 177.333L564.333 176.667z"/>
<path style="fill:#394481; stroke:none;" d="M275 177L276 178L275 177z"/>
<path style="fill:#927d83; stroke:none;" d="M507 177L508 178L507 177z"/>
<path style="fill:#394481; stroke:none;" d="M517 177L518 178L517 177z"/>
<path style="fill:#927d83; stroke:none;" d="M527 177L528 178L527 177M276 178L277 179L276 178M459.333 178.667L459.667 179.333L459.333 178.667M497 178L498 179L497 178M516 178L517 179L516 178z"/>
<path style="fill:#394481; stroke:none;" d="M564.333 178.667L564.667 179.333L564.333 178.667z"/>
<path style="fill:#927d83; stroke:none;" d="M264 179L265 180L264 179z"/>
<path style="fill:#394481; stroke:none;" d="M508 179L509 180L508 179z"/>
<path style="fill:#927d83; stroke:none;" d="M526 179L527 180L526 179M265 180L266 181L265 180z"/>
<path style="fill:#394481; stroke:none;" d="M354.333 180.667L354.667 181.333L354.333 180.667M459.333 180.667L459.667 181.333L459.333 180.667z"/>
<path style="fill:#927d83; stroke:none;" d="M498 180L499 181L498 180z"/>
<path style="fill:#394481; stroke:none;" d="M555 180L556 181L555 180M266 181L267 182L266 181z"/>
<path style="fill:#927d83; stroke:none;" d="M314.667 181.333L315.333 181.667L314.667 181.333z"/>
<path style="fill:#394481; stroke:none;" d="M509 181L510 182L509 181M515 181L516 182L515 181z"/>
<path style="fill:#927d83; stroke:none;" d="M525 181L526 182L525 181M555 181L555 184L556 184L555 181M279 182L280 183L279 182z"/>
<path style="fill:#394481; stroke:none;" d="M313 182L314 183L313 182M468.333 182.667L468.667 183.333L468.333 182.667z"/>
<path style="fill:#927d83; stroke:none;" d="M499 182L500 183L499 182M514 182L515 183L514 182M280 183L281 184L280 183M311 183L312 184L311 183M316 183L317 184L316 183M510 183L511 184L510 183z"/>
<path style="fill:#394481; stroke:none;" d="M514 183L515 184L514 183z"/>
<path style="fill:#927d83; stroke:none;" d="M524 183L525 184L524 183M565.333 183.667L565.667 184.333L565.333 183.667M268 184L269 185L268 184M309 184L310 185L309 184M468.333 184.667L468.667 185.333L468.333 184.667M500 184L501 185L500 184M513 184L514 185L513 184M269 185L270 186L269 185z"/>
<path style="fill:#394481; stroke:none;" d="M308 185L309 186L308 185z"/>
<path style="fill:#927d83; stroke:none;" d="M353 185L354 186L353 185z"/>
<path style="fill:#394481; stroke:none;" d="M511 185L512 186L511 185M513 185L514 186L513 185z"/>
<path style="fill:#927d83; stroke:none;" d="M523 185L524 186L523 185z"/>
<path style="fill:#394481; stroke:none;" d="M565 185L566 186L565 185M282 186L283 187L282 186z"/>
<path style="fill:#927d83; stroke:none;" d="M318 186L319 187L318 186z"/>
<path style="fill:#394481; stroke:none;" d="M353 186L354 187L353 186M364 186L365 187L364 186z"/>
<path style="fill:#927d83; stroke:none;" d="M458 186L459 187L458 186M501 186L502 187L501 186M512 186L513 187L512 186M283 187L284 188L283 187z"/>
<path style="fill:#394481; stroke:none;" d="M307 187L308 188L307 187z"/>
<path style="fill:#927d83; stroke:none;" d="M364 187L365 188L364 187z"/>
<path style="fill:#394481; stroke:none;" d="M458.333 187.667L458.667 188.333L458.333 187.667z"/>
<path style="fill:#927d83; stroke:none;" d="M522 187L523 188L522 187z"/>
<path style="fill:#394481; stroke:none;" d="M556.333 187.667L556.667 188.333L556.333 187.667z"/>
<path style="fill:#927d83; stroke:none;" d="M271 188L272 189L271 188M284 188L285 189L284 188z"/>
<path style="fill:#394481; stroke:none;" d="M352 188L353 189L352 188z"/>
<path style="fill:#927d83; stroke:none;" d="M502 188L503 189L502 188M272 189L273 190L272 189M308 189L309 190L308 189z"/>
<path style="fill:#394481; stroke:none;" d="M320 189L321 190L320 189M363 189L364 190L363 189z"/>
<path style="fill:#927d83; stroke:none;" d="M521 189L522 190L521 189M556.333 189.667L556.667 190.333L556.333 189.667M566 189L566 192L567 192L566 189z"/>
<path style="fill:#394481; stroke:none;" d="M273 190L274 191L273 190M285 190L286 191L285 190M321 190L322 191L321 190z"/>
<path style="fill:#927d83; stroke:none;" d="M363 190L364 191L363 190z"/>
<path style="fill:#394481; stroke:none;" d="M467 190L468 191L467 190z"/>
<path style="fill:#927d83; stroke:none;" d="M503 190L504 191L503 190M286 191L287 192L286 191M309 191L310 192L309 191M322 191L323 192L322 191z"/>
<path style="fill:#394481; stroke:none;" d="M350 191L351 192L350 191z"/>
<path style="fill:#927d83; stroke:none;" d="M467 191L467 194L468 194L467 191M520 191L521 192L520 191M41 192L41 193L70 194L127 194L166 193C155.973 188.792 138.896 192 128 192L41 192M287 192L288 193L287 192z"/>
<path style="fill:#394481; stroke:none;" d="M310 192L311 193L310 192M323 192L324 193L323 192z"/>
<path style="fill:#927d83; stroke:none;" d="M349 192L350 193L349 192M362 192L363 193L362 192M504 192L505 193L504 192z"/>
<path style="fill:#394481; stroke:none;" d="M566 192L567 193L566 192z"/>
<path style="fill:#927d83; stroke:none;" d="M275 193L276 194L275 193z"/>
<path style="fill:#394481; stroke:none;" d="M324 193L325 194L324 193M348 193L349 194L348 193z"/>
<path style="fill:#927d83; stroke:none;" d="M457 193L458 194L457 193M519 193L520 194L519 193z"/>
<path style="fill:#394481; stroke:none;" d="M276 194L277 195L276 194z"/>
<path style="fill:#927d83; stroke:none;" d="M361 194L362 195L361 194z"/>
<path style="fill:#394481; stroke:none;" d="M457.333 194.667L457.667 195.333L457.333 194.667z"/>
<path style="fill:#927d83; stroke:none;" d="M505 194L506 195L505 194z"/>
<path style="fill:#394481; stroke:none;" d="M557.333 194.667L557.667 195.333L557.333 194.667M289 195L290 196L289 195z"/>
<path style="fill:#927d83; stroke:none;" d="M312 195L313 196L312 195M327 195L328 196L327 195z"/>
<path style="fill:#394481; stroke:none;" d="M345 195L346 196L345 195M360 195L361 196L360 195M396 195L396 196L442 196C430.061 190.99 409.003 195 396 195z"/>
<path style="fill:#927d83; stroke:none;" d="M442 195L443 196L442 195M518 195L519 196L518 195M290 196L291 197L290 196M313 196L314 197L313 196M329 196L330 197L329 196M342 196L343 197L342 196z"/>
<path style="fill:#394481; stroke:none;" d="M343 196L344 197L343 196z"/>
<path style="fill:#927d83; stroke:none;" d="M506 196L507 197L506 196M557.333 196.667L557.667 197.333L557.333 196.667z"/>
<path style="fill:#394481; stroke:none;" d="M314 197L315 198L314 197z"/>
<path style="fill:#927d83; stroke:none;" d="M332.667 197.333L333.333 197.667L332.667 197.333M338.667 197.333L339.333 197.667L338.667 197.333z"/>
<path style="fill:#394481; stroke:none;" d="M340 197L341 198L340 197M466 197L467 198L466 197M517 197L518 198L517 197z"/>
<path style="fill:#927d83; stroke:none;" d="M567.333 197.667L567.667 198.333L567.333 197.667M279 198L280 199L279 198z"/>
<path style="fill:#394481; stroke:none;" d="M315 198L316 199L315 198z"/>
<path style="fill:#927d83; stroke:none;" d="M466 198L466 201L467 201L466 198M507 198L508 199L507 198z"/>
<path style="fill:#394481; stroke:none;" d="M280 199L281 200L280 199M292 199L293 200L292 199M316 199L317 200L316 199z"/>
<path style="fill:#927d83; stroke:none;" d="M456.333 199.667L456.667 200.333L456.333 199.667M516 199L517 200L516 199z"/>
<path style="fill:#394481; stroke:none;" d="M567.333 199.667L567.667 200.333L567.333 199.667M293 200L294 201L293 200M317 200L318 201L317 200z"/>
<path style="fill:#927d83; stroke:none;" d="M508 200L509 201L508 200M294 201L295 202L294 201M318 201L319 202L318 201z"/>
<path style="fill:#394481; stroke:none;" d="M456.333 201.667L456.667 202.333L456.333 201.667M515 201L516 202L515 201z"/>
<path style="fill:#927d83; stroke:none;" d="M43 202L43 205L164 205L164 202L43 202M282 202L283 203L282 202z"/>
<path style="fill:#394481; stroke:none;" d="M353 202L354 203L353 202z"/>
<path style="fill:#927d83; stroke:none;" d="M509 202L510 203L509 202z"/>
<path style="fill:#394481; stroke:none;" d="M558 202L559 203L558 202M283 203L284 204L283 203z"/>
<path style="fill:#927d83; stroke:none;" d="M321 203L322 204L321 203M352 203L353 204L352 203z"/>
<path style="fill:#394481; stroke:none;" d="M514 203L515 204L514 203z"/>
<path style="fill:#927d83; stroke:none;" d="M558.333 203.667L558.667 204.333L558.333 203.667M243 204L244 205L243 204z"/>
<path style="fill:#394481; stroke:none;" d="M323 204L324 205L323 204z"/>
<path style="fill:#927d83; stroke:none;" d="M350 204L351 205L350 204z"/>
<path style="fill:#394481; stroke:none;" d="M465 204L466 205L465 204z"/>
<path style="fill:#927d83; stroke:none;" d="M510 204L511 205L510 204M568 204L569 205L568 204M325 205L326 206L325 205z"/>
<path style="fill:#394481; stroke:none;" d="M347 205L348 206L347 205z"/>
<path style="fill:#927d83; stroke:none;" d="M348 205L349 206L348 205M43 206L43 207L57 207L43 206M149 207L149 208L164 208C159.948 204.93 153.7 205.611 149 207M328 206L329 207L328 206M345 206L346 207L345 206z"/>
<path style="fill:#394481; stroke:none;" d="M43 207L44 215L55 216L55 215L52 215L52 214L56 214L55 208L43 207z"/>
<path style="fill:#06070b; stroke:none;" d="M44 207L44 208C48.1924 208 52.5205 207.175 55 211L56 211L56 207L44 207z"/>
<path style="fill:#394481; stroke:none;" d="M56 207L57 208L56 207z"/>
<path style="fill:#927d83; stroke:none;" d="M75 207L77 216C84.738 215.999 88.3009 215.473 89 207L75 207M117 207C119.663 217.766 129.396 219.34 131 207L117 207z"/>
<path style="fill:#d70a1e; stroke:none;" d="M150 207C150.397 215.537 154.364 215.999 162 216L163 207L150 207z"/>
<path style="fill:#927d83; stroke:none;" d="M332.667 207.333L333.333 207.667L332.667 207.333z"/>
<path style="fill:#394481; stroke:none;" d="M334 207L334 208L337 208L334 207z"/>
<path style="fill:#927d83; stroke:none;" d="M337 207L338 208L337 207z"/>
<path style="fill:#394481; stroke:none;" d="M338.667 207.333L339.333 207.667L338.667 207.333z"/>
<path style="fill:#927d83; stroke:none;" d="M340.667 207.333L341.333 207.667L340.667 207.333M56.3333 208.667L56.6667 209.333L56.3333 208.667M43.3333 209.667L43.6667 210.333L43.3333 209.667z"/>
<path style="fill:#06070b; stroke:none;" d="M44 209L44 213L45 213L44 209z"/>
<path style="fill:#927d83; stroke:none;" d="M162 211L162 214L163 214L162 211M150.333 212.667L150.667 213.333L150.333 212.667z"/>
<path style="fill:#06070b; stroke:none;" d="M54 213L52 214L52 215L54 213M45.6667 214.333L46.3333 214.667L45.6667 214.333M48 214L49 215L48 214z"/>
<path style="fill:#927d83; stroke:none;" d="M55.3333 214.667L55.6667 215.333L55.3333 214.667M44 215L45 216L44 215M151 215L152 216L151 215M44 217L44 297L45 297L45 242L44 217z"/>
<path style="fill:#06070b; stroke:none;" d="M45 217L45 220L46 220L47 217L45 217z"/>
<path style="fill:#394481; stroke:none;" d="M47 217C44.1847 223.443 46 232.01 46 239C46 257.308 49.2428 279.179 45 297L55 297C48.9322 271.514 60.4028 242.045 53 217L47 217z"/>
<path style="fill:#06070b; stroke:none;" d="M48 217L48 218L52 218L48 217M53 217C58.72 241.026 54 271.287 54 296L55 296L55 238C55 232.627 57.2365 220.702 53 217z"/>
<path style="fill:#927d83; stroke:none;" d="M55 217L55 221L56 221L55 217M77 217L77 297L88 297L88 217L77 217M119 217L119 297L129 297L129 217L119 217z"/>
<path style="fill:#394481; stroke:none;" d="M151 217L152 218L151 217z"/>
<path style="fill:#d70a1e; stroke:none;" d="M162 297L162 217L151.603 219.318L151 236L151 276L151.603 294.682L162 297z"/>
<path style="fill:#06070b; stroke:none;" d="M45.3333 221.667L45.6667 222.333L45.3333 221.667z"/>
<path style="fill:#927d83; stroke:none;" d="M55 222L56 223L55 222z"/>
<path style="fill:#06070b; stroke:none;" d="M45 224L45 296L46 296L46 247L45 224z"/>
<path style="fill:#927d83; stroke:none;" d="M55 224L55 291L56 291L56 245L55 224z"/>
<path style="fill:#394481; stroke:none;" d="M500.667 234.333L501.333 234.667L500.667 234.333z"/>
<path style="fill:#927d83; stroke:none;" d="M499 235L498 237L499 235z"/>
<path style="fill:#06070b; stroke:none;" d="M500 235L501 236L500 235M499 236L500 237L499 236z"/>
<path style="fill:#927d83; stroke:none;" d="M201 238L201 254L202 254L201 238M222 238L222 239L225 239L222 238M230 238L231 239L230 238M232 238L233 239L232 238M234 238L234 239L238 240L238 239L234 238M240 238L241 239L240 238M243 238L244 239L243 238M245 238L245 239L248 239L245 238M249 238L250 239L249 238M262 238L261 250L262 250L262 238M266.667 238.333L267.333 238.667L266.667 238.333M269 238L269 239L273 239L269 238M282 238L282 239L285 239L282 238M297 238L297 239L304 239L297 238M314 238L314 254L315 254L314 238M316.667 238.333L317.333 238.667L316.667 238.333M327 238L327 239L332 239L327 238M333 238L335 240L333 238M342.667 238.333L343.333 238.667L342.667 238.333z"/>
<path style="fill:#394481; stroke:none;" d="M343 240L346 240L345 238L343 240z"/>
<path style="fill:#927d83; stroke:none;" d="M345.667 238.333L346.333 238.667L345.667 238.333M354 238L355 245L356 245L354 238M363 238L363 254L364 254C365.439 249.133 366.18 242.197 363 238M369 238L369 239L377 240L369 238M381 238L381 239L384 239L381 238M397.667 238.333L398.333 238.667L397.667 238.333z"/>
<path style="fill:#394481; stroke:none;" d="M398 240L401 240L400 238L398 240z"/>
<path style="fill:#927d83; stroke:none;" d="M400.667 238.333L401.333 238.667L400.667 238.333M409 238L409 254L410 254L409 238M418 238L417 245L418 245L418 238M423 238L423 239L426 239L423 238M428 238L428 239L431 239L428 238M441 238L442 239L441 238z"/>
<path style="fill:#394481; stroke:none;" d="M442 238L442 240L444 240L442 238z"/>
<path style="fill:#927d83; stroke:none;" d="M443 238L444 239L443 238M449 238L449 239L452 239L449 238M453 238L453 239L457 240L457 239L453 238M459 238L459 239L464 239L459 238M485 238L485 239L491 239L485 238M492 238L493 239L492 238M497 238L498 239L497 238M500 238L501 239L500 238M502 238L503 239L502 238M511.667 238.333L512.333 238.667L511.667 238.333z"/>
<path style="fill:#394481; stroke:none;" d="M512 240L515 240L514 238L512 240z"/>
<path style="fill:#927d83; stroke:none;" d="M514.667 238.333L515.333 238.667L514.667 238.333M534 238L534 239L538 239L534 238M556 238L555 250L556 250L556 238M561 238L561 239L567 239L561 238z"/>
<path style="fill:#06070b; stroke:none;" d="M201 239L201 243L202 243L201 239z"/>
<path style="fill:#394481; stroke:none;" d="M205 239L205 253L207 253L206 243L211 245L205 239z"/>
<path style="fill:#927d83; stroke:none;" d="M215 239L215 249L216 249L215 239z"/>
<path style="fill:#394481; stroke:none;" d="M216 239L216 249L212 248L217 253L216 239M221 239L220 241L222 241L221 239z"/>
<path style="fill:#06070b; stroke:none;" d="M222 239L223 240L222 239z"/>
<path style="fill:#394481; stroke:none;" d="M223 239L224 240L223 239z"/>
<path style="fill:#06070b; stroke:none;" d="M224 239L224 240L227 241L224 239z"/>
<path style="fill:#927d83; stroke:none;" d="M226 239L227 240L226 239z"/>
<path style="fill:#394481; stroke:none;" d="M229 239L230 240L229 239z"/>
<path style="fill:#06070b; stroke:none;" d="M230 239L230 240L233 240L233 253L234 253C234 248.43 232.776 242.739 237 240L230 239M240 239L240 253L241 253L240 239M243 239L243 240L250 240L243 239z"/>
<path style="fill:#394481; stroke:none;" d="M250 239L251 240L250 239M253 239L253 250L255 250L255 239L253 239z"/>
<path style="fill:#06070b; stroke:none;" d="M262 239L262 248L263 248L262 239z"/>
<path style="fill:#394481; stroke:none;" d="M265 239L266 240L265 239z"/>
<path style="fill:#06070b; stroke:none;" d="M266 239L266 240L269 240L269 253L270 253C270 248.43 268.776 242.739 273 240L266 239z"/>
<path style="fill:#394481; stroke:none;" d="M281 239L281 253L282 253C283.338 248.474 283.955 242.9 281 239z"/>
<path style="fill:#06070b; stroke:none;" d="M282 239L282 240L288 240L282 239z"/>
<path style="fill:#394481; stroke:none;" d="M288 239L289 240L288 239z"/>
<path style="fill:#927d83; stroke:none;" d="M289 239L287 240L287 241L289 239z"/>
<path style="fill:#06070b; stroke:none;" d="M297 239L297 253L305 253L305 252L298 252L298 246L305 246L305 245L298 245L298 240L305 240L297 239M314 239L314 253L315 253L315 240L320 240L314 239z"/>
<path style="fill:#394481; stroke:none;" d="M320 239L321 244C323.414 242.236 321.965 240.723 320 239z"/>
<path style="fill:#927d83; stroke:none;" d="M321 239L322 240L321 239z"/>
<path style="fill:#394481; stroke:none;" d="M326 239L326 253L327 253L326 239z"/>
<path style="fill:#06070b; stroke:none;" d="M327 239L327 240L334 240L327 239z"/>
<path style="fill:#927d83; stroke:none;" d="M340 239L342 241L340 239z"/>
<path style="fill:#06070b; stroke:none;" d="M341.667 239.333L342.333 239.667L341.667 239.333M346 239L346 240L349 241L346 239z"/>
<path style="fill:#394481; stroke:none;" d="M348 239L349 240L348 239z"/>
<path style="fill:#06070b; stroke:none;" d="M354 239L354 253L355 253L354 239M363 239L363 253L364 253L363 239z"/>
<path style="fill:#394481; stroke:none;" d="M368 239L368 253L369 253L368 239z"/>
<path style="fill:#06070b; stroke:none;" d="M369 239L369 240L376 240L369 239z"/>
<path style="fill:#394481; stroke:none;" d="M379 239L379 253L381 253L381 247L385 249L385 248L385 245L381 245L379 239z"/>
<path style="fill:#06070b; stroke:none;" d="M380 239L380 240L386 240L380 239z"/>
<path style="fill:#394481; stroke:none;" d="M386.333 239.667L386.667 240.333L386.333 239.667M395.333 239.667L395.667 240.333L395.333 239.667z"/>
<path style="fill:#06070b; stroke:none;" d="M396.667 239.333L397.333 239.667L396.667 239.333M401 239L402 240L401 239z"/>
<path style="fill:#394481; stroke:none;" d="M402.333 239.667L402.667 240.333L402.333 239.667z"/>
<path style="fill:#927d83; stroke:none;" d="M403 239L404 240L403 239z"/>
<path style="fill:#06070b; stroke:none;" d="M409 239L409 249L410 249L412 246L412 245L409 239M418 239L418 244L419 244L418 239M423 239L423 253L431 253L431 252L424 252L424 246L431 246L431 245L424 245L424 240L431 240L423 239z"/>
<path style="fill:#394481; stroke:none;" d="M440 239L439 241L441 241L440 239z"/>
<path style="fill:#06070b; stroke:none;" d="M441 239L442 240L441 239M444 239L446 241L444 239z"/>
<path style="fill:#927d83; stroke:none;" d="M445 239L446 240L445 239z"/>
<path style="fill:#394481; stroke:none;" d="M448 239L449 240L448 239z"/>
<path style="fill:#06070b; stroke:none;" d="M449 239L449 240L452 240L452 253L453 253C453 248.43 451.776 242.739 456 240L449 239M459 239L459 253L460 253L460 240L465 240L459 239z"/>
<path style="fill:#394481; stroke:none;" d="M465 239L466 240L465 239z"/>
<path style="fill:#927d83; stroke:none;" d="M466 239L465 240L465 241L466 242L467 242L468 241L468 240L466 239z"/>
<path style="fill:#394481; stroke:none;" d="M477 239L476 241L477 239z"/>
<path style="fill:#06070b; stroke:none;" d="M485 239L485 240L493 240L485 239z"/>
<path style="fill:#394481; stroke:none;" d="M495 239L495 253L496 253C497.275 248.617 497.851 242.758 495 239z"/>
<path style="fill:#06070b; stroke:none;" d="M496 239L496 240L503 240L496 239z"/>
<path style="fill:#394481; stroke:none;" d="M503 239L504 240L503 239z"/>
<path style="fill:#927d83; stroke:none;" d="M509 239L510 240L509 239z"/>
<path style="fill:#394481; stroke:none;" d="M510.333 239.667L510.667 240.333L510.333 239.667z"/>
<path style="fill:#06070b; stroke:none;" d="M511 239L512 240L511 239M515.667 239.333L516.333 239.667L515.667 239.333z"/>
<path style="fill:#394481; stroke:none;" d="M517.333 239.667L517.667 240.333L517.333 239.667z"/>
<path style="fill:#927d83; stroke:none;" d="M524 239L524 253L525 253L524 239z"/>
<path style="fill:#394481; stroke:none;" d="M525 239L525 253L526 253L525 239M532 239L533 240L532 239z"/>
<path style="fill:#06070b; stroke:none;" d="M529 245L530 245L535 240C531.453 239.51 530.115 241.895 529 245z"/>
<path style="fill:#394481; stroke:none;" d="M535 239L535 240L538 240L535 239z"/>
<path style="fill:#06070b; stroke:none;" d="M538 239L539 240L538 239z"/>
<path style="fill:#394481; stroke:none;" d="M539.333 239.667L539.667 240.333L539.333 239.667z"/>
<path style="fill:#927d83; stroke:none;" d="M540 239L541 243L542 243L543 242L543 241L540 239z"/>
<path style="fill:#394481; stroke:none;" d="M547 239L547 250L549 250L549 239L547 239z"/>
<path style="fill:#06070b; stroke:none;" d="M556 239L556 249L557 249L556 239M561 239L561 253L569 253L569 252L562 252L562 246L569 246L569 245L562 245L562 240L569 240L561 239M206.333 240.667L206.667 241.333L206.333 240.667z"/>
<path style="fill:#927d83; stroke:none;" d="M225 240L226 241L225 240M227 240L228 241L227 240M232.333 240.667L232.667 241.333L232.333 240.667z"/>
<path style="fill:#394481; stroke:none;" d="M246 240L247 253L248 253L248 240L246 240z"/>
<path style="fill:#927d83; stroke:none;" d="M268 240L268 253L269 253L268 240z"/>
<path style="fill:#f7f7f8; stroke:none;" d="M283 240L283 252C293.883 251.404 293.594 240.964 283 240z"/>
<path style="fill:#06070b; stroke:none;" d="M289 240L289 241L292 242L289 240z"/>
<path style="fill:#927d83; stroke:none;" d="M291 240L292 241L291 240z"/>
<path style="fill:#f7f7f8; stroke:none;" d="M315 240L315 245C321.127 244.523 321.127 240.477 315 240z"/>
<path style="fill:#06070b; stroke:none;" d="M321 240L322 241L321 240z"/>
<path style="fill:#927d83; stroke:none;" d="M327 240L327 244L328 244L327 240z"/>
<path style="fill:#394481; stroke:none;" d="M339 240L338 242L340 242L339 240z"/>
<path style="fill:#06070b; stroke:none;" d="M340 240L341 241L340 240z"/>
<path style="fill:#927d83; stroke:none;" d="M347 240L348 241L347 240z"/>
<path style="fill:#394481; stroke:none;" d="M349 240L349 242L351 242L349 240z"/>
<path style="fill:#927d83; stroke:none;" d="M369 240L369 244L370 244L369 240z"/>
<path style="fill:#f7f7f8; stroke:none;" d="M381 240L381 245C384.41 244.737 385.901 244.321 387 241L381 240z"/>
<path style="fill:#927d83; stroke:none;" d="M385 240L386 241L385 240z"/>
<path style="fill:#06070b; stroke:none;" d="M387.333 240.667L387.667 241.333L387.333 240.667z"/>
<path style="fill:#927d83; stroke:none;" d="M392 241L392 242L395 242L392 241z"/>
<path style="fill:#06070b; stroke:none;" d="M394 240L395 241L394 240z"/>
<path style="fill:#927d83; stroke:none;" d="M396 240L397 241L396 240z"/>
<path style="fill:#06070b; stroke:none;" d="M403 240L405 242L403 240z"/>
<path style="fill:#394481; stroke:none;" d="M404 240L405 241L404 240z"/>
<path style="fill:#927d83; stroke:none;" d="M444 240L445 241L444 240M446 240L447 241L446 240M451 240L452 241L451 240z"/>
<path style="fill:#f7f7f8; stroke:none;" d="M460 240L460 245L467 243L460 240z"/>
<path style="fill:#06070b; stroke:none;" d="M466 240L467 241L466 240M477 240L476 241L479 243L477 240z"/>
<path style="fill:#394481; stroke:none;" d="M488 240L488 253L490 253L490 240L488 240M508 240L507 242L508 240z"/>
<path style="fill:#06070b; stroke:none;" d="M509 240L507 243L509 240z"/>
<path style="fill:#927d83; stroke:none;" d="M516 240L517 241L516 240z"/>
<path style="fill:#06070b; stroke:none;" d="M518 240L520 242L518 240z"/>
<path style="fill:#927d83; stroke:none;" d="M519 240L520 241L519 240M533 240L534 241L533 240z"/>
<path style="fill:#f7f7f8; stroke:none;" d="M539 252L536 247L541 250C546.096 232.043 521.204 245.522 534.084 251.258C535.643 251.952 537.341 251.909 539 252z"/>
<path style="fill:#06070b; stroke:none;" d="M540 240L541 241L540 240M220 241L221 242L220 241z"/>
<path style="fill:#927d83; stroke:none;" d="M221 241C220.928 243.923 221.108 244.687 224 245L224 244L221 244L221 241M226 241L227 242L226 241M247.333 241.667L247.667 242.333L247.333 241.667z"/>
<path style="fill:#394481; stroke:none;" d="M290 241L291 242L290 241z"/>
<path style="fill:#927d83; stroke:none;" d="M388 241L388 244L389 244L388 241z"/>
<path style="fill:#06070b; stroke:none;" d="M393 241L394 242L393 241z"/>
<path style="fill:#927d83; stroke:none;" d="M403 241L404 242L403 241M405 241L406 242L405 241z"/>
<path style="fill:#06070b; stroke:none;" d="M439 241L440 242L439 241z"/>
<path style="fill:#927d83; stroke:none;" d="M440 241C439.928 243.923 440.108 244.687 443 245L443 244L440 244L440 241M445 241L446 242L445 241z"/>
<path style="fill:#06070b; stroke:none;" d="M467 241L465 246L467 241z"/>
<path style="fill:#394481; stroke:none;" d="M478 241L479 242L478 241z"/>
<path style="fill:#927d83; stroke:none;" d="M509 241L510 242L509 241M518 241L519 242L518 241z"/>
<path style="fill:#394481; stroke:none;" d="M531 241L532 242L531 241z"/>
<path style="fill:#06070b; stroke:none;" d="M541 241L542 242L541 241z"/>
<path style="fill:#394481; stroke:none;" d="M220 242L221 243L220 242M291.667 242.333L292.333 242.667L291.667 242.333z"/>
<path style="fill:#927d83; stroke:none;" d="M321 242L322 243L321 242M337 242L339 244L337 242z"/>
<path style="fill:#06070b; stroke:none;" d="M338 242L339 243L338 242z"/>
<path style="fill:#394481; stroke:none;" d="M387 242L388 243L387 242M392.667 242.333L393.333 242.667L392.667 242.333M439 242L440 243L439 242z"/>
<path style="fill:#927d83; stroke:none;" d="M451 242L452 243L451 242z"/>
<path style="fill:#394481; stroke:none;" d="M475.667 242.333L476.333 242.667L475.667 242.333z"/>
<path style="fill:#927d83; stroke:none;" d="M477 242L476 244L477 242M508 242L509 243L508 242z"/>
<path style="fill:#394481; stroke:none;" d="M529 242L530 243L529 242z"/>
<path style="fill:#06070b; stroke:none;" d="M542 242L543 243L542 242z"/>
<path style="fill:#394481; stroke:none;" d="M201 243L202 244L201 243z"/>
<path style="fill:#927d83; stroke:none;" d="M206 243L207 244L206 243z"/>
<path style="fill:#06070b; stroke:none;" d="M208 243L209 244L208 243M221 243L222 244L221 243z"/>
<path style="fill:#927d83; stroke:none;" d="M232.333 243.667L232.667 244.333L232.333 243.667M291 243L292 244L291 243z"/>
<path style="fill:#06070b; stroke:none;" d="M292 243L293 244L292 243z"/>
<path style="fill:#394481; stroke:none;" d="M337 243L338 244L337 243z"/>
<path style="fill:#06070b; stroke:none;" d="M387 243L385 245L385 246L387 243z"/>
<path style="fill:#927d83; stroke:none;" d="M391 243L392 244L391 243z"/>
<path style="fill:#06070b; stroke:none;" d="M392 243L393 244L392 243M440 243L441 244L440 243z"/>
<path style="fill:#927d83; stroke:none;" d="M466 243L467 244L466 243z"/>
<path style="fill:#06070b; stroke:none;" d="M475 243L476 244L475 243z"/>
<path style="fill:#f7f7f8; stroke:none;" d="M477 243L475 247L479 247L477 243z"/>
<path style="fill:#394481; stroke:none;" d="M478.667 243.333L479.333 243.667L478.667 243.333M506 243L506 245L508 243L506 243z"/>
<path style="fill:#927d83; stroke:none;" d="M530 243L531 244L530 243z"/>
<path style="fill:#394481; stroke:none;" d="M542 243L544 245L542 243z"/>
<path style="fill:#927d83; stroke:none;" d="M543 243L544 244L543 243z"/>
<path style="fill:#06070b; stroke:none;" d="M201 244L201 251L202 251L201 244M209 244L214 249L209 244M222 244L223 245L222 244z"/>
<path style="fill:#927d83; stroke:none;" d="M247.333 244.667L247.667 245.333L247.333 244.667z"/>
<path style="fill:#394481; stroke:none;" d="M292 244L292 248L293 248L292 244z"/>
<path style="fill:#927d83; stroke:none;" d="M293 244L294 245L293 244M298 244L299 245L298 244M300 244L300 245L305 245L300 244M320 244L320 245L323 245L323 244L320 244z"/>
<path style="fill:#06070b; stroke:none;" d="M321 244L322 245L321 244z"/>
<path style="fill:#927d83; stroke:none;" d="M330 244L330 245L335 246L330 244M336 244L336 247L337 247L336 244z"/>
<path style="fill:#06070b; stroke:none;" d="M337 244L337 248L338 248L337 244z"/>
<path style="fill:#927d83; stroke:none;" d="M371 244L371 245L377 246L371 244z"/>
<path style="fill:#394481; stroke:none;" d="M386 244L387 245L386 244M391 244L392 248L393 248L393 244L391 244M418 244L419 247L418 244z"/>
<path style="fill:#927d83; stroke:none;" d="M424 244L424 245L430 245L424 244z"/>
<path style="fill:#06070b; stroke:none;" d="M441 244L442 245L441 244z"/>
<path style="fill:#927d83; stroke:none;" d="M451.333 244.667L451.667 245.333L451.333 244.667M465 244L466 245L465 244z"/>
<path style="fill:#394481; stroke:none;" d="M467 244L468 245L467 244M474.667 244.333L475.333 244.667L474.667 244.333z"/>
<path style="fill:#927d83; stroke:none;" d="M478 244L479 245L478 244z"/>
<path style="fill:#06070b; stroke:none;" d="M479 244L480 245L479 244z"/>
<path style="fill:#927d83; stroke:none;" d="M499.667 244.333L500.333 244.667L499.667 244.333M502 244L503 245L502 244M507 244L508 245L507 244M528 244L528 248L529 248L528 244M542 244L543 249L544 249L542 244M562 244L563 245L562 244M564 244L564 245L569 245L564 244M209 245L210 246L209 245M211 245L212 246L211 245z"/>
<path style="fill:#06070b; stroke:none;" d="M223 245L224 246L223 245z"/>
<path style="fill:#394481; stroke:none;" d="M224 245L228 251L224 245M315 245L315 246L320 246L315 245z"/>
<path style="fill:#06070b; stroke:none;" d="M320 245L321 246L320 245M327 245L327 246L334 246L327 245z"/>
<path style="fill:#394481; stroke:none;" d="M355 245L356 246L355 245z"/>
<path style="fill:#06070b; stroke:none;" d="M356 245L356 246L362 246L356 245z"/>
<path style="fill:#394481; stroke:none;" d="M362 245L363 246L362 245z"/>
<path style="fill:#06070b; stroke:none;" d="M370 245L370 246L376 246L370 245z"/>
<path style="fill:#927d83; stroke:none;" d="M387 245L388 246L387 245z"/>
<path style="fill:#394481; stroke:none;" d="M412 245L413 246L412 245z"/>
<path style="fill:#06070b; stroke:none;" d="M413 245L413 246L417 246L413 245M442 245L442 246L446 248L446 247L442 245z"/>
<path style="fill:#394481; stroke:none;" d="M443 245L444 246L443 245M460 245L460 246L465 246L460 245M466 245L467 246L466 245z"/>
<path style="fill:#06070b; stroke:none;" d="M474 245L475 246L474 245z"/>
<path style="fill:#927d83; stroke:none;" d="M475 245L476 246L475 245z"/>
<path style="fill:#394481; stroke:none;" d="M479 245L480 246L479 245z"/>
<path style="fill:#927d83; stroke:none;" d="M480 245L479 247L480 245z"/>
<path style="fill:#06070b; stroke:none;" d="M496 245L496 246L503 246L496 245z"/>
<path style="fill:#394481; stroke:none;" d="M503 245L504 246L503 245z"/>
<path style="fill:#06070b; stroke:none;" d="M506.333 245.667L506.667 246.333L506.333 245.667z"/>
<path style="fill:#394481; stroke:none;" d="M529.333 245.667L529.667 246.333L529.333 245.667z"/>
<path style="fill:#06070b; stroke:none;" d="M543.333 245.667L543.667 246.333L543.333 245.667z"/>
<path style="fill:#927d83; stroke:none;" d="M210 246L211 247L210 246M212 246L213 247L212 246z"/>
<path style="fill:#06070b; stroke:none;" d="M225 246L226 247L225 246z"/>
<path style="fill:#927d83; stroke:none;" d="M232.333 246.667L232.667 247.333L232.333 246.667M315 246L317 249L318 249L320 246L315 246z"/>
<path style="fill:#06070b; stroke:none;" d="M316 246L317 247L316 246z"/>
<path style="fill:#927d83; stroke:none;" d="M327 246L327 252L328 252L327 246M355 246L355 253L356 253L355 246M357.667 246.333L358.333 246.667L357.667 246.333M360 246L361 247L360 246M369 246L369 252L370 252L369 246z"/>
<path style="fill:#06070b; stroke:none;" d="M382 246L383 247L382 246z"/>
<path style="fill:#927d83; stroke:none;" d="M384.667 246.333L385.333 246.667L384.667 246.333M410 246L411 247L410 246M412 246L413 247L412 246M414.667 246.333L415.333 246.667L414.667 246.333M417 246L418 254L419 254L417 246M460 246L461 247L460 246M462 249L465 249L465 246L462 249M473 246L474 247L473 246z"/>
<path style="fill:#394481; stroke:none;" d="M474 246L475 247L474 246z"/>
<path style="fill:#06070b; stroke:none;" d="M480 246C475.168 247.499 472.608 247.763 471 253L472 253L480 246z"/>
<path style="fill:#927d83; stroke:none;" d="M515.333 246.667L515.667 247.333L515.333 246.667z"/>
<path style="fill:#394481; stroke:none;" d="M516 246L516 248L519 250L520 250L521 250L521 246L516 246z"/>
<path style="fill:#927d83; stroke:none;" d="M211 247L212 248L211 247M213 247L214 248L213 247z"/>
<path style="fill:#06070b; stroke:none;" d="M226 247L227 248L226 247z"/>
<path style="fill:#927d83; stroke:none;" d="M247 247L247 250L248 250L247 247M293.333 247.667L293.667 248.333L293.333 247.667z"/>
<path style="fill:#06070b; stroke:none;" d="M317 247L318 248L317 247M383 247L384 248L383 247z"/>
<path style="fill:#927d83; stroke:none;" d="M391.333 247.667L391.667 248.333L391.333 247.667z"/>
<path style="fill:#06070b; stroke:none;" d="M418 247L418 253L419 253L418 247z"/>
<path style="fill:#394481; stroke:none;" d="M444 247L445 248L444 247z"/>
<path style="fill:#927d83; stroke:none;" d="M451 247L452 248L451 247z"/>
<path style="fill:#06070b; stroke:none;" d="M462 247L463 248L462 247z"/>
<path style="fill:#927d83; stroke:none;" d="M481 247L482 248L481 247z"/>
<path style="fill:#394481; stroke:none;" d="M506 247L506 249L508 249L506 247z"/>
<path style="fill:#927d83; stroke:none;" d="M507 247L508 248L507 247z"/>
<path style="fill:#06070b; stroke:none;" d="M520 247L521 248L520 247z"/>
<path style="fill:#927d83; stroke:none;" d="M521 247L522 248L521 247z"/>
<path style="fill:#06070b; stroke:none;" d="M529 247L531 252L532 252L529 247z"/>
<path style="fill:#927d83; stroke:none;" d="M536 247L537 248L536 247z"/>
<path style="fill:#394481; stroke:none;" d="M537 247L542 254L537 247M543 247L544 248L543 247z"/>
<path style="fill:#927d83; stroke:none;" d="M227 248L228 249L227 248z"/>
<path style="fill:#394481; stroke:none;" d="M262 248L261 251L262 248z"/>
<path style="fill:#06070b; stroke:none;" d="M292 248L293 249L292 248M318 248L319 249L318 248z"/>
<path style="fill:#394481; stroke:none;" d="M337 248L338 249L337 248z"/>
<path style="fill:#927d83; stroke:none;" d="M338 248L337 250L338 248z"/>
<path style="fill:#06070b; stroke:none;" d="M392 248L398 253L398 252L392 248z"/>
<path style="fill:#394481; stroke:none;" d="M445 248L445 251L446 251L447 251L445 248z"/>
<path style="fill:#927d83; stroke:none;" d="M446 248L447 249L446 248z"/>
<path style="fill:#06070b; stroke:none;" d="M463 248L465 250L463 248z"/>
<path style="fill:#927d83; stroke:none;" d="M472 248L473 249L472 248M474 248L474 249L480 249L474 248z"/>
<path style="fill:#394481; stroke:none;" d="M480.667 248.333L481.333 248.667L480.667 248.333z"/>
<path style="fill:#927d83; stroke:none;" d="M530 248L531 249L530 248z"/>
<path style="fill:#06070b; stroke:none;" d="M537 248L538 249L537 248z"/>
<path style="fill:#394481; stroke:none;" d="M542 248L543 249L542 248z"/>
<path style="fill:#927d83; stroke:none;" d="M232 249L233 250L232 249z"/>
<path style="fill:#394481; stroke:none;" d="M291.667 249.333L292.333 249.667L291.667 249.333M318 249L321 251L318 249z"/>
<path style="fill:#06070b; stroke:none;" d="M338 249L339 250L338 249M384 249L388 253L384 249z"/>
<path style="fill:#927d83; stroke:none;" d="M385 249L386 250L385 249z"/>
<path style="fill:#394481; stroke:none;" d="M393 249L394 250L393 249M409 249L410 250L409 249z"/>
<path style="fill:#927d83; stroke:none;" d="M445 249L446 250L445 249M451 249L452 250L451 249z"/>
<path style="fill:#394481; stroke:none;" d="M463 249L464 250L463 249z"/>
<path style="fill:#927d83; stroke:none;" d="M473 249L474 250L473 249z"/>
<path style="fill:#06070b; stroke:none;" d="M481 249L482 252L483 252L481 249z"/>
<path style="fill:#927d83; stroke:none;" d="M482 249L483 250L482 249z"/>
<path style="fill:#06070b; stroke:none;" d="M507 249L513 253L513 252L507 249z"/>
<path style="fill:#927d83; stroke:none;" d="M508 249L509 250L508 249z"/>
<path style="fill:#394481; stroke:none;" d="M529 249L530 250L529 249z"/>
<path style="fill:#06070b; stroke:none;" d="M538 249L539 250L538 249z"/>
<path style="fill:#927d83; stroke:none;" d="M541 249L543 251L541 249z"/>
<path style="fill:#06070b; stroke:none;" d="M542 249L543 250L542 249z"/>
<path style="fill:#394481; stroke:none;" d="M556 249L554 252L556 249z"/>
<path style="fill:#06070b; stroke:none;" d="M215 250L216 251L215 250z"/>
<path style="fill:#394481; stroke:none;" d="M219 250L219 251L222 252L219 250z"/>
<path style="fill:#927d83; stroke:none;" d="M253 250L254 251L253 250z"/>
<path style="fill:#06070b; stroke:none;" d="M254 250L255 251L254 250z"/>
<path style="fill:#927d83; stroke:none;" d="M290 250L290 253L293 250L290 250z"/>
<path style="fill:#06070b; stroke:none;" d="M291 250L292 251L291 250z"/>
<path style="fill:#394481; stroke:none;" d="M338 250L338 251L340 253L341 253L338 250M348 253L351 250L348 253z"/>
<path style="fill:#927d83; stroke:none;" d="M384 250L385 251L384 250M386 250L387 251L386 250z"/>
<path style="fill:#394481; stroke:none;" d="M394 250L395 251L394 250z"/>
<path style="fill:#927d83; stroke:none;" d="M403 250L404 251L403 250z"/>
<path style="fill:#06070b; stroke:none;" d="M404 250L400 252L400 253L404 250z"/>
<path style="fill:#927d83; stroke:none;" d="M405 250L406 251L405 250z"/>
<path style="fill:#06070b; stroke:none;" d="M409 250L409 253L410 253L409 250z"/>
<path style="fill:#394481; stroke:none;" d="M438 250L438 251L441 252L438 250M464 250L464 251L468 253L464 250z"/>
<path style="fill:#927d83; stroke:none;" d="M471 250L472 251L471 250M481 250L482 251L481 250z"/>
<path style="fill:#394481; stroke:none;" d="M507 250L508 251L507 250z"/>
<path style="fill:#927d83; stroke:none;" d="M509 250L510 251L509 250M518 250L518 253L519 253L518 250z"/>
<path style="fill:#06070b; stroke:none;" d="M519 250L520 251L519 250z"/>
<path style="fill:#394481; stroke:none;" d="M531 250L532 251L531 250z"/>
<path style="fill:#06070b; stroke:none;" d="M539 250L540 251L539 250M541 250L542 251L541 250z"/>
<path style="fill:#927d83; stroke:none;" d="M547 250L548 251L547 250z"/>
<path style="fill:#06070b; stroke:none;" d="M548 250L551 253L551 252L548 250z"/>
<path style="fill:#394481; stroke:none;" d="M201 251L202 252L201 251z"/>
<path style="fill:#927d83; stroke:none;" d="M219 251L221 253L219 251z"/>
<path style="fill:#06070b; stroke:none;" d="M220 251L221 252L220 251z"/>
<path style="fill:#927d83; stroke:none;" d="M225 251L225 252L228 252L228 251L225 251z"/>
<path style="fill:#06070b; stroke:none;" d="M226 251L227 252L226 251z"/>
<path style="fill:#927d83; stroke:none;" d="M232.333 251.667L232.667 252.333L232.333 251.667M247 251L248 252L247 251z"/>
<path style="fill:#394481; stroke:none;" d="M254.667 251.333L255.333 251.667L254.667 251.333z"/>
<path style="fill:#927d83; stroke:none;" d="M260 251L262 253L260 251z"/>
<path style="fill:#06070b; stroke:none;" d="M261 251L262 252L261 251z"/>
<path style="fill:#927d83; stroke:none;" d="M288 251L289 252L288 251z"/>
<path style="fill:#394481; stroke:none;" d="M289.333 251.667L289.667 252.333L289.333 251.667z"/>
<path style="fill:#06070b; stroke:none;" d="M290 251L291 252L290 251z"/>
<path style="fill:#927d83; stroke:none;" d="M319 251L323 254L322 251L319 251z"/>
<path style="fill:#06070b; stroke:none;" d="M320 251L321 252L320 251M339 251L340 252L339 251z"/>
<path style="fill:#927d83; stroke:none;" d="M341 251L342 252L341 251M347 251L348 252L347 251z"/>
<path style="fill:#06070b; stroke:none;" d="M348 251L349 252L348 251z"/>
<path style="fill:#927d83; stroke:none;" d="M385 251L386 252L385 251M393 251L394 252L393 251z"/>
<path style="fill:#394481; stroke:none;" d="M395 251L396 252L395 251M402 251L403 252L402 251M404 251L405 252L404 251z"/>
<path style="fill:#927d83; stroke:none;" d="M438 251L440 253L438 251z"/>
<path style="fill:#06070b; stroke:none;" d="M439 251L440 252L439 251z"/>
<path style="fill:#927d83; stroke:none;" d="M444 251L444 252L447 252L447 251L444 251z"/>
<path style="fill:#06070b; stroke:none;" d="M445 251L446 252L445 251z"/>
<path style="fill:#927d83; stroke:none;" d="M451.333 251.667L451.667 252.333L451.333 251.667z"/>
<path style="fill:#06070b; stroke:none;" d="M465 251L466 252L465 251z"/>
<path style="fill:#927d83; stroke:none;" d="M472 251L473 252L472 251M483 251L484 252L483 251z"/>
<path style="fill:#394481; stroke:none;" d="M508 251L509 252L508 251M510 251L511 252L510 251M517 251L518 252L517 251z"/>
<path style="fill:#06070b; stroke:none;" d="M518 251L519 252L518 251z"/>
<path style="fill:#394481; stroke:none;" d="M532.333 251.667L532.667 252.333L532.333 251.667z"/>
<path style="fill:#927d83; stroke:none;" d="M533 251L534 252L533 251z"/>
<path style="fill:#06070b; stroke:none;" d="M540 251L541 252L540 251z"/>
<path style="fill:#394481; stroke:none;" d="M549 251L550 252L549 251z"/>
<path style="fill:#06070b; stroke:none;" d="M555 251L553 252L553 253L555 251M201 252L202 253L201 252M221.667 252.333L222.333 252.667L221.667 252.333z"/>
<path style="fill:#394481; stroke:none;" d="M223 252L223 254L225 252L223 252z"/>
<path style="fill:#06070b; stroke:none;" d="M225 252L226 253L225 252M246 252L247 253L246 252M255.667 252.333L256.333 252.667L255.667 252.333z"/>
<path style="fill:#394481; stroke:none;" d="M257 252L259 254L259 252L257 252z"/>
<path style="fill:#06070b; stroke:none;" d="M259.667 252.333L260.333 252.667L259.667 252.333M282 252L282 253L289 253L282 252M321 252L322 253L321 252M327 252L327 253L334 253L327 252z"/>
<path style="fill:#927d83; stroke:none;" d="M334 252L335 253L334 252z"/>
<path style="fill:#06070b; stroke:none;" d="M341.667 252.333L342.333 252.667L341.667 252.333z"/>
<path style="fill:#394481; stroke:none;" d="M343 252L344 254L345 254L346 252L343 252z"/>
<path style="fill:#06070b; stroke:none;" d="M346.667 252.333L347.333 252.667L346.667 252.333M369 252L369 253L376 253L369 252z"/>
<path style="fill:#927d83; stroke:none;" d="M376 252L377 253L376 252z"/>
<path style="fill:#394481; stroke:none;" d="M386 252L387 253L386 252z"/>
<path style="fill:#927d83; stroke:none;" d="M394 252L395 253L394 252z"/>
<path style="fill:#394481; stroke:none;" d="M398 252L400 254L400 252L398 252z"/>
<path style="fill:#927d83; stroke:none;" d="M403 252L404 253L403 252z"/>
<path style="fill:#06070b; stroke:none;" d="M440.667 252.333L441.333 252.667L440.667 252.333z"/>
<path style="fill:#394481; stroke:none;" d="M442 252L442 254L444 252L442 252z"/>
<path style="fill:#06070b; stroke:none;" d="M444 252L445 253L444 252M466 252L467 253L466 252z"/>
<path style="fill:#927d83; stroke:none;" d="M470 252L471 253L470 252z"/>
<path style="fill:#394481; stroke:none;" d="M482.667 252.333L483.333 252.667L482.667 252.333z"/>
<path style="fill:#06070b; stroke:none;" d="M496 252L496 253L503 253L496 252z"/>
<path style="fill:#394481; stroke:none;" d="M503 252L504 253L503 252z"/>
<path style="fill:#927d83; stroke:none;" d="M509 252L510 253L509 252z"/>
<path style="fill:#394481; stroke:none;" d="M513 254L516 253L513 254z"/>
<path style="fill:#06070b; stroke:none;" d="M516.667 252.333L517.333 252.667L516.667 252.333M533.667 252.333L534.333 252.667L533.667 252.333z"/>
<path style="fill:#394481; stroke:none;" d="M535 252L536 254L537 254L538 252L535 252z"/>
<path style="fill:#06070b; stroke:none;" d="M538.667 252.333L539.333 252.667L538.667 252.333M541 252L542 253L541 252z"/>
<path style="fill:#394481; stroke:none;" d="M551 252L553 254L553 252L551 252z"/>
<path style="fill:#927d83; stroke:none;" d="M555 252L556 253L555 252M222 253L223 254L222 253M224 253L225 254L224 253M233 253L234 254L233 253M240 253L241 254L240 253M256.667 253.333L257.333 253.667L256.667 253.333M259 253L260 254L259 253M269 253L270 254L269 253M282 253L283 254L282 253M284 253L285 254L284 253M297 253L298 254L297 253M300 253L300 254L303 254L300 253M327 253L328 254L327 253M330.667 253.333L331.333 253.667L330.667 253.333M333 253L334 254L333 253M342.667 253.333L343.333 253.667L342.667 253.333M345.667 253.333L346.333 253.667L345.667 253.333M354 253L355 254L354 253M369 253L370 254L369 253M371 253L372 254L371 253M375 253L376 254L375 253M387 253L388 254L387 253M397.667 253.333L398.333 253.667L397.667 253.333M400 253L401 254L400 253M423 253L424 254L423 253M426.667 253.333L427.333 253.667L426.667 253.333M430 253L431 254L430 253M441 253L442 254L441 253M443 253L444 254L443 253M452 253L453 254L452 253M459 253L460 254L459 253M467 253L468 254L467 253M483 253L484 254L483 253M496.667 253.333L497.333 253.667L496.667 253.333M499 253L500 254L499 253M502 253L503 254L502 253M512 253L513 254L512 253M514.667 253.333L515.333 253.667L514.667 253.333M534.667 253.333L535.333 253.667L534.667 253.333M537 253L538 254L537 253z"/>
<path style="fill:#06070b; stroke:none;" d="M542 253L543 254L542 253z"/>
<path style="fill:#927d83; stroke:none;" d="M550.667 253.333L551.333 253.667L550.667 253.333M553 253L554 254L553 253M561.667 253.333L562.333 253.667L561.667 253.333M564 253L564 254L567 254L564 253M542 254L543 255L542 254M255 265L256 266L255 265z"/>
<path style="fill:#394481; stroke:none;" d="M253 268L256 267L253 268z"/>
<path style="fill:#06070b; stroke:none;" d="M254 267L255 268L254 267z"/>
<path style="fill:#927d83; stroke:none;" d="M253 268L254 269L253 268M200 270L200 285L201 285L200 270z"/>
<path style="fill:#394481; stroke:none;" d="M201 270L201 273L208 272L201 270z"/>
<path style="fill:#927d83; stroke:none;" d="M207 270L208 271L207 270z"/>
<path style="fill:#394481; stroke:none;" d="M216 270L216 271L224 272L216 270z"/>
<path style="fill:#927d83; stroke:none;" d="M224 270L225 271L224 270z"/>
<path style="fill:#394481; stroke:none;" d="M233 270L234 271L233 270z"/>
<path style="fill:#06070b; stroke:none;" d="M243 270L244 271L243 270z"/>
<path style="fill:#394481; stroke:none;" d="M244 270L244 274L245 274L244 270z"/>
<path style="fill:#927d83; stroke:none;" d="M249 270L249 285L250 285L249 270z"/>
<path style="fill:#394481; stroke:none;" d="M250 270L250 271L258 272L250 270z"/>
<path style="fill:#927d83; stroke:none;" d="M264 270L265 271L264 270z"/>
<path style="fill:#394481; stroke:none;" d="M265.333 270.667L265.667 271.333L265.333 270.667z"/>
<path style="fill:#06070b; stroke:none;" d="M266 270L266 271L270 271L266 270z"/>
<path style="fill:#394481; stroke:none;" d="M270.333 270.667L270.667 271.333L270.333 270.667z"/>
<path style="fill:#927d83; stroke:none;" d="M271 270L272 271L271 270M281 270L282 271L281 270z"/>
<path style="fill:#394481; stroke:none;" d="M282.333 270.667L282.667 271.333L282.333 270.667z"/>
<path style="fill:#06070b; stroke:none;" d="M283 270L283 271L286 271L283 270z"/>
<path style="fill:#394481; stroke:none;" d="M286 270L288 272L288 270L286 270z"/>
<path style="fill:#927d83; stroke:none;" d="M295 270L295 285L296 285L295 270z"/>
<path style="fill:#394481; stroke:none;" d="M296 270L297 271L296 270z"/>
<path style="fill:#927d83; stroke:none;" d="M305 270L306 271L305 270z"/>
<path style="fill:#394481; stroke:none;" d="M305 285L313 285L313 283C305.335 283.194 305.738 276.804 313 278L306 276C307.202 272.048 309.005 271.341 313 272C305.2 263.084 305 281.161 305 285z"/>
<path style="fill:#927d83; stroke:none;" d="M313.333 270.667L313.667 271.333L313.333 270.667M323 270L325 272L323 270M335 270L336 274L337 274L335 270z"/>
<path style="fill:#394481; stroke:none;" d="M341 270L342 271L341 270z"/>
<path style="fill:#927d83; stroke:none;" d="M342 270L342 285L343 285L342 270z"/>
<path style="fill:#394481; stroke:none;" d="M346 270L347 271L346 270M355 270L355 285L356 285C357.389 280.3 358.07 274.052 355 270z"/>
<path style="fill:#927d83; stroke:none;" d="M356 270L357 271L356 270M358 270L361 272L361 271L358 270z"/>
<path style="fill:#394481; stroke:none;" d="M359 270L359 271L366 272L359 270z"/>
<path style="fill:#927d83; stroke:none;" d="M366 270L367 271L366 270M374 270L376 272L374 270z"/>
<path style="fill:#394481; stroke:none;" d="M384 270L385 271L384 270z"/>
<path style="fill:#927d83; stroke:none;" d="M385 270L385 285L386 285L385 270z"/>
<path style="fill:#394481; stroke:none;" d="M389 270L389 271L395 272L389 270z"/>
<path style="fill:#927d83; stroke:none;" d="M395 270L396 271L395 270M401 270L402 271L401 270z"/>
<path style="fill:#394481; stroke:none;" d="M409 285L409 283L403 283L403 277L409 277L409 276L403 276L403 271L409 271C399.281 266.966 396.915 284.857 409 285z"/>
<path style="fill:#927d83; stroke:none;" d="M409 270L403 271L403 272L409 270z"/>
<path style="fill:#06070b; stroke:none;" d="M201 271L202 272L201 271z"/>
<path style="fill:#927d83; stroke:none;" d="M203.667 271.333L204.333 271.667L203.667 271.333z"/>
<path style="fill:#06070b; stroke:none;" d="M208 271L209 272L208 271z"/>
<path style="fill:#394481; stroke:none;" d="M209.333 271.667L209.667 272.333L209.333 271.667z"/>
<path style="fill:#06070b; stroke:none;" d="M216 271L216 284L217 284L216 271z"/>
<path style="fill:#927d83; stroke:none;" d="M218 271L218 272L223 272L218 271z"/>
<path style="fill:#06070b; stroke:none;" d="M233 271L233 284L234 284L233 271M250 271L250 284L251 284L250 271z"/>
<path style="fill:#927d83; stroke:none;" d="M252 271L252 272L257 272L252 271z"/>
<path style="fill:#394481; stroke:none;" d="M263 271L261 274L263 271z"/>
<path style="fill:#06070b; stroke:none;" d="M264 271L265 272L264 271z"/>
<path style="fill:#927d83; stroke:none;" d="M266 271L267 272L266 271M269 271L270 272L269 271z"/>
<path style="fill:#06070b; stroke:none;" d="M271 271L272 272L271 271z"/>
<path style="fill:#394481; stroke:none;" d="M272 271L274 274L272 271z"/>
<path style="fill:#927d83; stroke:none;" d="M279 271L280 272L279 271z"/>
<path style="fill:#06070b; stroke:none;" d="M279 273L282 272L279 273z"/>
<path style="fill:#927d83; stroke:none;" d="M283 271L284 272L283 271z"/>
<path style="fill:#f7f7f8; stroke:none;" d="M284.015 271.917C277.161 272.511 277.901 283.298 285 282.793C292.77 282.24 291.331 271.282 284.015 271.917z"/>
<path style="fill:#927d83; stroke:none;" d="M285.667 271.333L286.333 271.667L285.667 271.333z"/>
<path style="fill:#06070b; stroke:none;" d="M288 271L291 274L288 271z"/>
<path style="fill:#927d83; stroke:none;" d="M289 271L290 272L289 271z"/>
<path style="fill:#06070b; stroke:none;" d="M296 271L296 284L297 284L296 271z"/>
<path style="fill:#927d83; stroke:none;" d="M307 271L307 272L312 272L307 271z"/>
<path style="fill:#394481; stroke:none;" d="M323 271L323 273L325 273L323 271M335 271L336 272L335 271z"/>
<path style="fill:#06070b; stroke:none;" d="M341 271L341 284L342 284L341 271z"/>
<path style="fill:#927d83; stroke:none;" d="M345 271L345 285L346 285L345 271z"/>
<path style="fill:#06070b; stroke:none;" d="M346 271L346 284L347 284L346 271M362 271L362 285L363 285L362 271z"/>
<path style="fill:#927d83; stroke:none;" d="M364 271L365 272L364 271z"/>
<path style="fill:#394481; stroke:none;" d="M374 271L373 273L373 274C375.158 273.022 375.501 272.812 374 271z"/>
<path style="fill:#06070b; stroke:none;" d="M384 271L384 285L385 285L384 271z"/>
<path style="fill:#927d83; stroke:none;" d="M388 271L388 278L389 278L388 271z"/>
<path style="fill:#06070b; stroke:none;" d="M389 271L389 285L390 285L390 278L393 279L390 277L389 271z"/>
<path style="fill:#927d83; stroke:none;" d="M390 271L390 272L394 272L390 271z"/>
<path style="fill:#06070b; stroke:none;" d="M395 271L397 273L397 271L395 271z"/>
<path style="fill:#f7f7f8; stroke:none;" d="M202 272L202 283C213.105 282.869 213.053 272.267 202 272z"/>
<path style="fill:#927d83; stroke:none;" d="M208 272L209 273L208 272z"/>
<path style="fill:#06070b; stroke:none;" d="M210 272L212 275L210 272z"/>
<path style="fill:#927d83; stroke:none;" d="M217 272L217 276L218 276L217 272M243 272L244 273L243 272z"/>
<path style="fill:#06070b; stroke:none;" d="M263 272L264 273L263 272z"/>
<path style="fill:#394481; stroke:none;" d="M280 272L281 273L280 272z"/>
<path style="fill:#927d83; stroke:none;" d="M288 272L289 273L288 272M290 272L291 273L290 272M306 272L306 276L307 276L306 272M334 272L335 273L334 272z"/>
<path style="fill:#06070b; stroke:none;" d="M335 272L333 277L334 277L335 272z"/>
<path style="fill:#927d83; stroke:none;" d="M373 272L374 273L373 272z"/>
<path style="fill:#06070b; stroke:none;" d="M374 272L375 273L374 272z"/>
<path style="fill:#f7f7f8; stroke:none;" d="M390 272L390 276L396 276L396 272L390 272z"/>
<path style="fill:#394481; stroke:none;" d="M397.333 272.667L397.667 273.333L397.333 272.667z"/>
<path style="fill:#06070b; stroke:none;" d="M201 273L201 284L202 284L201 273z"/>
<path style="fill:#394481; stroke:none;" d="M211 273L212 274L211 273M278.667 273.333L279.333 273.667L278.667 273.333z"/>
<path style="fill:#927d83; stroke:none;" d="M289 273L290 274L289 273M291 273L292 274L291 273z"/>
<path style="fill:#06070b; stroke:none;" d="M323 273L323 277L324 277L325 273L323 273z"/>
<path style="fill:#927d83; stroke:none;" d="M325 273L326 274L325 273z"/>
<path style="fill:#394481; stroke:none;" d="M334 273L335 274L334 273z"/>
<path style="fill:#06070b; stroke:none;" d="M375 273L377 278L378 278L375 273z"/>
<path style="fill:#927d83; stroke:none;" d="M376 273L377 274L376 273M396.333 273.667L396.667 274.333L396.333 273.667M212 274L213 275L212 274M243.667 274.333L244.333 274.667L243.667 274.333M260 274L260 280L261 280L260 274z"/>
<path style="fill:#06070b; stroke:none;" d="M261 274L262 275L261 274z"/>
<path style="fill:#927d83; stroke:none;" d="M262 274L263 275L262 274M277 274L278 275L277 274z"/>
<path style="fill:#06070b; stroke:none;" d="M278 274L279 275L278 274z"/>
<path style="fill:#394481; stroke:none;" d="M290.667 274.333L291.333 274.667L290.667 274.333M324.667 274.333L325.333 274.667L324.667 274.333z"/>
<path style="fill:#927d83; stroke:none;" d="M333 274L334 275L333 274z"/>
<path style="fill:#394481; stroke:none;" d="M334 275L334 276L337 276L337 275L334 275z"/>
<path style="fill:#927d83; stroke:none;" d="M372 274L373 275L372 274z"/>
<path style="fill:#06070b; stroke:none;" d="M373 274L374 275L373 274z"/>
<path style="fill:#f7f7f8; stroke:none;" d="M374 274L373 278L377 278L374 274z"/>
<path style="fill:#927d83; stroke:none;" d="M375 274L376 275L375 274z"/>
<path style="fill:#06070b; stroke:none;" d="M397 274L398 275L397 274z"/>
<path style="fill:#394481; stroke:none;" d="M211.667 275.333L212.333 275.667L211.667 275.333M261 275L262 276L261 275M277.667 275.333L278.333 275.667L277.667 275.333z"/>
<path style="fill:#927d83; stroke:none;" d="M290 275L291 276L290 275z"/>
<path style="fill:#06070b; stroke:none;" d="M291 275L291 280L292 280L291 275z"/>
<path style="fill:#927d83; stroke:none;" d="M322.333 275.667L322.667 276.333L322.333 275.667z"/>
<path style="fill:#06070b; stroke:none;" d="M325 275L326 278L327 278L325 275z"/>
<path style="fill:#927d83; stroke:none;" d="M326 275L327 276L326 275M335.333 275.667L335.667 276.333L335.333 275.667M361 275L361 280L362 280L361 275z"/>
<path style="fill:#394481; stroke:none;" d="M372.667 275.333L373.333 275.667L372.667 275.333z"/>
<path style="fill:#927d83; stroke:none;" d="M377 275L378 276L377 275z"/>
<path style="fill:#394481; stroke:none;" d="M393 277L393 278L398 276L393 277z"/>
<path style="fill:#927d83; stroke:none;" d="M211 276L211 279L212 279L211 276z"/>
<path style="fill:#06070b; stroke:none;" d="M212 276L212 279L213 279L212 276z"/>
<path style="fill:#394481; stroke:none;" d="M217 278L224 278C221.9 275.597 219.1 275.597 217 278z"/>
<path style="fill:#927d83; stroke:none;" d="M224 276L225 277L224 276z"/>
<path style="fill:#394481; stroke:none;" d="M251 278L258 278C255.9 275.597 253.1 275.597 251 278M260 276L260 279L261 279L260 276z"/>
<path style="fill:#06070b; stroke:none;" d="M277.333 276.667L277.667 277.333L277.333 276.667z"/>
<path style="fill:#927d83; stroke:none;" d="M278 276L278 279L279 279L278 276M292 276L292 279L293 279L292 276M313.333 276.667L313.667 277.333L313.333 276.667z"/>
<path style="fill:#394481; stroke:none;" d="M325 276L326 277L325 276z"/>
<path style="fill:#927d83; stroke:none;" d="M332 276L333 277L332 276z"/>
<path style="fill:#06070b; stroke:none;" d="M336 276L336 280L337 280L336 276M372 276L373 277L372 276z"/>
<path style="fill:#927d83; stroke:none;" d="M373 276L374 277L373 276z"/>
<path style="fill:#394481; stroke:none;" d="M376 276L377 277L376 276z"/>
<path style="fill:#927d83; stroke:none;" d="M390 276L390 277L395 277L390 276z"/>
<path style="fill:#06070b; stroke:none;" d="M396 276L397 277L396 276z"/>
<path style="fill:#927d83; stroke:none;" d="M409 276L403 277L403 278L409 276M218 277L218 278L223 278L218 277M252 277L252 278L257 278L252 277M307 277L307 278L312 278L307 277z"/>
<path style="fill:#394481; stroke:none;" d="M322 277L322 280L324 277L322 277z"/>
<path style="fill:#927d83; stroke:none;" d="M327 277L328 278L327 277z"/>
<path style="fill:#394481; stroke:none;" d="M332.667 277.333L333.333 277.667L332.667 277.333M371.667 277.333L372.333 277.667L371.667 277.333z"/>
<path style="fill:#927d83; stroke:none;" d="M378 277L379 278L378 277M217 278L218 284L219 284L217 278z"/>
<path style="fill:#394481; stroke:none;" d="M277 278L277 280L279 280L277 278z"/>
<path style="fill:#927d83; stroke:none;" d="M306 278L306 283L307 283L306 278z"/>
<path style="fill:#394481; stroke:none;" d="M326.667 278.333L327.333 278.667L326.667 278.333z"/>
<path style="fill:#927d83; stroke:none;" d="M331 278L332 279L331 278z"/>
<path style="fill:#06070b; stroke:none;" d="M332 278L333 279L332 278z"/>
<path style="fill:#927d83; stroke:none;" d="M337.333 278.667L337.667 279.333L337.333 278.667z"/>
<path style="fill:#06070b; stroke:none;" d="M370 281L379 280C375.7 278.579 372.373 278.07 370 281z"/>
<path style="fill:#927d83; stroke:none;" d="M372 278L372 279L377 279L372 278z"/>
<path style="fill:#394481; stroke:none;" d="M377.667 278.333L378.333 278.667L377.667 278.333M391 278L392 279L391 278M211.667 279.333L212.333 279.667L211.667 279.333M261 279L262 280L261 279z"/>
<path style="fill:#927d83; stroke:none;" d="M323.333 279.667L323.667 280.333L323.333 279.667z"/>
<path style="fill:#06070b; stroke:none;" d="M327 279L328 280L327 279z"/>
<path style="fill:#927d83; stroke:none;" d="M328 279L329 280L328 279z"/>
<path style="fill:#394481; stroke:none;" d="M331.667 279.333L332.333 279.667L331.667 279.333M370 279L371 280L370 279z"/>
<path style="fill:#927d83; stroke:none;" d="M379 279L380 280L379 279M388 279L388 284L389 284L388 279z"/>
<path style="fill:#394481; stroke:none;" d="M392 279L392 280L395 281L392 279z"/>
<path style="fill:#06070b; stroke:none;" d="M211 280L212 281L211 280z"/>
<path style="fill:#927d83; stroke:none;" d="M212 280L213 281L212 280z"/>
<path style="fill:#06070b; stroke:none;" d="M261 280L262 281L261 280z"/>
<path style="fill:#927d83; stroke:none;" d="M262 280L263 281L262 280M277 280L278 281L277 280z"/>
<path style="fill:#06070b; stroke:none;" d="M278 280L279 281L278 280z"/>
<path style="fill:#394481; stroke:none;" d="M290.667 280.333L291.333 280.667L290.667 280.333z"/>
<path style="fill:#06070b; stroke:none;" d="M322 280L322 283L323 283L322 280z"/>
<path style="fill:#394481; stroke:none;" d="M327.667 280.333L328.333 280.667L327.667 280.333z"/>
<path style="fill:#927d83; stroke:none;" d="M330 280L329 282L330 280z"/>
<path style="fill:#06070b; stroke:none;" d="M331 280L332 281L331 280z"/>
<path style="fill:#394481; stroke:none;" d="M336 280L338 283L338 280L336 280z"/>
<path style="fill:#927d83; stroke:none;" d="M371 280L372 281L371 280z"/>
<path style="fill:#394481; stroke:none;" d="M378.667 280.333L379.333 280.667L378.667 280.333z"/>
<path style="fill:#06070b; stroke:none;" d="M393 280L397 284L393 280z"/>
<path style="fill:#394481; stroke:none;" d="M209 283L212 282L209 283M261.667 281.333L262.333 281.667L261.667 281.333M273 281L272 284L273 284L273 281M278 281L278 282L280 284L281 284L278 281z"/>
<path style="fill:#927d83; stroke:none;" d="M288 282L288 283L289 284L290 284L292 281L288 282z"/>
<path style="fill:#06070b; stroke:none;" d="M290 281L291 282L290 281M328 281L330 284L331 283L328 281z"/>
<path style="fill:#394481; stroke:none;" d="M330.667 281.333L331.333 281.667L330.667 281.333M369.667 281.333L370.333 281.667L369.667 281.333z"/>
<path style="fill:#927d83; stroke:none;" d="M378 281L379 282L378 281z"/>
<path style="fill:#06070b; stroke:none;" d="M379 281L380 282L379 281z"/>
<path style="fill:#927d83; stroke:none;" d="M380 281L381 282L380 281M393 281L394 282L393 281M395 281L396 282L395 281z"/>
<path style="fill:#06070b; stroke:none;" d="M210 282L207 283L207 284L211 283L210 282z"/>
<path style="fill:#927d83; stroke:none;" d="M211 282L212 283L211 282z"/>
<path style="fill:#06070b; stroke:none;" d="M262 282L262 283L265 284L262 282M273 282L274 283L273 282M279 282L280 283L279 282M289 282L290 283L289 282z"/>
<path style="fill:#927d83; stroke:none;" d="M321 282L321 285L322 285L321 282z"/>
<path style="fill:#394481; stroke:none;" d="M328 282L329 283L328 282z"/>
<path style="fill:#927d83; stroke:none;" d="M336.333 282.667L336.667 283.333L336.333 282.667M361.333 282.667L361.667 283.333L361.333 282.667z"/>
<path style="fill:#06070b; stroke:none;" d="M369 282L370 283L369 282z"/>
<path style="fill:#927d83; stroke:none;" d="M370 282L371 283L370 282z"/>
<path style="fill:#394481; stroke:none;" d="M379.667 282.333L380.333 282.667L379.667 282.333z"/>
<path style="fill:#927d83; stroke:none;" d="M394 282L395 283L394 282z"/>
<path style="fill:#394481; stroke:none;" d="M201 284L201 285L207 283L201 284z"/>
<path style="fill:#927d83; stroke:none;" d="M203 283L204 284L203 283M205 283L206 284L205 283M210 283L211 284L210 283z"/>
<path style="fill:#394481; stroke:none;" d="M216 284L216 285L224 283L216 284z"/>
<path style="fill:#927d83; stroke:none;" d="M220 283L221 284L220 283z"/>
<path style="fill:#394481; stroke:none;" d="M233 284L233 285L240 284L233 284z"/>
<path style="fill:#927d83; stroke:none;" d="M235 283L236 284L235 283z"/>
<path style="fill:#394481; stroke:none;" d="M250 284L250 285L258 284L250 284z"/>
<path style="fill:#927d83; stroke:none;" d="M256 283L257 284L256 283z"/>
<path style="fill:#394481; stroke:none;" d="M263 283L264 284L263 283M265 283L265 285L267 285L265 283z"/>
<path style="fill:#927d83; stroke:none;" d="M266 283L266 284L270 284L266 283z"/>
<path style="fill:#394481; stroke:none;" d="M270.333 283.667L270.667 284.333L270.333 283.667z"/>
<path style="fill:#06070b; stroke:none;" d="M271 283L272 284L271 283M281 283L282 284L281 283z"/>
<path style="fill:#394481; stroke:none;" d="M282.333 283.667L282.667 284.333L282.333 283.667z"/>
<path style="fill:#927d83; stroke:none;" d="M283 283L283 284L287 284L283 283z"/>
<path style="fill:#06070b; stroke:none;" d="M287.667 283.333L288.333 283.667L287.667 283.333z"/>
<path style="fill:#927d83; stroke:none;" d="M297.667 283.333L298.333 283.667L297.667 283.333z"/>
<path style="fill:#394481; stroke:none;" d="M296 284L296 285L302 283L296 284z"/>
<path style="fill:#927d83; stroke:none;" d="M302.333 283.667L302.667 284.333L302.333 283.667M308 283L309 284L308 283M313.333 283.667L313.667 284.333L313.333 283.667z"/>
<path style="fill:#394481; stroke:none;" d="M322.333 283.667L322.667 284.333L322.333 283.667M330 283L331 284L330 283z"/>
<path style="fill:#06070b; stroke:none;" d="M337 283L338 284L337 283z"/>
<path style="fill:#394481; stroke:none;" d="M346 284L346 285L353 285L346 284z"/>
<path style="fill:#927d83; stroke:none;" d="M349 283L350 284L349 283M352 283L353 284L352 283z"/>
<path style="fill:#394481; stroke:none;" d="M368 283L368 285L370 283L368 283z"/>
<path style="fill:#06070b; stroke:none;" d="M380 283L381 284L380 283z"/>
<path style="fill:#927d83; stroke:none;" d="M395 283L396 284L395 283M409.333 283.667L409.667 284.333L409.333 283.667M207.667 284.333L208.333 284.667L207.667 284.333M224 284L225 285L224 284z"/>
<path style="fill:#06070b; stroke:none;" d="M239 284L240 285L239 284M257 284L258 285L257 284z"/>
<path style="fill:#927d83; stroke:none;" d="M264 284L265 285L264 284z"/>
<path style="fill:#06070b; stroke:none;" d="M267 284L267 285L270 285L267 284z"/>
<path style="fill:#927d83; stroke:none;" d="M271 284L272 285L271 284M281 284L282 285L281 284z"/>
<path style="fill:#06070b; stroke:none;" d="M283 284L283 285L286 285L283 284z"/>
<path style="fill:#394481; stroke:none;" d="M286.667 284.333L287.333 284.667L286.667 284.333z"/>
<path style="fill:#927d83; stroke:none;" d="M329 284L330 285L329 284z"/>
<path style="fill:#394481; stroke:none;" d="M337 284L338 285L337 284M341 284L342 285L341 284z"/>
<path style="fill:#927d83; stroke:none;" d="M356 284L357 285L356 284M369 284L370 285L369 284z"/>
<path style="fill:#394481; stroke:none;" d="M380 284L381 285L380 284z"/>
<path style="fill:#927d83; stroke:none;" d="M381 284L382 285L381 284z"/>
<path style="fill:#394481; stroke:none;" d="M396.667 284.333L397.333 284.667L396.667 284.333z"/>
<path style="fill:#927d83; stroke:none;" d="M401 284L402 285L401 284M55 292L55 296L56 296L55 292M151 296L152 297L151 296z"/>
</svg>
