<?xml version="1.0" standalone="no"?>
<!DOCTYPE svg PUBLIC "-//W3C//DTD SVG 20010904//EN"
 "http://www.w3.org/TR/2001/REC-SVG-20010904/DTD/svg10.dtd">
<svg version="1.0" xmlns="http://www.w3.org/2000/svg"
 width="900.000000pt" height="500.000000pt" viewBox="0 0 900.000000 500.000000"
 preserveAspectRatio="xMidYMid meet">

<g transform="translate(0.000000,500.000000) scale(0.100000,-0.100000)"
fill="#000000" stroke="none">
<path d="M1630 4195 c-526 -76 -955 -352 -1205 -775 -157 -267 -235 -574 -235
-928 0 -511 144 -916 432 -1218 116 -120 231 -207 378 -283 281 -145 548 -205
905 -203 266 1 497 45 714 137 670 283 1044 937 991 1731 -32 478 -170 814
-450 1095 -258 258 -576 402 -995 449 -121 13 -430 11 -535 -5z m564 -55 c32
-5 60 -11 63 -13 3 -4 -252 -1502 -273 -1599 -3 -16 -10 -28 -15 -28 -10 0
-13 1643 -2 1653 7 8 139 0 227 -13z m334 -77 c48 -15 81 -30 79 -37 -132
-388 -545 -1526 -554 -1526 -7 0 -13 3 -13 8 0 10 270 1585 275 1599 4 14 81
-2 213 -44z m250 -103 c54 -27 109 -60 124 -72 l27 -23 -386 -682 c-336 -594
-413 -719 -413 -673 0 7 298 850 525 1488 7 19 21 15 123 -38z m244 -157 c67
-54 168 -158 168 -173 -1 -8 -207 -265 -458 -570 -337 -409 -464 -556 -481
-558 -19 -3 -23 0 -17 14 15 39 740 1314 747 1314 4 0 22 -12 41 -27z m271
-305 c30 -46 64 -102 76 -124 l20 -42 -485 -416 c-438 -375 -489 -416 -520
-416 -26 0 -33 3 -28 13 4 6 172 212 373 457 447 545 501 610 506 610 2 0 28
-37 58 -82z m-1395 -955 l-3 -858 -35 3 c-59 5 -178 41 -238 71 -204 103 -345
296 -397 541 -41 194 -24 446 44 643 53 153 161 297 273 365 92 55 205 89 306
91 l52 1 -2 -857z m1542 671 c39 -106 64 -204 55 -213 -6 -5 -198 -120 -428
-256 l-417 -246 -68 3 -67 3 445 382 c245 210 448 383 452 383 4 0 16 -25 28
-56z m84 -291 c8 -27 24 -142 28 -198 l3 -49 -235 -88 -235 -88 -147 0 c-82 0
-148 3 -148 8 0 6 707 429 722 431 4 1 9 -7 12 -16z m36 -368 l0 -55 -152 1
c-84 0 -148 3 -143 5 50 21 273 103 283 104 8 0 12 -17 12 -55z m-3023 -212
c13 -87 36 -212 52 -279 17 -66 31 -127 33 -135 3 -16 -57 -15 -172 2 -111 17
-137 26 -148 57 -28 70 -62 312 -62 434 l0 78 138 0 137 0 22 -157z m326 92
c17 -128 50 -275 84 -378 21 -63 32 -112 27 -117 -11 -11 -255 -36 -275 -28
-17 7 -48 114 -84 293 -25 126 -45 282 -36 291 3 2 66 3 140 2 l136 -3 8 -60z
m290 -25 c9 -108 47 -252 87 -329 16 -33 30 -62 30 -65 0 -4 -3 -5 -128 -39
l-92 -26 -14 27 c-45 88 -116 377 -116 471 l0 52 113 -3 112 -3 8 -85z m195
-502 c105 -136 297 -242 497 -275 l50 -8 3 -48 3 -47 -65 -30 c-90 -40 -239
-95 -313 -116 l-62 -17 -29 25 c-54 45 -162 172 -221 258 -64 94 -146 238
-139 245 7 7 200 63 219 64 9 1 35 -23 57 -51z m-903 -33 c50 -8 113 -15 141
-15 29 0 56 -5 61 -12 5 -7 21 -44 35 -83 37 -102 104 -247 160 -349 27 -48
48 -90 46 -91 -6 -6 -130 23 -188 43 -77 27 -131 56 -157 84 -57 62 -184 311
-208 411 -8 32 -11 32 110 12z m604 -64 c55 -108 166 -270 255 -371 41 -47 71
-88 68 -91 -14 -13 -141 -30 -269 -36 l-131 -6 -38 59 c-88 137 -234 460 -219
484 3 5 34 10 68 11 49 0 212 21 224 28 2 0 21 -34 42 -78z m851 -546 c0 -107
-3 -195 -6 -195 -33 0 -363 218 -371 245 -1 6 44 25 100 43 56 18 136 48 177
67 41 18 81 34 88 34 9 1 12 -44 12 -194z m-1164 30 c27 -8 83 -20 125 -27
l76 -13 63 -80 c35 -44 93 -111 129 -148 69 -72 69 -73 -42 -23 -122 54 -328
196 -406 280 -29 31 -18 33 55 11z m783 -57 c82 -65 194 -137 314 -202 l67
-37 0 -79 0 -80 -65 0 c-127 0 -387 38 -466 68 -47 18 -178 132 -264 230 -47
53 -85 102 -85 107 0 6 37 11 87 12 89 3 209 17 273 32 19 5 41 9 48 10 6 1
48 -27 91 -61z"/>
<path d="M4080 2501 c0 -1290 3 -1621 13 -1622 6 0 343 -1 747 0 796 0 891 4
1144 56 418 84 780 286 999 555 176 217 278 458 323 762 22 153 15 488 -15
628 -45 220 -140 438 -255 591 -258 341 -644 545 -1186 625 -99 15 -230 18
-942 21 l-828 4 0 -1620z m1555 819 c108 -16 247 -62 320 -105 214 -129 315
-356 315 -710 0 -157 -16 -272 -54 -384 -73 -217 -239 -363 -484 -428 -89 -24
-119 -26 -349 -31 l-253 -4 0 841 0 840 213 -3 c116 -3 248 -10 292 -16z"/>
<path d="M7792 2499 l3 -1622 483 1 c265 0 493 1 507 1 l25 1 0 1620 0 1620
-510 0 -510 0 2 -1621z"/>
</g>
</svg>
